<?xml version="1.0" standalone="no"?>
<!DOCTYPE svg PUBLIC "-//W3C//DTD SVG 1.1//EN" "http://www.w3.org/Graphics/SVG/1.1/DTD/svg11.dtd" >
<svg>
<metadata>
Created by FontForge 20090622 at Fri May  4 05:42:19 2018
 By deploy user
Copyright (c) 2016 by The Economist. All rights reserved.
</metadata>
<defs>
<font id="EconSansCnd-Light" horiz-adv-x="324" >
  <font-face 
    font-family="Econ Sans Cnd Light"
    font-weight="300"
    font-stretch="semi-condensed"
    units-per-em="1000"
    panose-1="2 0 5 6 0 0 0 2 0 4"
    ascent="750"
    descent="-250"
    x-height="497"
    cap-height="706"
    bbox="-138 -286 1036 999"
    underline-thickness="50"
    underline-position="-50"
    unicode-range="U+000D-U+FB04"
  />
<missing-glyph horiz-adv-x="202" 
 />
    <glyph glyph-name="f_f" unicode="ff" horiz-adv-x="562" 
d="M154 0h-60v441h-62v56h62v53q0 82 14 115q28 72 122 72q50 0 74 -15v-59q-25 18 -65 18q-56 0 -74 -43q-11 -28 -11 -87v-54h107v-56h-107v-441zM436 0h-60v441h-63v56h63v70q0 83 13 117q28 72 122 72q49 0 74 -16v-59q-28 19 -66 19q-55 0 -73 -43q-10 -22 -10 -89v-71
h111v-56h-111v-441z" />
    <glyph glyph-name="fi" unicode="fi" horiz-adv-x="495" 
d="M32 441v56h62v70q0 84 14 117q30 72 122 72q48 0 73 -15v-59q-27 18 -64 18q-56 0 -74 -43q-11 -24 -11 -88v-72h115v-56h-115v-441h-60v441h-62zM357 497h61v-497h-61v497zM432 659q0 -20 -12.5 -33t-33.5 -13q-19 0 -31.5 12.5t-12.5 32.5t12.5 33t33.5 13
q19 0 31.5 -12.5t12.5 -32.5z" />
    <glyph glyph-name="fl" unicode="fl" horiz-adv-x="495" 
d="M154 0h-60v441h-62v56h62v70q0 84 14 117q28 72 122 72q46 0 71 -14v-60q-24 18 -63 18q-54 0 -73 -43q-11 -27 -11 -89v-71h115v-56h-115v-441zM418 0h-61v747h61v-747z" />
    <glyph glyph-name="f_f_i" unicode="ffi" horiz-adv-x="777" 
d="M32 441v56h62v53q0 82 14 115q30 72 122 72q50 0 74 -15v-59q-25 18 -65 18q-56 0 -74 -43q-11 -28 -11 -87v-54h107v-56h-107v-441h-60v441h-62zM314 441v56h62v70q0 83 13 117q28 72 122 72q48 0 72 -15v-59q-27 18 -64 18q-54 0 -73 -43q-10 -25 -10 -89v-71h113v-56
h-113v-441h-60v441h-62zM639 497h60v-497h-60v497zM714 659q0 -20 -12.5 -33t-33.5 -13q-19 0 -31.5 12.5t-12.5 32.5t12.5 33t33.5 13q19 0 31.5 -12.5t12.5 -32.5z" />
    <glyph glyph-name="f_f_l" unicode="ffl" horiz-adv-x="776" 
d="M154 0h-60v441h-62v56h62v53q0 82 14 115q28 72 122 72q50 0 74 -15v-59q-25 18 -65 18q-56 0 -74 -43q-11 -28 -11 -87v-54h107v-56h-107v-441zM436 0h-60v441h-63v56h63v70q0 83 13 117q28 72 122 72q46 0 71 -14v-60q-26 18 -63 18q-55 0 -73 -43q-10 -22 -10 -89v-71
h113v-56h-113v-441zM699 0h-61v747h61v-747z" />
    <glyph glyph-name="f_b" unicode="fb" horiz-adv-x="785" 
d="M154 0h-60v441h-62v56h62v70q0 84 14 117q28 72 122 72q46 0 71 -14v-60q-24 18 -63 18q-54 0 -73 -43q-11 -27 -11 -89v-71h115v-56h-115v-441zM357 26v721h61v-307q56 69 142 69q89 0 137.5 -66.5t48.5 -182.5q0 -130 -58 -201t-161 -71q-93 0 -170 38zM418 68
q42 -27 115 -27q65 0 107 53t42 158t-39.5 153.5t-98.5 48.5q-39 0 -74.5 -22t-51.5 -50v-314z" />
    <glyph glyph-name="f_f_b" unicode="ffb" horiz-adv-x="1066" 
d="M154 0h-60v441h-62v56h62v53q0 82 14 115q28 72 122 72q50 0 74 -15v-59q-25 18 -65 18q-56 0 -74 -43q-11 -28 -11 -87v-54h107v-56h-107v-441zM436 0h-60v441h-62v56h62v70q0 83 13 117q28 72 122 72q46 0 71 -14v-60q-26 18 -63 18q-55 0 -73 -43q-10 -22 -10 -89v-71
h113v-56h-113v-441zM638 26v721h61v-307q54 69 142 69q89 0 137.5 -66.5t48.5 -182.5q0 -130 -58 -201t-161 -71q-94 0 -170 38zM699 68q42 -27 115 -27q65 0 106.5 53t41.5 158t-39.5 153.5t-97.5 48.5q-39 0 -74 -22t-52 -50v-314z" />
    <glyph glyph-name="f_f_h" unicode="ffh" horiz-adv-x="1063" 
d="M154 0h-60v441h-62v56h62v53q0 82 14 115q28 72 122 72q50 0 74 -15v-59q-25 18 -65 18q-56 0 -74 -43q-11 -28 -11 -87v-54h107v-56h-107v-441zM436 0h-60v441h-63v56h63v70q0 83 13 117q28 72 122 72q46 0 71 -14v-60q-26 18 -63 18q-55 0 -73 -43q-10 -22 -10 -89v-71
h113v-56h-113v-441zM699 0h-60v747h60v-313q20 32 60.5 54t85.5 22q107 0 131 -92q13 -45 13 -138v-280h-61v278q0 87 -11 119q-21 55 -90 55q-38 0 -72.5 -21.5t-55.5 -55.5v-375z" />
    <glyph glyph-name="f_f_j" unicode="ffj" horiz-adv-x="770" 
d="M32 441v56h62v53q0 82 14 115q28 72 122 72q50 0 74 -15v-59q-25 18 -65 18q-56 0 -74 -43q-11 -28 -11 -87v-54h107v-56h-107v-441h-60v441h-62zM313 441v56h63v70q0 83 13 117q28 72 122 72q48 0 72 -15v-59q-27 18 -64 18q-55 0 -73 -43q-10 -22 -10 -89v-71h113v-56
h-113v-441h-60v441h-63zM638 497h61v-528q0 -92 -27 -130q-34 -44 -101 -77l-22 52q44 22 65 48q24 32 24 109v526zM714 659q0 -20 -12.5 -33t-33.5 -13q-19 0 -31.5 12.5t-12.5 32.5t12.5 33t33.5 13q19 0 31.5 -12.5t12.5 -32.5z" />
    <glyph glyph-name="f_f_k" unicode="ffk" horiz-adv-x="997" 
d="M154 0h-60v441h-62v56h62v53q0 82 14 115q28 72 122 72q50 0 74 -15v-59q-25 18 -65 18q-56 0 -74 -43q-11 -28 -11 -87v-54h107v-56h-107v-441zM436 0h-60v441h-63v56h63v70q0 83 13 117q28 72 122 72q46 0 71 -14v-60q-26 18 -63 18q-55 0 -73 -43q-10 -22 -10 -89v-71
h113v-56h-113v-441zM699 0h-61v747h61v-454l199 204h77l-218 -218l240 -279h-77l-92.5 107.5l-87 103l-41.5 49.5v-260z" />
    <glyph glyph-name="f_h" unicode="fh" horiz-adv-x="781" 
d="M154 0h-60v441h-62v56h62v70q0 84 14 117q28 72 122 72q46 0 71 -14v-60q-24 18 -63 18q-54 0 -73 -43q-11 -27 -11 -89v-71h115v-56h-115v-441zM418 0h-61v747h61v-313q20 32 60.5 54t86.5 22q106 0 130 -92q13 -49 13 -138v-280h-61v278q0 90 -11 119q-21 55 -90 55
q-38 0 -73 -21.5t-55 -55.5v-375z" />
    <glyph glyph-name="f_j" unicode="fj" horiz-adv-x="489" 
d="M32 441v56h62v70q0 84 14 117q30 72 122 72q48 0 73 -15v-59q-27 18 -64 18q-55 0 -74 -43q-11 -27 -11 -89v-71h115v-56h-115v-441h-60v441h-62zM357 497h61v-528q0 -93 -28 -130q-32 -43 -99 -77l-23 52q44 22 65 48q24 32 24 109v526zM433 659q0 -20 -12.5 -33
t-33.5 -13q-19 0 -31.5 12.5t-12.5 32.5t12.5 33t33.5 13q19 0 31.5 -12.5t12.5 -32.5z" />
    <glyph glyph-name="f_k" unicode="fk" horiz-adv-x="715" 
d="M154 0h-60v441h-62v56h62v70q0 84 14 117q28 72 122 72q46 0 71 -14v-60q-24 18 -63 18q-54 0 -73 -43q-11 -27 -11 -89v-71h115v-56h-115v-441zM418 0h-61v747h61v-454l10 10l19.5 20l32.5 33.5l56 57l82 83.5h76l-218 -218l240 -279h-77l-133 156l-67.5 79.5
l-20.5 24.5v-260z" />
    <glyph glyph-name=".notdef" horiz-adv-x="202" 
 />
    <glyph glyph-name=".null" horiz-adv-x="0" 
 />
    <glyph glyph-name="nonmarkingreturn" horiz-adv-x="333" 
 />
    <glyph glyph-name="NULL" horiz-adv-x="0" 
 />
    <glyph glyph-name="NULL" horiz-adv-x="0" 
 />
    <glyph glyph-name="CR" unicode="&#xd;" horiz-adv-x="202" 
 />
    <glyph glyph-name="space" unicode=" " horiz-adv-x="202" 
 />
    <glyph glyph-name="exclam" unicode="!" horiz-adv-x="236" 
d="M160 215h-53q-8 326 -8 491h70q0 -167 -9 -491zM183 45q0 -23 -14.5 -37.5t-37.5 -14.5q-22 0 -36 14.5t-14 35.5q0 23 14.5 38t37.5 15q22 0 36 -14.5t14 -36.5z" />
    <glyph glyph-name="quotedbl" unicode="&#x22;" horiz-adv-x="299" 
d="M103 468h-47q-8 236 -8 279h63q-1 -121 -8 -279zM244 468h-46q-6 143 -9 279h62q0 -115 -7 -279z" />
    <glyph glyph-name="numbersign" unicode="#" horiz-adv-x="486" 
d="M139 -14h-36l28 217h-90v60h98l19 148h-96v60h104l27 209h36l-27 -209h122l27 209h36l-27 -209h85v-60h-93l-19 -148h91v-60h-99l-28 -217h-35l28 217h-123zM194 411l-19 -148h122l19 148h-122z" />
    <glyph glyph-name="dollar" unicode="$" horiz-adv-x="494" 
d="M273 -86h-43v79q-96 4 -163 63v74q68 -68 163 -77v269l-34 18q-69 36 -98.5 78.5t-29.5 102.5q0 75 42.5 121t119.5 53v78h43v-78q79 -5 135 -46v-74q-62 51 -135 59v-260l25 -13q83 -43 112.5 -86t29.5 -102q0 -77 -43.5 -125t-123.5 -55v-79zM375 171q0 41 -22 68.5
t-80 59.5v-245q52 7 77 39t25 78zM133 523q0 -44 22.5 -71t70.5 -53l4 -2v236q-48 -6 -72.5 -36.5t-24.5 -73.5z" />
    <glyph glyph-name="percent" unicode="%" horiz-adv-x="727" 
d="M297 482q0 -92 -33 -149.5t-102 -57.5q-70 0 -103 58t-33 149q0 94 35 154t104 60q132 0 132 -214zM246 483q0 92 -22 128t-61 36q-84 0 -84 -166q0 -160 84 -160q83 0 83 162zM228 -12h-42l314 713h42zM702 200q0 -92 -32.5 -149.5t-102.5 -57.5t-103.5 58t-33.5 149
q0 94 35.5 154t104.5 60q132 0 132 -214zM651 201q0 92 -22 128t-61 36q-37 0 -61 -38.5t-24 -127.5q0 -160 85 -160q83 0 83 162z" />
    <glyph glyph-name="ampersand" unicode="&#x26;" horiz-adv-x="601" 
d="M503 0l-69 79q-89 -91 -205 -91q-85 0 -137 53t-52 136q0 73 38.5 120t116.5 89q-57 82 -57 154q0 66 42 108t112 42q61 0 100 -35t39 -97q0 -65 -35 -106t-108 -84q77 -108 151 -194q40 48 82 124l56 -33q-46 -83 -95 -141q25 -31 107 -124h-86zM257 412q60 33 85 66
t25 71q0 35 -21 57.5t-55 22.5q-44 0 -65.5 -25.5t-21.5 -64.5q0 -63 53 -127zM228 338q-61 -32 -90 -68t-29 -89q0 -47 29.5 -88t96.5 -41q86 0 159 75q-65 77 -166 211z" />
    <glyph glyph-name="quotesingle" unicode="'" horiz-adv-x="158" 
d="M103 468h-47q-8 236 -8 279h63q-1 -121 -8 -279z" />
    <glyph glyph-name="parenleft" unicode="(" horiz-adv-x="275" 
d="M224 -157q-189 174 -189 451q0 292 189 458h55q-181 -171 -181 -457q0 -266 181 -452h-55z" />
    <glyph glyph-name="parenright" unicode=")" horiz-adv-x="275" 
d="M51 752q189 -174 189 -451q0 -295 -189 -458h-55q181 171 181 457q0 264 -181 452h55z" />
    <glyph glyph-name="asterisk" unicode="*" horiz-adv-x="417" 
d="M365 616l17 -53q-53 -17 -140 -39q52 -55 97 -115l-46 -32q-61 78 -87 120q-16 -26 -84 -120l-45 31q45 63 95 117q-104 29 -137 40l18 51q61 -19 135 -51q-10 98 -10 152h59q0 -75 -6 -153q56 27 134 52z" />
    <glyph glyph-name="plus" unicode="+" horiz-adv-x="684" 
d="M365 34h-47v236h-220v50h220v234h47v-234h221v-50h-221v-236z" />
    <glyph glyph-name="comma" unicode="," horiz-adv-x="198" 
d="M69 -119h-54q62 110 62 259h63q0 -156 -71 -259z" />
    <glyph glyph-name="hyphen" unicode="-" horiz-adv-x="313" 
d="M271 231h-229v59h229v-59z" />
    <glyph glyph-name="period" unicode="." horiz-adv-x="181" 
d="M149 45q0 -23 -14.5 -37.5t-37.5 -14.5q-22 0 -36 14.5t-14 35.5q0 23 14.5 38t37.5 15q22 0 36 -14.5t14 -36.5z" />
    <glyph glyph-name="slash" unicode="/" horiz-adv-x="320" 
d="M37 -57h-47l281 788h48z" />
    <glyph glyph-name="zero" unicode="0" horiz-adv-x="483" 
d="M451 338q0 -97 -20 -173.5t-68.5 -126.5t-120.5 -50q-73 0 -122 50.5t-69 126.5t-20 174q0 102 22 181.5t71.5 130t120.5 50.5q206 0 206 -363zM387 341q0 86 -11 145.5t-32 92t-45.5 46t-56.5 13.5q-61 0 -103 -71.5t-42 -229.5q0 -85 13.5 -144.5t36.5 -89t46 -41.5
t50 -12q144 0 144 291z" />
    <glyph glyph-name="one" unicode="1" horiz-adv-x="483" 
d="M298 0h-66v606l-130 -74v70l196 105v-707z" />
    <glyph glyph-name="two" unicode="2" horiz-adv-x="483" 
d="M443 0h-410q162 200 234 311q71 108 71 190q0 136 -122 136q-80 0 -159 -72v67q74 69 170 69q87 0 132 -49t45 -139q0 -104 -79 -223q-64 -96 -171 -229q59 1 289 1v-62z" />
    <glyph glyph-name="three" unicode="3" horiz-adv-x="483" 
d="M50 30v70q65 -50 154 -50q75 0 110 41.5t35 108.5q0 46 -25.5 81t-78.5 43q-35 5 -81 5h-17v60h17q60 0 84 11q79 33 79 115q0 55 -29 89.5t-93 34.5q-73 0 -143 -56v66q65 52 156 52q81 0 126.5 -46t45.5 -130q0 -52 -28.5 -97t-90.5 -63q70 -10 106.5 -55.5
t36.5 -114.5q0 -93 -55.5 -150t-158.5 -57q-42 0 -84.5 12t-65.5 30z" />
    <glyph glyph-name="four" unicode="4" horiz-adv-x="483" 
d="M373 0h-63v205h-276v45l284 439h55v-428h88v-56h-88v-205zM310 261q0 280 1 330q-38 -66 -209 -330h208z" />
    <glyph glyph-name="five" unicode="5" horiz-adv-x="483" 
d="M57 29v70q68 -49 157 -49q67 0 106.5 45.5t39.5 119.5q0 73 -39 111t-108 38q-73 0 -133 -32l32 357h284v-62h-234l-21 -221q35 16 92 16q84 0 138 -50.5t54 -154.5q0 -105 -56.5 -167t-155.5 -62q-90 0 -156 41z" />
    <glyph glyph-name="six" unicode="6" horiz-adv-x="483" 
d="M106 324q17 50 61 82.5t105 32.5q81 0 130 -53.5t49 -159.5q0 -113 -53 -175.5t-142 -62.5q-95 0 -154 80.5t-59 260.5q0 189 69 280.5t177 91.5q81 0 127 -37v-72q-51 46 -124 46q-96 0 -140 -79t-46 -235zM113 248q3 -59 26 -115q36 -84 118 -84q56 0 92.5 44t36.5 129
q0 82 -34.5 122t-92.5 40q-57 0 -96.5 -40t-49.5 -96z" />
    <glyph glyph-name="seven" unicode="7" horiz-adv-x="483" 
d="M197 0h-73l238 627h-322v62h409z" />
    <glyph glyph-name="eight" unicode="8" horiz-adv-x="483" 
d="M161 358q-103 44 -103 160q0 80 52.5 131.5t131.5 51.5q84 0 133.5 -48t49.5 -133q0 -53 -27 -97t-77 -62q59 -16 89.5 -64.5t30.5 -111.5q0 -87 -54.5 -142t-148.5 -55q-86 0 -141 52t-55 145q0 60 31.5 107t87.5 66zM365 518q0 58 -33 92.5t-90 34.5q-52 0 -88.5 -35
t-36.5 -93q0 -55 32 -93t93 -38q58 0 90.5 37.5t32.5 94.5zM380 188q0 68 -38 105t-100 37q-63 0 -101 -39.5t-38 -100.5q0 -70 40.5 -107t95.5 -37q59 0 100 37t41 105z" />
    <glyph glyph-name="nine" unicode="9" horiz-adv-x="483" 
d="M376 368q-15 -49 -61.5 -83t-106.5 -34q-78 0 -127 53t-49 159q0 112 55 175t144 63q94 0 151 -80t57 -261q0 -193 -66.5 -282.5t-178.5 -89.5q-82 0 -131 36v73q52 -46 127 -46q186 0 186 317zM370 439q-3 69 -24 116q-35 85 -117 85q-56 0 -95 -44.5t-39 -128.5
q0 -82 34.5 -121t93.5 -39q57 0 97.5 38.5t49.5 93.5z" />
    <glyph glyph-name="colon" unicode=":" horiz-adv-x="199" 
d="M169 45q0 -23 -14.5 -37.5t-37.5 -14.5q-22 0 -36 14.5t-14 35.5q0 23 14.5 38t37.5 15q22 0 36 -14.5t14 -36.5zM169 439q0 -23 -14.5 -37.5t-37.5 -14.5q-22 0 -36 14.5t-14 35.5q0 23 14.5 38t37.5 15q22 0 36 -14.5t14 -36.5z" />
    <glyph glyph-name="semicolon" unicode=";" horiz-adv-x="199" 
d="M169 439q0 -23 -14.5 -37.5t-37.5 -14.5q-22 0 -36 14.5t-14 35.5q0 23 14.5 38t37.5 15q22 0 36 -14.5t14 -36.5zM84 -119h-54q62 110 62 259h63q0 -156 -71 -259z" />
    <glyph glyph-name="less" unicode="&#x3c;" horiz-adv-x="684" 
d="M555 57l-441 216v44l441 222v-57l-385 -186l385 -182v-57z" />
    <glyph glyph-name="equal" unicode="=" horiz-adv-x="684" 
d="M98 217h488v-49h-488v49zM98 422h488v-49h-488v49z" />
    <glyph glyph-name="greater" unicode="&#x3e;" horiz-adv-x="684" 
d="M129 539l441 -216v-45l-441 -221v56l385 186l-385 182v58z" />
    <glyph glyph-name="question" unicode="?" horiz-adv-x="358" 
d="M176 215h-52q0 58 8.5 93.5t38.5 65.5q93 94 93 168q0 45 -23.5 79t-77.5 34q-76 0 -127 -57v69q53 52 143 52q69 0 110 -42t41 -121q0 -53 -24.5 -100t-82.5 -101q-27 -25 -35.5 -55.5t-11.5 -84.5zM201 45q0 -23 -14.5 -37.5t-37.5 -14.5q-22 0 -36 14.5t-14 35.5
q0 23 14.5 38t37.5 15q22 0 36 -14.5t14 -36.5z" />
    <glyph glyph-name="at" unicode="@" horiz-adv-x="749" 
d="M456 116q-57 -65 -135 -65q-116 0 -116 134q0 109 70.5 191.5t192.5 82.5q48 0 94 -18l-49 -239q-10 -50 -10 -69q0 -38 34 -38q51 0 91 76t40 172q0 122 -67 190t-181 68q-138 0 -236 -112t-98 -274q0 -137 76 -222.5t206 -85.5q73 0 127.5 18t115.5 53v-44
q-102 -67 -247 -67t-234 96t-89 251q0 177 111 301t271 124q129 0 207 -77.5t78 -209.5q0 -123 -53.5 -211.5t-130.5 -88.5q-61 0 -68 64zM453 157l51 249q-26 6 -51 6q-91 0 -143.5 -69.5t-52.5 -155.5q0 -87 80 -87q54 0 116 57z" />
    <glyph glyph-name="A" unicode="A" horiz-adv-x="567" 
d="M75 0h-71l251 709h57l250 -709h-72l-82 228h-253zM176 290h214q-89 252 -107 313z" />
    <glyph glyph-name="B" unicode="B" horiz-adv-x="559" 
d="M88 0v706h176q76 0 118 -21q90 -45 90 -152q0 -55 -25.5 -97.5t-74.5 -63.5q72 -13 108.5 -57.5t36.5 -115.5q0 -119 -88 -170q-48 -29 -157 -29h-184zM155 64h114q81 0 114 19q62 35 62 121q0 92 -77 117q-36 12 -97 12h-116v-269zM155 395h109q63 0 94 26q46 36 46 100
q0 32 -11.5 60t-32.5 40q-36 22 -101 22h-104v-248z" />
    <glyph glyph-name="C" unicode="C" horiz-adv-x="591" 
d="M548 49q-81 -61 -200 -61q-133 0 -219.5 98.5t-86.5 261.5t85.5 267t224.5 104q132 0 198 -58v-81q-66 76 -189 76q-113 0 -181 -83t-68 -224t71.5 -219t179.5 -78q106 0 185 70v-73z" />
    <glyph glyph-name="D" unicode="D" horiz-adv-x="644" 
d="M88 0v706h151q134 0 202 -32q161 -75 161 -316q0 -249 -181 -327q-73 -31 -204 -31h-129zM155 63h77q113 0 171 31q128 66 128 263q0 185 -116 254q-54 32 -165 32h-95v-580z" />
    <glyph glyph-name="E" unicode="E" horiz-adv-x="484" 
d="M450 0h-362v706h347v-66h-280v-241h264v-65h-264v-268h295v-66z" />
    <glyph glyph-name="F" unicode="F" horiz-adv-x="457" 
d="M155 0h-67v706h344v-66h-277v-258h259v-64h-259v-318z" />
    <glyph glyph-name="G" unicode="G" horiz-adv-x="650" 
d="M579 46q-94 -58 -229 -58q-140 0 -224 100t-84 261q0 163 86 266.5t223 103.5q134 0 207 -58v-79q-74 74 -196 74q-116 0 -183 -85.5t-67 -221.5t68 -216t178 -80q96 0 156 35v192h-147v65h212v-299z" />
    <glyph glyph-name="H" unicode="H" horiz-adv-x="647" 
d="M559 0h-68v334h-336v-334h-67v706h67v-307h336v307h68v-706z" />
    <glyph glyph-name="I" unicode="I" horiz-adv-x="243" 
d="M155 0h-67v706h67v-706z" />
    <glyph glyph-name="J" unicode="J" horiz-adv-x="245" 
d="M1 -184l-27 57q71 37 92 66q23 34 23 102v665h67v-658q0 -103 -38 -148q-42 -49 -117 -84z" />
    <glyph glyph-name="K" unicode="K" horiz-adv-x="539" 
d="M155 0h-67v706h67v-322l266 322h85l-287 -335l319 -371h-89l-294 348v-348z" />
    <glyph glyph-name="L" unicode="L" horiz-adv-x="466" 
d="M443 0h-355v706h67v-640h288v-66z" />
    <glyph glyph-name="M" unicode="M" horiz-adv-x="732" 
d="M154 0h-66v706h73q191 -341 203 -366q10 21 208 366h72v-706h-66q0 510 2 595l-25.5 -45l-32 -55.5l-62.5 -107.5l-99 -169l-209 377q2 -85 2 -595z" />
    <glyph glyph-name="N" unicode="N" horiz-adv-x="664" 
d="M153 0h-65v706h60q330 -508 366 -571q-3 84 -3 571h65v-706h-55q-343 538 -369 581q1 -72 1 -581z" />
    <glyph glyph-name="O" unicode="O" horiz-adv-x="684" 
d="M642 354q0 -166 -83 -266t-220 -100q-132 0 -214.5 100.5t-82.5 264.5t85 265t220 101q138 0 216.5 -102t78.5 -263zM571 348q0 142 -60 224.5t-165 82.5q-106 0 -170 -81t-64 -220t63 -220.5t167 -81.5q106 0 167.5 79.5t61.5 216.5z" />
    <glyph glyph-name="P" unicode="P" horiz-adv-x="522" 
d="M155 0h-67v706h116q90 0 132 -9q145 -28 145 -192q0 -136 -102 -183q-57 -25 -167 -25h-57v-297zM155 359h59q78 0 126 18q70 27 70 124q0 56 -27 91.5t-76 43.5q-36 7 -102 7h-50v-284z" />
    <glyph glyph-name="Q" unicode="Q" horiz-adv-x="684" 
d="M642 354q0 -128 -50.5 -218.5t-139.5 -126.5q93 -65 212 -103l-22 -62q-70 18 -150 61.5t-124 83.5q-10 -1 -29 -1q-132 0 -214.5 100.5t-82.5 264.5t85 265t220 101q138 0 216.5 -102t78.5 -263zM571 348q0 142 -60 224.5t-165 82.5q-106 0 -170 -81t-64 -220t63 -220.5
t167 -81.5q106 0 167.5 79.5t61.5 216.5z" />
    <glyph glyph-name="R" unicode="R" horiz-adv-x="550" 
d="M155 0h-67v706h110q96 0 140 -10q134 -28 134 -176q0 -139 -131 -184q40 -17 72 -73t128 -263h-74q-88 187 -115 235t-54 64q-20 12 -60 12h-83v-311zM155 373h91q46 0 75 12q81 31 81 129q0 50 -26.5 85.5t-82.5 41.5q-36 4 -93 4h-45v-272z" />
    <glyph glyph-name="S" unicode="S" horiz-adv-x="476" 
d="M45 50v82q38 -39 91 -59.5t102 -20.5q69 0 101.5 34t32.5 87q0 44 -24 73t-88 62l-78 40q-75 38 -104.5 81t-29.5 108q0 85 52 133.5t145 48.5q95 0 162 -47v-79q-76 62 -167 62q-62 0 -92.5 -33.5t-30.5 -83.5q0 -48 22 -73.5t74 -51.5l77 -40q90 -46 121.5 -90
t31.5 -106q0 -87 -55 -138t-154 -51q-114 0 -189 62z" />
    <glyph glyph-name="T" unicode="T" horiz-adv-x="518" 
d="M291 0h-67v640h-195v66h459v-66h-197v-640z" />
    <glyph glyph-name="U" unicode="U" horiz-adv-x="657" 
d="M82 706h66v-412q0 -84 14 -134q15 -54 59.5 -81t105.5 -27q146 0 172 125q11 51 11 124v405h65v-408q0 -93 -14 -153q-19 -77 -80.5 -117t-155.5 -40q-86 0 -147 37.5t-81 115.5q-15 59 -15 151v414z" />
    <glyph glyph-name="V" unicode="V" horiz-adv-x="566" 
d="M312 -3h-57l-251 709h74q179 -515 207 -603q28 92 205 603h71z" />
    <glyph glyph-name="W" unicode="W" horiz-adv-x="865" 
d="M259 -3h-55l-194 709h72q125 -456 155 -588q16 62 171 588h52q163 -547 173 -588q31 143 154 588h68l-194 -709h-55q-149 499 -173 592q-18 -74 -174 -592z" />
    <glyph glyph-name="X" unicode="X" horiz-adv-x="593" 
d="M87 0h-77l240 374l-215 332h81l186 -287l182 287h74l-215 -335l241 -371h-81l-209 323z" />
    <glyph glyph-name="Y" unicode="Y" horiz-adv-x="548" 
d="M304 0h-68v297l-232 409h79l189 -340l199 340h73l-240 -409v-297z" />
    <glyph glyph-name="Z" unicode="Z" horiz-adv-x="544" 
d="M517 0h-508l394 641q-42 -1 -350 -1v66h468l-393 -641q59 1 389 1v-66z" />
    <glyph glyph-name="bracketleft" unicode="[" horiz-adv-x="230" 
d="M219 -154h-151v901h151v-41h-93v-819h93v-41z" />
    <glyph glyph-name="backslash" unicode="\" horiz-adv-x="320" 
d="M324 -57h-48l-281 788h47z" />
    <glyph glyph-name="bracketright" unicode="]" horiz-adv-x="233" 
d="M14 747h151v-901h-151v41h93v819h-93v41z" />
    <glyph glyph-name="asciicircum" unicode="^" horiz-adv-x="690" 
d="M559 312h-54l-161 336l-160 -336h-54l189 394h49z" />
    <glyph glyph-name="underscore" unicode="_" horiz-adv-x="403" 
d="M0 -87h403v-30h-403v30z" />
    <glyph glyph-name="grave" unicode="`" horiz-adv-x="161" 
d="M172 580h-59l-126 167h79z" />
    <glyph glyph-name="a" unicode="a" horiz-adv-x="448" 
d="M375 0h-58v56q-55 -66 -138 -66q-63 0 -100.5 40.5t-37.5 101.5q0 73 55 112q58 40 219 54v16q0 69 -18 97q-25 40 -83 40q-89 0 -149 -61v63q61 56 155 56q100 0 136 -74q19 -41 19 -130v-305zM315 98v153q-131 -11 -179 -44q-34 -23 -34 -71q0 -38 22 -66.5t71 -28.5
q70 0 120 57z" />
    <glyph glyph-name="b" unicode="b" horiz-adv-x="504" 
d="M77 26v721h60v-307q56 69 141 69q90 0 138 -66.5t48 -182.5q0 -129 -58 -200.5t-159 -71.5q-94 0 -170 38zM137 68q41 -26 115 -26q65 0 106.5 52.5t41.5 157.5t-39 153t-98 48q-39 0 -74 -21.5t-52 -49.5v-314z" />
    <glyph glyph-name="c" unicode="c" horiz-adv-x="424" 
d="M391 26q-56 -38 -136 -38q-100 0 -158 69.5t-58 189.5q0 115 63 188.5t163 73.5q75 0 125 -36v-71q-55 49 -124 49q-75 0 -118.5 -57t-43.5 -142q0 -101 45.5 -154t117.5 -53q66 0 124 43v-62z" />
    <glyph glyph-name="d" unicode="d" horiz-adv-x="506" 
d="M428 0h-59v53q-53 -65 -145 -65q-87 0 -136.5 67.5t-49.5 182.5q0 122 54.5 196.5t156.5 74.5q79 0 118 -45v283h61v-747zM367 110v290q-14 25 -44 39.5t-65 14.5q-69 0 -113 -53.5t-44 -157.5q0 -106 40 -153t99 -47q39 0 74.5 19.5t52.5 47.5z" />
    <glyph glyph-name="e" unicode="e" horiz-adv-x="456" 
d="M418 38q-72 -50 -157 -50q-104 0 -163 69t-59 196q0 118 55 187t147 69q94 0 138.5 -65t44.5 -176v-27h-321q1 -103 46.5 -149.5t123.5 -46.5q81 0 145 53v-60zM104 290h260q-2 164 -123 164q-63 0 -99 -46.5t-38 -117.5z" />
    <glyph glyph-name="f" unicode="f" horiz-adv-x="281" 
d="M155 0h-61v441h-62v56h62v70q0 84 14 117q28 72 122 72q48 0 74 -16v-59q-28 19 -65 19q-55 0 -73 -43q-11 -24 -11 -89v-71h111v-56h-111v-441z" />
    <glyph glyph-name="g" unicode="g" horiz-adv-x="455" 
d="M151 178q-50 17 -77 58t-27 98q0 80 50.5 127.5t128.5 47.5q38 0 73 -12h138v-55h-79q38 -39 38 -104q0 -100 -80 -142q-40 -20 -100 -27q-28 -3 -54.5 -21.5t-26.5 -46.5q0 -19 12 -28.5t44 -12.5q133 -11 163 -19q90 -21 90 -120q0 -78 -61.5 -124t-163.5 -46
q-91 0 -144 36.5t-53 98.5q0 94 112 131q-58 16 -58 71q0 61 75 90zM335 339q0 58 -29 88.5t-80 30.5q-53 0 -85.5 -32t-32.5 -88q0 -52 29.5 -84.5t78.5 -32.5q53 0 86 33t33 85zM381 -86q0 57 -57 74q-43 12 -114 12q-47 0 -88.5 -28t-41.5 -73q0 -42 36 -69t109 -27
q69 0 112.5 31t43.5 80z" />
    <glyph glyph-name="h" unicode="h" horiz-adv-x="499" 
d="M137 0h-60v747h60v-313q20 32 60 54t86 22q106 0 130 -92q13 -49 13 -138v-280h-62v278q0 93 -10 119q-21 55 -90 55q-38 0 -72.5 -21.5t-54.5 -55.5v-375z" />
    <glyph glyph-name="i" unicode="i" horiz-adv-x="215" 
d="M138 0h-61v497h61v-497zM152 659q0 -20 -12.5 -33t-33.5 -13q-19 0 -31.5 12.5t-12.5 32.5t12.5 33t33.5 13q19 0 31.5 -12.5t12.5 -32.5z" />
    <glyph glyph-name="j" unicode="j" horiz-adv-x="215" 
d="M10 -238l-23 52q46 22 65 48q25 32 25 109v526h61v-528q0 -95 -27 -130q-34 -44 -101 -77zM153 659q0 -20 -12.5 -33t-33.5 -13q-19 0 -31.5 12.5t-12.5 32.5t12.5 33t33.5 13q19 0 31.5 -12.5t12.5 -32.5z" />
    <glyph glyph-name="k" unicode="k" horiz-adv-x="435" 
d="M137 0h-60v747h60v-454l24.5 25l64 66l109.5 113h78l-217 -218l238 -279h-77l-220 260v-260z" />
    <glyph glyph-name="l" unicode="l" horiz-adv-x="214" 
d="M137 0h-60v747h60v-747z" />
    <glyph glyph-name="m" unicode="m" horiz-adv-x="770" 
d="M137 0h-60v497h60v-63q22 33 60 54t84 21q96 0 124 -86q24 37 64 61.5t91 24.5q102 0 126 -93q11 -42 11 -140v-276h-61v276q0 89 -10 117q-10 30 -29.5 44.5t-56.5 14.5q-38 0 -72 -22t-54 -56q3 -30 3 -98v-276h-61v275q0 93 -10 119q-22 58 -85 58q-77 0 -124 -77
v-375z" />
    <glyph glyph-name="n" unicode="n" horiz-adv-x="499" 
d="M137 0h-60v497h59v-64q19 32 60 54t87 22q111 0 134 -101q9 -41 9 -128v-280h-62v278q0 90 -10 119q-19 55 -89 55q-40 0 -74.5 -21.5t-53.5 -55.5v-375z" />
    <glyph glyph-name="o" unicode="o" horiz-adv-x="493" 
d="M455 250q0 -121 -56 -191.5t-153 -70.5q-96 0 -151.5 71t-55.5 188q0 116 57 189t152 73q98 0 152.5 -71.5t54.5 -187.5zM391 250q0 97 -38 149.5t-105 52.5q-65 0 -105 -53.5t-40 -150.5q0 -96 38 -149.5t105 -53.5q70 0 107.5 53t37.5 152z" />
    <glyph glyph-name="p" unicode="p" horiz-adv-x="503" 
d="M137 -237h-60v734h59v-59q22 31 59 51t79 20q93 0 141 -68.5t48 -184.5q0 -124 -54 -195.5t-155 -71.5q-75 0 -117 33v-259zM137 83q15 -19 48.5 -30t62.5 -11q76 0 114 58.5t38 151.5q0 97 -36.5 150t-104.5 53q-37 0 -72 -23t-50 -50v-299z" />
    <glyph glyph-name="q" unicode="q" horiz-adv-x="507" 
d="M428 -237h-61v288q-49 -63 -143 -63q-87 0 -136.5 67.5t-49.5 182.5q0 122 54.5 196.5t156.5 74.5q79 0 119 -48v36h60v-734zM367 110v290q-14 25 -44 40t-66 15q-69 0 -112.5 -54t-43.5 -158q0 -106 40 -153.5t99 -47.5q39 0 74.5 20t52.5 48z" />
    <glyph glyph-name="r" unicode="r" 
d="M137 0h-60v497h59v-74q16 41 48 63.5t73 22.5q32 0 53 -12v-67q-23 18 -58 18q-80 0 -115 -88v-360z" />
    <glyph glyph-name="s" unicode="s" horiz-adv-x="372" 
d="M38 36v69q63 -60 149 -60q48 0 69.5 22t21.5 55q0 25 -15 44.5t-63 45.5l-59 31q-51 26 -74.5 57.5t-23.5 77.5q0 57 39 94t107 37q79 0 133 -43v-69q-66 55 -133 55q-47 0 -65.5 -21.5t-18.5 -49.5q0 -27 14.5 -45.5t59.5 -42.5l56 -29q59 -31 81.5 -60t22.5 -80
q0 -62 -40.5 -99t-110.5 -37q-85 0 -150 48z" />
    <glyph glyph-name="t" unicode="t" horiz-adv-x="309" 
d="M296 11q-38 -23 -95 -23q-38 0 -65.5 18.5t-36.5 55.5q-8 29 -8 105v274h-62v56h62v137h61v-137h119v-56h-119v-275q0 -50 6 -77q11 -45 64 -45q40 0 74 24v-57z" />
    <glyph glyph-name="u" unicode="u" horiz-adv-x="498" 
d="M422 0h-61v63q-19 -32 -59 -53.5t-86 -21.5q-106 0 -131 91q-12 44 -12 138v280h61v-278q0 -88 10 -116q21 -58 90 -58q38 0 72.5 21.5t54.5 55.5v375h61v-497z" />
    <glyph glyph-name="v" unicode="v" horiz-adv-x="432" 
d="M239 -3h-46l-190 500h68q117 -319 147 -413q21 72 147 413h64z" />
    <glyph glyph-name="w" unicode="w" horiz-adv-x="667" 
d="M203 -3h-45l-146 500h67q86 -306 108 -397q22 78 124 397h47q105 -322 125 -397q19 79 106 397h67l-146 -500h-46q-124 377 -131 402q-19 -72 -130 -402z" />
    <glyph glyph-name="x" unicode="x" horiz-adv-x="431" 
d="M76 0h-68l166 257l-152 240h71l124 -199q40 67 125 199h69l-157 -235l170 -262h-72l-139 216z" />
    <glyph glyph-name="y" unicode="y" horiz-adv-x="432" 
d="M173 -237h-65l88 247l-193 487h69q140 -362 154 -407q14 47 137 407h66z" />
    <glyph glyph-name="z" unicode="z" horiz-adv-x="410" 
d="M394 0h-386l278 443q-38 -1 -246 -1v55h348l-276 -443q12 0 105.5 0.5t176.5 0.5v-55z" />
    <glyph glyph-name="braceleft" unicode="{" horiz-adv-x="282" 
d="M274 -158h-28q-78 0 -107 33q-30 31 -30 115v133q0 88 -24 123q-17 26 -64 31v42q54 8 71 41t17 112v136q0 71 27 108q28 39 114 39h24v-42h-31q-40 0 -60 -30q-17 -26 -17 -78v-133q0 -102 -26 -139q-13 -18 -54 -35q32 -6 49 -26q31 -39 31 -147v-134q0 -56 18 -82
q20 -26 62 -26h28v-41z" />
    <glyph glyph-name="bar" unicode="|" horiz-adv-x="193" 
d="M126 -155h-58v902h58v-902z" />
    <glyph glyph-name="braceright" unicode="}" horiz-adv-x="282" 
d="M15 755h27q77 0 108 -34q30 -31 30 -115v-133q0 -90 23 -123q19 -26 65 -31v-42q-55 -8 -72 -41q-16 -31 -16 -112v-136q0 -68 -28 -108q-28 -38 -114 -38h-23v41h31q38 0 60 30q16 25 16 78v133q0 101 27 139q12 20 53 35q-32 6 -49 26q-31 39 -31 147v134q0 58 -18 82
q-19 26 -62 26h-27v42z" />
    <glyph glyph-name="asciitilde" unicode="~" horiz-adv-x="684" 
d="M122 231l-35 26q40 59 75.5 83.5t75.5 24.5q38 0 117 -49q61 -37 98 -37q31 0 55 19.5t53 67.5l36 -23q-34 -59 -67 -86.5t-80 -27.5q-46 0 -115 41q-69 42 -102 42q-57 0 -111 -81z" />
    <glyph glyph-name="exclamdown" unicode="&#xa1;" horiz-adv-x="236" 
d="M76 284h53q9 -327 9 -491h-71q0 167 9 491zM155 455q0 -23 -14.5 -37.5t-37.5 -14.5q-22 0 -36 14.5t-14 35.5q0 23 14.5 38t37.5 15q22 0 36 -14.5t14 -36.5z" />
    <glyph glyph-name="cent" unicode="&#xa2;" horiz-adv-x="442" 
d="M278 -86h-43v82q-82 12 -126.5 77.5t-44.5 171.5q0 103 44 170t127 81v88h43v-84q76 -2 122 -40v-67q-56 51 -122 52v-394h8q63 0 116 47v-63q-53 -40 -124 -42v-79zM127 250q0 -162 108 -193v382q-52 -16 -80 -67.5t-28 -121.5z" />
    <glyph glyph-name="sterling" unicode="&#xa3;" horiz-adv-x="566" 
d="M391 288h-159l-36 -225h300v-63h-436v63h69l36 225h-59v54h68l22 133q14 92 41 140q47 86 154 86q68 0 107 -30v-68q-41 35 -106 35q-30 0 -56.5 -15.5t-39.5 -41.5q-24 -43 -36 -119l-20 -120h151v-54z" />
    <glyph glyph-name="currency" unicode="&#xa4;" horiz-adv-x="520" 
d="M441 111l-62 64q-53 -42 -120 -42q-66 0 -119 42l-61 -64l-30 31l64 65q-44 56 -44 124q0 66 43 124l-63 66l31 31l62 -66q48 44 117 44q72 0 118 -43l62 65l29 -30l-61 -66q41 -52 41 -124q0 -73 -41 -124l63 -68zM404 331q0 67 -41.5 111t-103.5 44q-61 0 -103.5 -43.5
t-42.5 -109.5q0 -68 42.5 -112t103.5 -44q62 0 103.5 44t41.5 110z" />
    <glyph glyph-name="yen" unicode="&#xa5;" horiz-adv-x="560" 
d="M482 354h-137l-35 -60v-33h172v-44h-172v-217h-67v217h-163v44h163v33l-34 60h-129v44h104l-165 291h78l182 -328q58 110 190 328h73l-171 -291h111v-44z" />
    <glyph glyph-name="brokenbar" unicode="&#xa6;" horiz-adv-x="183" 
d="M126 400h-58v306h58v-306zM126 -39h-58v306h58v-306z" />
    <glyph glyph-name="section" unicode="&#xa7;" horiz-adv-x="329" 
d="M38 243v67q55 -50 116 -50q28 0 46 18t18 43q0 35 -44 64q-66 45 -99 70q-45 36 -45 93q0 35 19 60t50 37q-45 43 -45 97q0 44 28.5 78t88.5 34q65 0 102 -29v-64q-45 41 -98 41q-28 0 -43.5 -17t-15.5 -40q0 -21 11 -36.5t39 -35.5q64 -44 94 -70q41 -36 41 -87
q0 -34 -20.5 -60.5t-47.5 -36.5q47 -41 47 -94q0 -51 -33.5 -85.5t-92.5 -34.5q-66 0 -116 38zM199 445q18 6 32 23t14 38q0 35 -44 65l-38.5 28t-29.5 21q-19 -6 -33.5 -23t-14.5 -42q0 -32 40 -60q53 -37 74 -50z" />
    <glyph glyph-name="dieresis" unicode="&#xa8;" horiz-adv-x="161" 
d="M52 658q0 -19 -11 -30.5t-31 -11.5q-18 0 -29 12t-11 30t11.5 30t29.5 12q19 0 30 -12t11 -30zM192 658q0 -19 -11 -30.5t-31 -11.5q-18 0 -29 12t-11 30t11.5 30t29.5 12q19 0 30 -12t11 -30z" />
    <glyph glyph-name="copyright" unicode="&#xa9;" horiz-adv-x="816" 
d="M773 352q0 -156 -104 -261t-260 -105t-260.5 105t-104.5 261t104.5 261.5t259.5 105.5q159 0 262 -104.5t103 -262.5zM745 352q0 146 -95.5 244.5t-241.5 98.5q-144 0 -239.5 -99t-95.5 -244q0 -146 95 -243.5t241 -97.5t241 97t95 244zM541 151q-47 -37 -124 -37
q-89 0 -143 64t-54 173q0 107 55.5 172.5t145.5 65.5q79 0 119 -35v-62q-42 42 -113 42q-68 0 -108.5 -51t-40.5 -129q0 -93 43 -140t109 -47q60 0 111 41v-57z" />
    <glyph glyph-name="ordfeminine" unicode="&#xaa;" horiz-adv-x="285" 
d="M238 282h-41v31q-35 -37 -86 -37q-39 0 -61 23.5t-22 59.5q0 43 33 65q35 23 135 32v11q0 39 -11 54q-15 23 -51 23q-56 0 -93 -36v39q36 36 97 36q67 0 89 -46q11 -23 11 -77v-178zM196 342v87q-78 -7 -109 -27q-20 -13 -20 -38q0 -22 13 -38.5t42 -16.5q43 0 74 33z
" />
    <glyph glyph-name="guillemotleft" unicode="&#xab;" horiz-adv-x="368" 
d="M196 74h-62l-114 184l113 184h63l-113 -184zM352 74h-62l-115 184l114 184h62l-111 -184z" />
    <glyph glyph-name="logicalnot" unicode="&#xac;" horiz-adv-x="684" 
d="M588 34h-49v236h-455v50h504v-286z" />
    <glyph glyph-name="uni00AD" unicode="&#xad;" horiz-adv-x="313" 
d="M271 231h-229v59h229v-59z" />
    <glyph glyph-name="registered" unicode="&#xae;" horiz-adv-x="816" 
d="M773 352q0 -156 -104 -261t-260 -105t-260.5 105t-104.5 261t104.5 261.5t259.5 105.5q159 0 262 -104.5t103 -262.5zM745 352q0 146 -95.5 244.5t-241.5 98.5q-144 0 -239.5 -99t-95.5 -244q0 -146 95 -243.5t241 -97.5t241 97t95 244zM338 127h-53v453h81q65 0 90 -6
q86 -18 86 -115q0 -89 -82 -119q25 -12 46.5 -49.5t79.5 -163.5h-60q-47 106 -67 141.5t-37 45.5q-14 8 -39 8h-45v-195zM338 369h59q26 0 43 8q46 20 46 78q0 69 -62 75q-34 2 -57 2h-29v-163z" />
    <glyph glyph-name="macron" unicode="&#xaf;" horiz-adv-x="156" 
d="M191 607h-226v56h226v-56z" />
    <glyph glyph-name="degree" unicode="&#xb0;" horiz-adv-x="309" 
d="M285 577q0 -60 -39 -98.5t-93 -38.5q-56 0 -93.5 39t-37.5 94q0 61 39 99.5t94 38.5q59 0 94.5 -38t35.5 -96zM250 577q0 40 -25 70.5t-72 30.5q-44 0 -70 -30t-26 -73t27.5 -72.5t69.5 -29.5t69 29.5t27 74.5z" />
    <glyph glyph-name="plusminus" unicode="&#xb1;" horiz-adv-x="684" 
d="M365 143h-47v225h-220v50h220v223h47v-223h221v-50h-221v-225zM586 0h-488v50h488v-50z" />
    <glyph glyph-name="twosuperior" unicode="&#xb2;" 
d="M289 420h-267q108 126 150 184q41 58 41 103q0 78 -74 78q-50 0 -100 -42v48q50 43 111 43q56 0 85.5 -30.5t29.5 -84.5q0 -67 -48 -132q-31 -44 -101 -121q34 1 173 1v-47z" />
    <glyph glyph-name="threesuperior" unicode="&#xb3;" 
d="M36 438v50q40 -28 100 -28q44 0 64.5 22t20.5 57q0 25 -15 43.5t-45 23.5q-20 4 -53 4h-11v42h12q38 0 51 6q46 18 46 62q0 67 -71 67q-50 0 -92 -32v46q42 33 102 33q54 0 83.5 -27.5t29.5 -77.5q0 -31 -19 -57.5t-59 -36.5q45 -7 68.5 -33.5t23.5 -66.5
q0 -55 -36 -88.5t-102 -33.5q-63 0 -98 25z" />
    <glyph glyph-name="acute" unicode="&#xb4;" horiz-adv-x="161" 
d="M47 580h-57l104 167h79z" />
    <glyph glyph-name="mu" unicode="&#xb5;" horiz-adv-x="510" 
d="M140 -237h-60v734h60v-276q0 -89 11 -116q21 -59 94 -59q37 0 70 21.5t54 55.5v374h61v-497h-61v65q-18 -31 -53 -53t-76 -22q-74 0 -100 60v-287z" />
    <glyph glyph-name="paragraph" unicode="&#xb6;" horiz-adv-x="468" 
d="M268 -127h-34v371q-89 0 -143 63.5t-54 159.5q0 112 60 175.5t177 63.5h135v-833h-35v800h-106v-800z" />
    <glyph glyph-name="periodcentered" unicode="&#xb7;" horiz-adv-x="181" 
d="M149 259q0 -23 -14.5 -37.5t-37.5 -14.5q-22 0 -36 14.5t-14 35.5q0 23 14.5 38t37.5 15q22 0 36 -14.5t14 -36.5z" />
    <glyph glyph-name="cedilla" unicode="&#xb8;" horiz-adv-x="156" 
d="M0 -237v44q24 -19 59 -19q28 0 42 16t14 40q0 52 -59 52q-19 0 -36 -6l30 116h40l-19 -71q5 1 15 1q37 0 58.5 -25t21.5 -65q0 -49 -27 -74.5t-75 -25.5q-42 0 -64 17z" />
    <glyph glyph-name="onesuperior" unicode="&#xb9;" 
d="M197 420h-52v344l-75 -40v51l127 62v-417z" />
    <glyph glyph-name="ordmasculine" unicode="&#xba;" horiz-adv-x="313" 
d="M288 431q0 -72 -36 -114t-96 -42t-94.5 41.5t-34.5 111.5q0 68 35.5 111.5t94.5 43.5q61 0 96 -42t35 -110zM244 429q0 115 -87 115q-40 0 -64 -30.5t-24 -84.5q0 -55 23 -85t64 -30q43 0 65.5 30t22.5 85z" />
    <glyph glyph-name="guillemotright" unicode="&#xbb;" horiz-adv-x="368" 
d="M172 442h61l115 -184l-114 -184h-62l112 184zM16 442h62l115 -184l-114 -184h-63l112 184z" />
    <glyph glyph-name="onequarter" unicode="&#xbc;" horiz-adv-x="719" 
d="M220 -12h-42l314 713h42zM197 282h-52v344l-75 -40v51l127 62v-417zM620 0h-51v116h-173v34l180 257h44v-250h54v-41h-54v-116zM569 157q0 154 1 182l-124 -182h123z" />
    <glyph glyph-name="onehalf" unicode="&#xbd;" horiz-adv-x="719" 
d="M203 -12h-42l314 713h42zM186 282h-52v344l-75 -40v51l127 62v-417zM687 0h-267q108 126 150 184q41 58 41 103q0 78 -74 78q-50 0 -100 -42v48q50 43 111 43q56 0 85.5 -30.5t29.5 -84.5q0 -67 -48 -132q-31 -44 -101 -121q34 1 173 1v-47z" />
    <glyph glyph-name="threequarters" unicode="&#xbe;" horiz-adv-x="719" 
d="M244 -12h-42l314 713h42zM52 300v50q40 -28 100 -28q44 0 64.5 22t20.5 57q0 25 -15 43.5t-45 23.5q-20 4 -53 4h-11v42h12q38 0 51 6q46 18 46 62q0 67 -71 67q-50 0 -92 -32v46q42 33 102 33q54 0 83.5 -27.5t29.5 -77.5q0 -31 -19 -57.5t-59 -36.5q45 -7 68.5 -33.5
t23.5 -66.5q0 -55 -36 -88.5t-102 -33.5q-63 0 -98 25zM636 0h-51v116h-173v34l180 257h44v-250h54v-41h-54v-116zM585 157q0 154 1 182l-124 -182h123z" />
    <glyph glyph-name="questiondown" unicode="&#xbf;" horiz-adv-x="358" 
d="M182 284h53q0 -59 -8.5 -94t-38.5 -65q-52 -52 -72.5 -90t-20.5 -78q0 -45 23.5 -79t76.5 -34q74 0 127 57v-69q-53 -52 -143 -52q-69 0 -110 42.5t-41 120.5q0 52 25 99t83 102q27 26 35.5 56.5t10.5 83.5zM260 455q0 -23 -15 -37.5t-37 -14.5t-36 14.5t-14 35.5
q0 23 14.5 38t37.5 15q22 0 36 -14.5t14 -36.5z" />
    <glyph glyph-name="Agrave" unicode="&#xc0;" horiz-adv-x="567" 
d="M75 0h-71l251 709h57l250 -709h-72l-82 228h-253zM176 290h214q-89 252 -107 313zM347 760h-65l-145 136h89z" />
    <glyph glyph-name="Aacute" unicode="&#xc1;" horiz-adv-x="567" 
d="M75 0h-71l251 709h57l250 -709h-72l-82 228h-253zM176 290h214q-89 252 -107 313zM281 760h-67l121 136h92z" />
    <glyph glyph-name="Acircumflex" unicode="&#xc2;" horiz-adv-x="567" 
d="M75 0h-71l251 709h57l250 -709h-72l-82 228h-253zM176 290h214q-89 252 -107 313zM200 760h-59l116 136h48l117 -136h-60l-83 78z" />
    <glyph glyph-name="Atilde" unicode="&#xc3;" horiz-adv-x="567" 
d="M73 0h-71l251 709h57l250 -709h-72l-82 228h-253zM174 290h214q-89 252 -107 313zM184 765h-47q7 54 31 85t56 31q27 0 64 -29q35 -28 54 -28q30 0 37 58h44q-3 -56 -25.5 -85t-53.5 -29q-30 0 -74 33q-29 23 -46 23q-30 0 -40 -59z" />
    <glyph glyph-name="Adieresis" unicode="&#xc4;" horiz-adv-x="567" 
d="M75 0h-71l251 709h57l250 -709h-72l-82 228h-253zM176 290h214q-89 252 -107 313zM247 821q0 -19 -11 -30.5t-31 -11.5q-18 0 -29 12t-11 30t11.5 30t29.5 12q19 0 30 -12t11 -30zM397 821q0 -19 -11 -30.5t-31 -11.5q-18 0 -29 12t-11 30t11.5 30t29.5 12q19 0 30 -12
t11 -30z" />
    <glyph glyph-name="Aring" unicode="&#xc5;" horiz-adv-x="567" 
d="M75 0h-71l251 709h57l250 -709h-72l-82 228h-253zM176 290h214q-89 252 -107 313zM369 837q0 -39 -24.5 -64t-63.5 -25q-38 0 -61.5 24t-23.5 62q0 39 25 64t62 25q39 0 62.5 -23.5t23.5 -62.5zM337 836q0 28 -15 43.5t-41 15.5q-24 0 -39 -16.5t-15 -43.5
q0 -24 14.5 -41.5t41.5 -17.5q25 0 39.5 17t14.5 43z" />
    <glyph glyph-name="AE" unicode="&#xc6;" horiz-adv-x="881" 
d="M83 0h-82l458 706h373v-66h-276v-241h260v-65h-260v-267h291v-67h-358v234h-256zM270 296h219v344z" />
    <glyph glyph-name="Ccedilla" unicode="&#xc7;" horiz-adv-x="591" 
d="M254 -245v45q27 -20 60 -20q30 0 44 16.5t14 42.5q0 24 -15 39t-45 15q-20 0 -37 -6l27 105q-116 17 -188 112.5t-72 243.5q0 163 85.5 267t224.5 104q132 0 198 -58v-81q-66 76 -189 76q-113 0 -181 -83t-68 -224t71.5 -219t179.5 -78q106 0 185 70v-73
q-81 -61 -200 -61h-6l-14 -56q4 1 15 1q38 0 60 -26t22 -67q0 -50 -28 -76t-77 -26q-40 0 -66 17z" />
    <glyph glyph-name="Egrave" unicode="&#xc8;" horiz-adv-x="484" 
d="M450 0h-362v706h347v-66h-280v-241h264v-65h-264v-268h295v-66zM329 760h-65l-145 136h89z" />
    <glyph glyph-name="Eacute" unicode="&#xc9;" horiz-adv-x="484" 
d="M450 0h-362v706h347v-66h-280v-241h264v-65h-264v-268h295v-66zM267 750h-67l121 136h92z" />
    <glyph glyph-name="Ecircumflex" unicode="&#xca;" horiz-adv-x="484" 
d="M450 0h-362v706h347v-66h-280v-241h264v-65h-264v-268h295v-66zM175 760h-59l116 136h48l117 -136h-60l-83 78z" />
    <glyph glyph-name="Edieresis" unicode="&#xcb;" horiz-adv-x="484" 
d="M450 0h-362v706h347v-66h-280v-241h264v-65h-264v-268h295v-66zM229 821q0 -19 -11 -30.5t-31 -11.5q-18 0 -29 12t-11 30t11.5 30t29.5 12q19 0 30 -12t11 -30zM379 821q0 -19 -11 -30.5t-31 -11.5q-18 0 -29 12t-11 30t11.5 30t29.5 12q19 0 30 -12t11 -30z" />
    <glyph glyph-name="Igrave" unicode="&#xcc;" horiz-adv-x="243" 
d="M155 0h-67v706h67v-706zM182 760h-65l-145 136h89z" />
    <glyph glyph-name="Iacute" unicode="&#xcd;" horiz-adv-x="243" 
d="M155 0h-67v706h67v-706zM119 750h-67l121 136h92z" />
    <glyph glyph-name="Icircumflex" unicode="&#xce;" horiz-adv-x="243" 
d="M155 0h-67v706h67v-706zM40 760h-59l116 136h48l117 -136h-60l-83 78z" />
    <glyph glyph-name="Idieresis" unicode="&#xcf;" horiz-adv-x="243" 
d="M155 0h-67v706h67v-706zM88 821q0 -19 -11 -30.5t-31 -11.5q-18 0 -29 12t-11 30t11.5 30t29.5 12q19 0 30 -12t11 -30zM238 821q0 -19 -11 -30.5t-31 -11.5q-18 0 -29 12t-11 30t11.5 30t29.5 12q19 0 30 -12t11 -30z" />
    <glyph glyph-name="Eth" unicode="&#xd0;" horiz-adv-x="644" 
d="M88 0v341h-78v49h78v316h151q134 0 202 -32q161 -75 161 -316q0 -249 -181 -327q-73 -31 -204 -31h-129zM155 63h77q113 0 171 31q128 66 128 263q0 185 -116 254q-54 32 -165 32h-95v-253h177v-49h-177v-278z" />
    <glyph glyph-name="Ntilde" unicode="&#xd1;" horiz-adv-x="664" 
d="M153 0h-65v706h60q330 -508 366 -571q-3 84 -3 571h65v-706h-55q-343 538 -369 581q1 -72 1 -581zM234 765h-47q7 54 31 85t56 31q27 0 64 -29q35 -28 54 -28q30 0 37 58h44q-3 -56 -25.5 -85t-53.5 -29q-30 0 -74 33q-29 23 -46 23q-30 0 -40 -59z" />
    <glyph glyph-name="Ograve" unicode="&#xd2;" horiz-adv-x="684" 
d="M642 354q0 -166 -83 -266t-220 -100q-132 0 -214.5 100.5t-82.5 264.5t85 265t220 101q138 0 216.5 -102t78.5 -263zM571 348q0 142 -60 224.5t-165 82.5q-106 0 -170 -81t-64 -220t63 -220.5t167 -81.5q106 0 167.5 79.5t61.5 216.5zM422 760h-65l-145 136h89z" />
    <glyph glyph-name="Oacute" unicode="&#xd3;" horiz-adv-x="684" 
d="M642 354q0 -166 -83 -266t-220 -100q-132 0 -214.5 100.5t-82.5 264.5t85 265t220 101q138 0 216.5 -102t78.5 -263zM571 348q0 142 -60 224.5t-165 82.5q-106 0 -170 -81t-64 -220t63 -220.5t167 -81.5q106 0 167.5 79.5t61.5 216.5zM339 754h-67l121 136h92z" />
    <glyph glyph-name="Ocircumflex" unicode="&#xd4;" horiz-adv-x="684" 
d="M642 354q0 -166 -83 -266t-220 -100q-132 0 -214.5 100.5t-82.5 264.5t85 265t220 101q138 0 216.5 -102t78.5 -263zM571 348q0 142 -60 224.5t-165 82.5q-106 0 -170 -81t-64 -220t63 -220.5t167 -81.5q106 0 167.5 79.5t61.5 216.5zM268 760h-59l116 136h48l117 -136
h-60l-83 78z" />
    <glyph glyph-name="Otilde" unicode="&#xd5;" horiz-adv-x="684" 
d="M642 354q0 -166 -83 -266t-220 -100q-132 0 -214.5 100.5t-82.5 264.5t85 265t220 101q138 0 216.5 -102t78.5 -263zM571 348q0 142 -60 224.5t-165 82.5q-106 0 -170 -81t-64 -220t63 -220.5t167 -81.5q106 0 167.5 79.5t61.5 216.5zM252 765h-47q7 54 31 85t56 31
q27 0 64 -29q35 -28 54 -28q30 0 37 58h44q-3 -56 -25.5 -85t-53.5 -29q-30 0 -74 33q-29 23 -46 23q-30 0 -40 -59z" />
    <glyph glyph-name="Odieresis" unicode="&#xd6;" horiz-adv-x="684" 
d="M642 354q0 -166 -83 -266t-220 -100q-132 0 -214.5 100.5t-82.5 264.5t85 265t220 101q138 0 216.5 -102t78.5 -263zM571 348q0 142 -60 224.5t-165 82.5q-106 0 -170 -81t-64 -220t63 -220.5t167 -81.5q106 0 167.5 79.5t61.5 216.5zM314 821q0 -19 -11 -30.5t-31 -11.5
q-18 0 -29 12t-11 30t11.5 30t29.5 12q19 0 30 -12t11 -30zM464 821q0 -19 -11 -30.5t-31 -11.5q-18 0 -29 12t-11 30t11.5 30t29.5 12q19 0 30 -12t11 -30z" />
    <glyph glyph-name="multiply" unicode="&#xd7;" horiz-adv-x="684" 
d="M170 87l-32 35l170 178l-170 177l34 35l170 -176l171 176l32 -35l-171 -177l172 -177l-32 -36l-172 177z" />
    <glyph glyph-name="Oslash" unicode="&#xd8;" horiz-adv-x="684" 
d="M115 -40l-35 21l58 92q-96 102 -96 280q0 164 85 265t220 101q92 0 164 -51l54 86l34 -22l-57 -91q100 -102 100 -287q0 -166 -83 -266t-220 -100q-99 0 -171 57zM571 348q0 149 -67 233l-300 -479q58 -50 138 -50q106 0 167.5 79.5t61.5 216.5zM112 354q0 -139 63 -221
l300 477q-54 45 -129 45q-106 0 -170 -81t-64 -220z" />
    <glyph glyph-name="Ugrave" unicode="&#xd9;" horiz-adv-x="657" 
d="M82 706h66v-412q0 -84 14 -134q15 -54 59.5 -81t105.5 -27q146 0 172 125q11 51 11 124v405h65v-408q0 -93 -14 -153q-19 -77 -80.5 -117t-155.5 -40q-86 0 -147 37.5t-81 115.5q-15 59 -15 151v414zM403 760h-65l-145 136h89z" />
    <glyph glyph-name="Uacute" unicode="&#xda;" horiz-adv-x="657" 
d="M82 706h66v-412q0 -84 14 -134q15 -54 59.5 -81t105.5 -27q146 0 172 125q11 51 11 124v405h65v-408q0 -93 -14 -153q-19 -77 -80.5 -117t-155.5 -40q-86 0 -147 37.5t-81 115.5q-15 59 -15 151v414zM325 750h-67l121 136h92z" />
    <glyph glyph-name="Ucircumflex" unicode="&#xdb;" horiz-adv-x="657" 
d="M82 706h66v-412q0 -84 14 -134q15 -54 59.5 -81t105.5 -27q146 0 172 125q11 51 11 124v405h65v-408q0 -93 -14 -153q-19 -77 -80.5 -117t-155.5 -40q-86 0 -147 37.5t-81 115.5q-15 59 -15 151v414zM247 760h-59l116 136h48l117 -136h-60l-83 78z" />
    <glyph glyph-name="Udieresis" unicode="&#xdc;" horiz-adv-x="657" 
d="M82 706h66v-412q0 -84 14 -134q15 -54 59.5 -81t105.5 -27q146 0 172 125q11 51 11 124v405h65v-408q0 -93 -14 -153q-19 -77 -80.5 -117t-155.5 -40q-86 0 -147 37.5t-81 115.5q-15 59 -15 151v414zM297 821q0 -19 -11 -30.5t-31 -11.5q-18 0 -29 12t-11 30t11.5 30
t29.5 12q19 0 30 -12t11 -30zM447 821q0 -19 -11 -30.5t-31 -11.5q-18 0 -29 12t-11 30t11.5 30t29.5 12q19 0 30 -12t11 -30z" />
    <glyph glyph-name="Yacute" unicode="&#xdd;" horiz-adv-x="548" 
d="M304 0h-68v297l-232 409h79l189 -340l199 340h73l-240 -409v-297zM273 759h-67l121 136h92z" />
    <glyph glyph-name="Thorn" unicode="&#xde;" horiz-adv-x="522" 
d="M155 0h-67v706h67v-140h50q91 0 131 -9q70 -14 107.5 -62.5t37.5 -129.5q0 -135 -102 -182q-55 -25 -165 -25h-59v-158zM155 218h64q76 0 121 17q70 27 70 125q0 56 -27 92t-76 44q-36 7 -100 7h-52v-285z" />
    <glyph glyph-name="germandbls" unicode="&#xdf;" horiz-adv-x="502" 
d="M138 0h-61v488q0 131 26 180q46 89 152 89q82 0 123.5 -53.5t41.5 -130.5q0 -152 -115 -190q69 -5 114.5 -54.5t45.5 -137.5q0 -92 -45.5 -147.5t-123.5 -55.5q-65 0 -105 26v61q35 -31 93 -31q50 0 83.5 38.5t33.5 111.5q0 155 -158 155h-20v56h18q60 0 89 45.5
t29 113.5q0 59 -26.5 98t-80.5 39q-68 0 -96 -60q-18 -36 -18 -143v-498z" />
    <glyph glyph-name="agrave" unicode="&#xe0;" horiz-adv-x="448" 
d="M375 0h-58v56q-55 -66 -138 -66q-63 0 -100.5 40.5t-37.5 101.5q0 73 55 112q58 40 219 54v16q0 69 -18 97q-25 40 -83 40q-89 0 -149 -61v63q61 56 155 56q100 0 136 -74q19 -41 19 -130v-305zM315 98v153q-131 -11 -179 -44q-34 -23 -34 -71q0 -38 22 -66.5t71 -28.5
q70 0 120 57zM274 580h-59l-126 167h79z" />
    <glyph glyph-name="aacute" unicode="&#xe1;" horiz-adv-x="448" 
d="M375 0h-58v56q-55 -66 -138 -66q-63 0 -100.5 40.5t-37.5 101.5q0 73 55 112q58 40 219 54v16q0 69 -18 97q-25 40 -83 40q-89 0 -149 -61v63q61 56 155 56q100 0 136 -74q19 -41 19 -130v-305zM315 98v153q-131 -11 -179 -44q-34 -23 -34 -71q0 -38 22 -66.5t71 -28.5
q70 0 120 57zM220 580h-57l104 167h79z" />
    <glyph glyph-name="acircumflex" unicode="&#xe2;" horiz-adv-x="448" 
d="M375 0h-58v56q-55 -66 -138 -66q-63 0 -100.5 40.5t-37.5 101.5q0 73 55 112q58 40 219 54v16q0 69 -18 97q-25 40 -83 40q-89 0 -149 -61v63q61 56 155 56q100 0 136 -74q19 -41 19 -130v-305zM315 98v153q-131 -11 -179 -44q-34 -23 -34 -71q0 -38 22 -66.5t71 -28.5
q70 0 120 57zM145 575h-56l109 163h45l108 -163h-56l-76 102z" />
    <glyph glyph-name="atilde" unicode="&#xe3;" horiz-adv-x="448" 
d="M375 0h-58v56q-55 -66 -138 -66q-63 0 -100.5 40.5t-37.5 101.5q0 73 55 112q58 40 219 54v16q0 69 -18 97q-25 40 -83 40q-89 0 -149 -61v63q61 56 155 56q100 0 136 -74q19 -41 19 -130v-305zM315 98v153q-131 -11 -179 -44q-34 -23 -34 -71q0 -38 22 -66.5t71 -28.5
q70 0 120 57zM124 598h-45q5 54 28.5 85.5t53.5 31.5q26 0 63 -29q36 -30 52 -30q29 0 36 60h43q-4 -57 -25.5 -86t-51.5 -29t-70 33q-31 24 -46 24q-30 0 -38 -60z" />
    <glyph glyph-name="adieresis" unicode="&#xe4;" horiz-adv-x="448" 
d="M375 0h-58v56q-55 -66 -138 -66q-63 0 -100.5 40.5t-37.5 101.5q0 73 55 112q58 40 219 54v16q0 69 -18 97q-25 40 -83 40q-89 0 -149 -61v63q61 56 155 56q100 0 136 -74q19 -41 19 -130v-305zM315 98v153q-131 -11 -179 -44q-34 -23 -34 -71q0 -38 22 -66.5t71 -28.5
q70 0 120 57zM193 658q0 -19 -11 -30.5t-31 -11.5q-18 0 -29 12t-11 30t11.5 30t29.5 12q19 0 30 -12t11 -30zM333 658q0 -19 -11 -30.5t-31 -11.5q-18 0 -29 12t-11 30t11.5 30t29.5 12q19 0 30 -12t11 -30z" />
    <glyph glyph-name="aring" unicode="&#xe5;" horiz-adv-x="448" 
d="M375 0h-58v56q-55 -66 -138 -66q-63 0 -100.5 40.5t-37.5 101.5q0 73 55 112q58 40 219 54v16q0 69 -18 97q-25 40 -83 40q-89 0 -149 -61v63q61 56 155 56q100 0 136 -74q19 -41 19 -130v-305zM315 98v153q-131 -11 -179 -44q-34 -23 -34 -71q0 -38 22 -66.5t71 -28.5
q70 0 120 57zM317 670q0 -38 -26.5 -64.5t-65.5 -26.5q-38 0 -63 26t-25 65q0 41 25.5 66t65.5 25t64.5 -25t24.5 -66zM285 671q0 28 -16 45t-44 17q-26 0 -42 -18t-16 -45q0 -26 16 -44.5t45 -18.5q26 0 41.5 18.5t15.5 45.5z" />
    <glyph glyph-name="ae" unicode="&#xe6;" horiz-adv-x="726" 
d="M688 38q-72 -50 -156 -50q-115 0 -170 83q-74 -82 -176 -82q-69 0 -107 41.5t-38 103.5q0 72 56 110q65 43 218 50v24q0 66 -20 97q-25 36 -81 36q-88 0 -150 -61v63q65 56 154 56q117 0 135 -102q21 49 62.5 75.5t95.5 26.5q92 0 137.5 -63.5t45.5 -172.5v-29h-320
q0 -62 19 -108q39 -91 152 -91q80 0 143 53v-60zM341 108q-23 55 -25 139q-129 -8 -179 -40q-35 -22 -35 -69q0 -38 22.5 -67.5t72.5 -29.5q75 0 144 67zM374 294h261q-2 32 -7 56.5t-17.5 50t-37 39.5t-60.5 14q-65 0 -100.5 -44.5t-38.5 -115.5z" />
    <glyph glyph-name="ccedilla" unicode="&#xe7;" horiz-adv-x="424" 
d="M162 -237v44q24 -19 59 -19q28 0 42 16t14 40q0 52 -59 52q-19 0 -36 -6l26 103q-80 15 -124.5 82t-44.5 172q0 115 62 188.5t160 73.5q81 0 129 -40v-65q-55 49 -125 49q-75 0 -118 -57.5t-43 -143.5q0 -101 45.5 -153t117.5 -52q69 0 124 47v-63q-55 -43 -136 -43h-8
l-14 -53q5 1 15 1q37 0 58.5 -25t21.5 -65q0 -49 -27 -74.5t-75 -25.5q-42 0 -64 17z" />
    <glyph glyph-name="egrave" unicode="&#xe8;" horiz-adv-x="456" 
d="M418 38q-72 -50 -157 -50q-104 0 -163 69t-59 196q0 118 55 187t147 69q94 0 138.5 -65t44.5 -176v-27h-321q1 -103 46.5 -149.5t123.5 -46.5q81 0 145 53v-60zM104 290h260q-2 164 -123 164q-63 0 -99 -46.5t-38 -117.5zM299 580h-59l-126 167h79z" />
    <glyph glyph-name="eacute" unicode="&#xe9;" horiz-adv-x="456" 
d="M418 38q-72 -50 -157 -50q-104 0 -163 69t-59 196q0 118 55 187t147 69q94 0 138.5 -65t44.5 -176v-27h-321q1 -103 46.5 -149.5t123.5 -46.5q81 0 145 53v-60zM104 290h260q-2 164 -123 164q-63 0 -99 -46.5t-38 -117.5zM237 580h-57l104 167h79z" />
    <glyph glyph-name="ecircumflex" unicode="&#xea;" horiz-adv-x="456" 
d="M418 38q-72 -50 -157 -50q-104 0 -163 69t-59 196q0 118 55 187t147 69q94 0 138.5 -65t44.5 -176v-27h-321q1 -103 46.5 -149.5t123.5 -46.5q81 0 145 53v-60zM104 290h260q-2 164 -123 164q-63 0 -99 -46.5t-38 -117.5zM164 575h-56l109 163h45l108 -163h-56l-76 102z
" />
    <glyph glyph-name="edieresis" unicode="&#xeb;" horiz-adv-x="456" 
d="M418 38q-72 -50 -157 -50q-104 0 -163 69t-59 196q0 118 55 187t147 69q94 0 138.5 -65t44.5 -176v-27h-321q1 -103 46.5 -149.5t123.5 -46.5q81 0 145 53v-60zM104 290h260q-2 164 -123 164q-63 0 -99 -46.5t-38 -117.5zM215 658q0 -19 -11 -30.5t-31 -11.5
q-18 0 -29 12t-11 30t11.5 30t29.5 12q19 0 30 -12t11 -30zM355 658q0 -19 -11 -30.5t-31 -11.5q-18 0 -29 12t-11 30t11.5 30t29.5 12q19 0 30 -12t11 -30z" />
    <glyph glyph-name="igrave" unicode="&#xec;" horiz-adv-x="215" 
d="M161 580h-59l-126 167h79zM138 0h-61v497h61v-497z" />
    <glyph glyph-name="iacute" unicode="&#xed;" horiz-adv-x="215" 
d="M105 580h-57l104 167h79zM138 0h-61v497h61v-497z" />
    <glyph glyph-name="icircumflex" unicode="&#xee;" horiz-adv-x="215" 
d="M138 0h-61v497h61v-497zM32 575h-56l109 163h45l108 -163h-56l-76 102z" />
    <glyph glyph-name="idieresis" unicode="&#xef;" horiz-adv-x="215" 
d="M138 0h-61v497h61v-497zM79 658q0 -19 -11 -30.5t-31 -11.5q-18 0 -29 12t-11 30t11.5 30t29.5 12q19 0 30 -12t11 -30zM219 658q0 -19 -11 -30.5t-31 -11.5q-18 0 -29 12t-11 30t11.5 30t29.5 12q19 0 30 -12t11 -30z" />
    <glyph glyph-name="eth" unicode="&#xf0;" horiz-adv-x="499" 
d="M433 676l-76 -51q98 -145 98 -369q0 -128 -57 -198t-152 -70q-92 0 -149.5 69t-57.5 190q0 116 56.5 184.5t143.5 68.5q97 0 138 -73q-16 96 -64 169l-85 -57l-25 39l82 55q-52 58 -116 84l19 42q80 -26 140 -97l79 53zM392 249q0 96 -38.5 149t-107.5 53q-63 0 -104 -54
t-41 -148q0 -96 39 -150t107 -54q70 0 107.5 53.5t37.5 150.5z" />
    <glyph glyph-name="ntilde" unicode="&#xf1;" horiz-adv-x="499" 
d="M137 0h-60v497h59v-64q19 32 60 54t87 22q111 0 134 -101q9 -41 9 -128v-280h-62v278q0 90 -10 119q-19 55 -89 55q-40 0 -74.5 -21.5t-53.5 -55.5v-375zM158 598h-45q5 54 28.5 85.5t53.5 31.5q26 0 63 -29q36 -30 52 -30q29 0 36 60h43q-4 -57 -25.5 -86t-51.5 -29
t-70 33q-31 24 -46 24q-30 0 -38 -60z" />
    <glyph glyph-name="ograve" unicode="&#xf2;" horiz-adv-x="493" 
d="M455 250q0 -121 -56 -191.5t-153 -70.5q-96 0 -151.5 71t-55.5 188q0 116 57 189t152 73q98 0 152.5 -71.5t54.5 -187.5zM391 250q0 97 -38 149.5t-105 52.5q-65 0 -105 -53.5t-40 -150.5q0 -96 38 -149.5t105 -53.5q70 0 107.5 53t37.5 152zM306 580h-59l-126 167h79z
" />
    <glyph glyph-name="oacute" unicode="&#xf3;" horiz-adv-x="493" 
d="M455 250q0 -121 -56 -191.5t-153 -70.5q-96 0 -151.5 71t-55.5 188q0 116 57 189t152 73q98 0 152.5 -71.5t54.5 -187.5zM391 250q0 97 -38 149.5t-105 52.5q-65 0 -105 -53.5t-40 -150.5q0 -96 38 -149.5t105 -53.5q70 0 107.5 53t37.5 152zM242 580h-57l104 167h79z
" />
    <glyph glyph-name="ocircumflex" unicode="&#xf4;" horiz-adv-x="493" 
d="M455 250q0 -121 -56 -191.5t-153 -70.5q-96 0 -151.5 71t-55.5 188q0 116 57 189t152 73q98 0 152.5 -71.5t54.5 -187.5zM391 250q0 97 -38 149.5t-105 52.5q-65 0 -105 -53.5t-40 -150.5q0 -96 38 -149.5t105 -53.5q70 0 107.5 53t37.5 152zM172 575h-56l109 163h45
l108 -163h-56l-76 102z" />
    <glyph glyph-name="otilde" unicode="&#xf5;" horiz-adv-x="493" 
d="M455 250q0 -121 -56 -191.5t-153 -70.5q-96 0 -151.5 71t-55.5 188q0 116 57 189t152 73q98 0 152.5 -71.5t54.5 -187.5zM391 250q0 97 -38 149.5t-105 52.5q-65 0 -105 -53.5t-40 -150.5q0 -96 38 -149.5t105 -53.5q70 0 107.5 53t37.5 152zM155 598h-45q5 54 28.5 85.5
t53.5 31.5q26 0 63 -29q36 -30 52 -30q29 0 36 60h43q-4 -57 -25.5 -86t-51.5 -29t-70 33q-31 24 -46 24q-30 0 -38 -60z" />
    <glyph glyph-name="odieresis" unicode="&#xf6;" horiz-adv-x="493" 
d="M455 250q0 -121 -56 -191.5t-153 -70.5q-96 0 -151.5 71t-55.5 188q0 116 57 189t152 73q98 0 152.5 -71.5t54.5 -187.5zM391 250q0 97 -38 149.5t-105 52.5q-65 0 -105 -53.5t-40 -150.5q0 -96 38 -149.5t105 -53.5q70 0 107.5 53t37.5 152zM217 658q0 -18 -11 -30
t-29 -12q-17 0 -27.5 12t-10.5 30t10.5 30t28.5 12t28.5 -12t10.5 -30zM357 658q0 -18 -10.5 -30t-28.5 -12q-17 0 -28 12t-11 30t11 30t29 12q17 0 27.5 -12t10.5 -30z" />
    <glyph glyph-name="divide" unicode="&#xf7;" horiz-adv-x="684" 
d="M386 452q0 -19 -11.5 -31.5t-29.5 -12.5q-19 0 -30 12t-11 30q0 19 11.5 31t29.5 12t29.5 -12t11.5 -29zM586 270h-488v50h488v-50zM386 138q0 -19 -11.5 -31.5t-29.5 -12.5q-19 0 -30 12t-11 30q0 19 11.5 31t29.5 12t29.5 -12t11.5 -29z" />
    <glyph glyph-name="oslash" unicode="&#xf8;" horiz-adv-x="493" 
d="M89 -43l-31 20l45 72q-64 70 -64 198q0 116 57 189t152 73q68 0 119 -38l46 74l31 -19l-51 -81q62 -71 62 -195q0 -121 -56 -191.5t-153 -70.5q-66 0 -116 36zM100 248q0 -93 36 -146l200 319q-37 32 -88 32q-66 0 -107 -54t-41 -151zM394 250q0 89 -34 142l-199 -319
q35 -29 85 -29q71 0 109.5 53t38.5 153z" />
    <glyph glyph-name="ugrave" unicode="&#xf9;" horiz-adv-x="498" 
d="M422 0h-61v63q-19 -32 -59 -53.5t-86 -21.5q-106 0 -131 91q-12 44 -12 138v280h61v-278q0 -88 10 -116q21 -58 90 -58q38 0 72.5 21.5t54.5 55.5v375h61v-497zM307 580h-59l-126 167h79z" />
    <glyph glyph-name="uacute" unicode="&#xfa;" horiz-adv-x="498" 
d="M422 0h-61v63q-19 -32 -59 -53.5t-86 -21.5q-106 0 -131 91q-12 44 -12 138v280h61v-278q0 -88 10 -116q21 -58 90 -58q38 0 72.5 21.5t54.5 55.5v375h61v-497zM247 580h-57l104 167h79z" />
    <glyph glyph-name="ucircumflex" unicode="&#xfb;" horiz-adv-x="498" 
d="M422 0h-61v63q-19 -32 -59 -53.5t-86 -21.5q-106 0 -131 91q-12 44 -12 138v280h61v-278q0 -88 10 -116q21 -58 90 -58q38 0 72.5 21.5t54.5 55.5v375h61v-497zM173 575h-56l109 163h45l108 -163h-56l-76 102z" />
    <glyph glyph-name="udieresis" unicode="&#xfc;" horiz-adv-x="498" 
d="M422 0h-61v63q-19 -32 -59 -53.5t-86 -21.5q-106 0 -131 91q-12 44 -12 138v280h61v-278q0 -88 10 -116q21 -58 90 -58q38 0 72.5 21.5t54.5 55.5v375h61v-497zM221 658q0 -19 -11 -30.5t-31 -11.5q-18 0 -29 12t-11 30t11.5 30t29.5 12q19 0 30 -12t11 -30zM361 658
q0 -19 -11 -30.5t-31 -11.5q-18 0 -29 12t-11 30t11.5 30t29.5 12q19 0 30 -12t11 -30z" />
    <glyph glyph-name="yacute" unicode="&#xfd;" horiz-adv-x="432" 
d="M173 -237h-65l88 247l-193 487h69q140 -362 154 -407q14 47 137 407h66zM226 580h-57l104 167h79z" />
    <glyph glyph-name="thorn" unicode="&#xfe;" horiz-adv-x="503" 
d="M138 -237h-61v984h60v-307q22 30 59 49.5t78 19.5q93 0 141 -68.5t48 -184.5q0 -126 -54 -196.5t-156 -70.5q-75 0 -115 33v-259zM138 83q16 -18 48 -29.5t61 -11.5q77 0 115 58.5t38 151.5q0 97 -36.5 150t-104.5 53q-37 0 -72 -23t-49 -49v-300z" />
    <glyph glyph-name="ydieresis" unicode="&#xff;" horiz-adv-x="432" 
d="M173 -237h-65l88 247l-193 487h69q140 -362 154 -407q14 47 137 407h66zM196 658q0 -19 -11 -30.5t-31 -11.5q-18 0 -29 12t-11 30t11.5 30t29.5 12q19 0 30 -12t11 -30zM336 658q0 -19 -11 -30.5t-31 -11.5q-18 0 -29 12t-11 30t11.5 30t29.5 12q19 0 30 -12t11 -30z
" />
    <glyph glyph-name="Amacron" unicode="&#x100;" horiz-adv-x="567" 
d="M73 0h-71l251 709h57l250 -709h-72l-82 228h-253zM174 290h214q-89 252 -107 313zM398 797h-235v56h235v-56z" />
    <glyph glyph-name="amacron" unicode="&#x101;" horiz-adv-x="448" 
d="M375 0h-58v56q-55 -66 -138 -66q-63 0 -100.5 40.5t-37.5 101.5q0 73 55 112q58 40 219 54v16q0 69 -18 97q-25 40 -83 40q-89 0 -149 -61v63q61 56 155 56q100 0 136 -74q19 -41 19 -130v-305zM315 98v153q-131 -11 -179 -44q-34 -23 -34 -71q0 -38 22 -66.5t71 -28.5
q70 0 120 57zM338 607h-226v56h226v-56z" />
    <glyph glyph-name="Abreve" unicode="&#x102;" horiz-adv-x="567" 
d="M73 0h-71l251 709h57l250 -709h-72l-82 228h-253zM174 290h214q-89 252 -107 313zM151 895h49q4 -81 80 -81q79 0 83 81h48q-1 -60 -34.5 -96.5t-97.5 -36.5q-62 0 -94.5 35.5t-33.5 97.5z" />
    <glyph glyph-name="abreve" unicode="&#x103;" horiz-adv-x="448" 
d="M375 0h-58v56q-55 -66 -138 -66q-63 0 -100.5 40.5t-37.5 101.5q0 73 55 112q58 40 219 54v16q0 69 -18 97q-25 40 -83 40q-89 0 -149 -61v63q61 56 155 56q100 0 136 -74q19 -41 19 -130v-305zM315 98v153q-131 -11 -179 -44q-34 -23 -34 -71q0 -38 22 -66.5t71 -28.5
q70 0 120 57zM97 707h48q6 -90 75 -90q72 0 77 90h47q0 -62 -31.5 -101.5t-93.5 -39.5q-60 0 -90.5 38.5t-31.5 102.5z" />
    <glyph glyph-name="Aogonek" unicode="&#x104;" horiz-adv-x="567" 
d="M75 0h-71l251 709h57l250 -709h-23q-95 -66 -95 -138t67 -72q32 0 60 18v-44q-28 -22 -78 -22q-45 0 -74.5 27t-29.5 82q0 92 100 151l-81 226h-253zM176 290h214q-89 252 -107 313z" />
    <glyph glyph-name="aogonek" unicode="&#x105;" horiz-adv-x="448" 
d="M375 0h-10q-88 -66 -88 -131q0 -34 17.5 -52t47.5 -18t56 18v-42q-27 -21 -75 -21q-42 0 -69.5 26t-27.5 78q0 85 91 145v53q-55 -66 -138 -66q-63 0 -100.5 40.5t-37.5 101.5q0 73 55 112q58 40 219 54v16q0 69 -18 97q-25 40 -83 40q-89 0 -149 -61v63q61 56 155 56
q100 0 136 -74q19 -41 19 -130v-305zM315 98v153q-131 -11 -179 -44q-34 -23 -34 -71q0 -38 22 -66.5t71 -28.5q70 0 120 57z" />
    <glyph glyph-name="Cacute" unicode="&#x106;" horiz-adv-x="591" 
d="M548 49q-81 -61 -200 -61q-133 0 -219.5 98.5t-86.5 261.5t85.5 267t224.5 104q132 0 198 -58v-81q-66 76 -189 76q-113 0 -181 -83t-68 -224t71.5 -219t179.5 -78q106 0 185 70v-73zM331 757h-67l121 136h92z" />
    <glyph glyph-name="cacute" unicode="&#x107;" horiz-adv-x="424" 
d="M391 31q-55 -43 -136 -43q-100 0 -158 69.5t-58 189.5q0 115 62 188.5t160 73.5q81 0 129 -40v-65q-55 49 -125 49q-75 0 -118 -57.5t-43 -143.5q0 -101 45.5 -153t117.5 -52q69 0 124 47v-63zM240 580h-57l104 167h79z" />
    <glyph glyph-name="Ccircumflex" unicode="&#x108;" horiz-adv-x="591" 
d="M548 49q-81 -61 -200 -61q-133 0 -219.5 98.5t-86.5 261.5t85.5 267t224.5 104q132 0 198 -58v-81q-66 76 -189 76q-113 0 -181 -83t-68 -224t71.5 -219t179.5 -78q106 0 185 70v-73zM266 760h-59l116 136h48l117 -136h-60l-83 78z" />
    <glyph glyph-name="ccircumflex" unicode="&#x109;" horiz-adv-x="424" 
d="M391 31q-55 -43 -136 -43q-100 0 -158 69.5t-58 189.5q0 115 62 188.5t160 73.5q81 0 129 -40v-65q-55 49 -125 49q-75 0 -118 -57.5t-43 -143.5q0 -101 45.5 -153t117.5 -52q69 0 124 47v-63zM165 575h-56l109 163h45l108 -163h-56l-76 102z" />
    <glyph glyph-name="Cdotaccent" unicode="&#x10a;" horiz-adv-x="591" 
d="M548 49q-81 -61 -200 -61q-133 0 -219.5 98.5t-86.5 261.5t85.5 267t224.5 104q132 0 198 -58v-81q-66 76 -189 76q-113 0 -181 -83t-68 -224t71.5 -219t179.5 -78q106 0 185 70v-73zM393 821q0 -19 -11 -30.5t-31 -11.5q-18 0 -29 12t-11 30t11.5 30t29.5 12
q19 0 30 -12t11 -30z" />
    <glyph glyph-name="cdotaccent" unicode="&#x10b;" horiz-adv-x="424" 
d="M391 31q-55 -43 -136 -43q-100 0 -158 69.5t-58 189.5q0 115 62 188.5t160 73.5q81 0 129 -40v-65q-55 49 -125 49q-75 0 -118 -57.5t-43 -143.5q0 -101 45.5 -153t117.5 -52q69 0 124 47v-63zM296 658q0 -19 -11 -30.5t-31 -11.5q-18 0 -29 12t-11 30t11.5 30t29.5 12
q19 0 30 -12t11 -30z" />
    <glyph glyph-name="Ccaron" unicode="&#x10c;" horiz-adv-x="591" 
d="M548 49q-81 -61 -200 -61q-133 0 -219.5 98.5t-86.5 261.5t85.5 267t224.5 104q132 0 198 -58v-81q-66 76 -189 76q-113 0 -181 -83t-68 -224t71.5 -219t179.5 -78q106 0 185 70v-73zM412 896h59l-116 -136h-48l-117 136h60l82 -78z" />
    <glyph glyph-name="ccaron" unicode="&#x10d;" horiz-adv-x="424" 
d="M391 31q-55 -43 -136 -43q-100 0 -158 69.5t-58 189.5q0 115 62 188.5t160 73.5q81 0 129 -40v-65q-55 49 -125 49q-75 0 -118 -57.5t-43 -143.5q0 -101 45.5 -153t117.5 -52q69 0 124 47v-63zM326 743h55l-108 -163h-45l-109 163h57l76 -102z" />
    <glyph glyph-name="Dcaron" unicode="&#x10e;" horiz-adv-x="644" 
d="M88 0v706h151q134 0 202 -32q161 -75 161 -316q0 -249 -181 -327q-73 -31 -204 -31h-129zM155 63h77q113 0 171 31q128 66 128 263q0 185 -116 254q-54 32 -165 32h-95v-580zM359 896h59l-116 -136h-48l-117 136h60l82 -78z" />
    <glyph glyph-name="dcaron" unicode="&#x10f;" horiz-adv-x="506" 
d="M428 0h-59v53q-53 -65 -145 -65q-87 0 -136.5 67.5t-49.5 182.5q0 122 54.5 196.5t156.5 74.5q79 0 118 -45v283h61v-747zM367 110v290q-14 25 -44 39.5t-65 14.5q-69 0 -113 -53.5t-44 -157.5q0 -106 40 -153t99 -47q39 0 74.5 19.5t52.5 47.5zM516 527h-49
q62 96 62 221h58q0 -133 -71 -221z" />
    <glyph glyph-name="Dcroat" unicode="&#x110;" horiz-adv-x="644" 
d="M88 0v341h-78v49h78v316h151q134 0 202 -32q161 -75 161 -316q0 -249 -181 -327q-73 -31 -204 -31h-129zM155 63h77q113 0 171 31q128 66 128 263q0 185 -116 254q-54 32 -165 32h-95v-253h177v-49h-177v-278z" />
    <glyph glyph-name="dcroat" unicode="&#x111;" horiz-adv-x="506" 
d="M428 0h-59v53q-53 -65 -145 -65q-87 0 -136.5 67.5t-49.5 182.5q0 122 54.5 196.5t156.5 74.5q79 0 118 -45v115h-123v48h123v120h61v-120h64v-48h-64v-579zM367 110v290q-14 25 -44 39.5t-65 14.5q-69 0 -113 -53.5t-44 -157.5q0 -106 40 -153t99 -47q39 0 74.5 19.5
t52.5 47.5z" />
    <glyph glyph-name="Emacron" unicode="&#x112;" horiz-adv-x="484" 
d="M450 0h-362v706h347v-66h-280v-241h264v-65h-264v-268h295v-66zM381 797h-235v56h235v-56z" />
    <glyph glyph-name="emacron" unicode="&#x113;" horiz-adv-x="456" 
d="M418 38q-72 -50 -157 -50q-104 0 -163 69t-59 196q0 118 55 187t147 69q94 0 138.5 -65t44.5 -176v-27h-321q1 -103 46.5 -149.5t123.5 -46.5q81 0 145 53v-60zM104 290h260q-2 164 -123 164q-63 0 -99 -46.5t-38 -117.5zM350 607h-226v56h226v-56z" />
    <glyph glyph-name="Ebreve" unicode="&#x114;" horiz-adv-x="484" 
d="M450 0h-362v706h347v-66h-280v-241h264v-65h-264v-268h295v-66zM132 895h49q4 -81 80 -81q79 0 83 81h48q-1 -60 -34.5 -96.5t-97.5 -36.5q-62 0 -94.5 35.5t-33.5 97.5z" />
    <glyph glyph-name="ebreve" unicode="&#x115;" horiz-adv-x="456" 
d="M418 38q-72 -50 -157 -50q-104 0 -163 69t-59 196q0 118 55 187t147 69q94 0 138.5 -65t44.5 -176v-27h-321q1 -103 46.5 -149.5t123.5 -46.5q81 0 145 53v-60zM104 290h260q-2 164 -123 164q-63 0 -99 -46.5t-38 -117.5zM115 707h48q6 -90 75 -90q72 0 77 90h47
q0 -62 -31.5 -101.5t-93.5 -39.5q-60 0 -90.5 38.5t-31.5 102.5z" />
    <glyph glyph-name="Edotaccent" unicode="&#x116;" horiz-adv-x="484" 
d="M450 0h-362v706h347v-66h-280v-241h264v-65h-264v-268h295v-66zM313 821q0 -19 -11 -30.5t-31 -11.5q-18 0 -29 12t-11 30t11.5 30t29.5 12q19 0 30 -12t11 -30z" />
    <glyph glyph-name="edotaccent" unicode="&#x117;" horiz-adv-x="456" 
d="M418 38q-72 -50 -157 -50q-104 0 -163 69t-59 196q0 118 55 187t147 69q94 0 138.5 -65t44.5 -176v-27h-321q1 -103 46.5 -149.5t123.5 -46.5q81 0 145 53v-60zM104 290h260q-2 164 -123 164q-63 0 -99 -46.5t-38 -117.5zM282 658q0 -19 -11 -30.5t-31 -11.5
q-18 0 -29 12t-11 30t11.5 30t29.5 12q19 0 30 -12t11 -30z" />
    <glyph glyph-name="Eogonek" unicode="&#x118;" horiz-adv-x="484" 
d="M450 0h-29q-95 -66 -95 -138t67 -72q32 0 60 18v-44q-28 -22 -78 -22q-45 0 -74.5 27t-29.5 82q0 88 95 149h-278v706h347v-66h-280v-241h264v-65h-264v-268h295v-66z" />
    <glyph glyph-name="eogonek" unicode="&#x119;" horiz-adv-x="456" 
d="M418 38q-31 -22 -64 -34q-94 -67 -94 -135q0 -34 17.5 -52t47.5 -18t56 18v-42q-27 -21 -75 -21q-42 0 -69.5 26t-27.5 78q0 74 71 131q-6 -1 -19 -1q-104 0 -163 69t-59 196q0 118 55 187t147 69q94 0 138.5 -65t44.5 -176v-27h-321q1 -103 46.5 -149.5t123.5 -46.5
q81 0 145 53v-60zM104 290h260q-2 164 -123 164q-63 0 -99 -46.5t-38 -117.5z" />
    <glyph glyph-name="Ecaron" unicode="&#x11a;" horiz-adv-x="484" 
d="M450 0h-362v706h347v-66h-280v-241h264v-65h-264v-268h295v-66zM341 896h59l-116 -136h-48l-117 136h60l82 -78z" />
    <glyph glyph-name="ecaron" unicode="&#x11b;" horiz-adv-x="456" 
d="M418 38q-72 -50 -157 -50q-104 0 -163 69t-59 196q0 118 55 187t147 69q94 0 138.5 -65t44.5 -176v-27h-321q1 -103 46.5 -149.5t123.5 -46.5q81 0 145 53v-60zM104 290h260q-2 164 -123 164q-63 0 -99 -46.5t-38 -117.5zM315 743h55l-108 -163h-45l-109 163h57l76 -102z
" />
    <glyph glyph-name="Gcircumflex" unicode="&#x11c;" horiz-adv-x="650" 
d="M579 46q-94 -58 -229 -58q-140 0 -224 100t-84 261q0 163 86 266.5t223 103.5q134 0 207 -58v-79q-74 74 -196 74q-116 0 -183 -85.5t-67 -221.5t68 -216t178 -80q96 0 156 35v192h-147v65h212v-299zM263 760h-59l116 136h48l117 -136h-60l-83 78z" />
    <glyph glyph-name="gcircumflex" unicode="&#x11d;" horiz-adv-x="455" 
d="M151 178q-50 17 -77 58t-27 98q0 80 50.5 127.5t128.5 47.5q38 0 73 -12h138v-55h-79q38 -39 38 -104q0 -100 -80 -142q-40 -20 -100 -27q-28 -3 -54.5 -21.5t-26.5 -46.5q0 -19 12 -28.5t44 -12.5q133 -11 163 -19q90 -21 90 -120q0 -78 -61.5 -124t-163.5 -46
q-91 0 -144 36.5t-53 98.5q0 94 112 131q-58 16 -58 71q0 61 75 90zM335 339q0 58 -29 88.5t-80 30.5q-53 0 -85.5 -32t-32.5 -88q0 -52 29.5 -84.5t78.5 -32.5q53 0 86 33t33 85zM381 -86q0 57 -57 74q-43 12 -114 12q-47 0 -88.5 -28t-41.5 -73q0 -42 36 -69t109 -27
q69 0 112.5 31t43.5 80zM148 575h-56l109 163h45l108 -163h-56l-76 102z" />
    <glyph glyph-name="Gbreve" unicode="&#x11e;" horiz-adv-x="650" 
d="M579 46q-94 -58 -229 -58q-140 0 -224 100t-84 261q0 163 86 266.5t223 103.5q134 0 207 -58v-79q-74 74 -196 74q-116 0 -183 -85.5t-67 -221.5t68 -216t178 -80q96 0 156 35v192h-147v65h212v-299zM203 895h49q4 -81 80 -81q79 0 83 81h48q-1 -60 -34.5 -96.5
t-97.5 -36.5q-62 0 -94.5 35.5t-33.5 97.5z" />
    <glyph glyph-name="gbreve" unicode="&#x11f;" horiz-adv-x="455" 
d="M151 178q-50 17 -77 58t-27 98q0 80 50.5 127.5t128.5 47.5q38 0 73 -12h138v-55h-79q38 -39 38 -104q0 -100 -80 -142q-40 -20 -100 -27q-28 -3 -54.5 -21.5t-26.5 -46.5q0 -19 12 -28.5t44 -12.5q133 -11 163 -19q90 -21 90 -120q0 -78 -61.5 -124t-163.5 -46
q-91 0 -144 36.5t-53 98.5q0 94 112 131q-58 16 -58 71q0 61 75 90zM335 339q0 58 -29 88.5t-80 30.5q-53 0 -85.5 -32t-32.5 -88q0 -52 29.5 -84.5t78.5 -32.5q53 0 86 33t33 85zM381 -86q0 57 -57 74q-43 12 -114 12q-47 0 -88.5 -28t-41.5 -73q0 -42 36 -69t109 -27
q69 0 112.5 31t43.5 80zM98 707h48q6 -90 75 -90q73 0 77 90h47q0 -62 -31.5 -101.5t-93.5 -39.5q-60 0 -90.5 38.5t-31.5 102.5z" />
    <glyph glyph-name="Gdotaccent" unicode="&#x120;" horiz-adv-x="650" 
d="M579 46q-94 -58 -229 -58q-140 0 -224 100t-84 261q0 163 86 266.5t223 103.5q134 0 207 -58v-79q-74 74 -196 74q-116 0 -183 -85.5t-67 -221.5t68 -216t178 -80q96 0 156 35v192h-147v65h212v-299zM390 821q0 -19 -11 -30.5t-31 -11.5q-18 0 -29 12t-11 30t11.5 30
t29.5 12q19 0 30 -12t11 -30z" />
    <glyph glyph-name="gdotaccent" unicode="&#x121;" horiz-adv-x="455" 
d="M151 178q-50 17 -77 58t-27 98q0 80 50.5 127.5t128.5 47.5q38 0 73 -12h138v-55h-79q38 -39 38 -104q0 -100 -80 -142q-40 -20 -100 -27q-28 -3 -54.5 -21.5t-26.5 -46.5q0 -19 12 -28.5t44 -12.5q133 -11 163 -19q90 -21 90 -120q0 -78 -61.5 -124t-163.5 -46
q-91 0 -144 36.5t-53 98.5q0 94 112 131q-58 16 -58 71q0 61 75 90zM335 339q0 58 -29 88.5t-80 30.5q-53 0 -85.5 -32t-32.5 -88q0 -52 29.5 -84.5t78.5 -32.5q53 0 86 33t33 85zM381 -86q0 57 -57 74q-43 12 -114 12q-47 0 -88.5 -28t-41.5 -73q0 -42 36 -69t109 -27
q69 0 112.5 31t43.5 80zM266 658q0 -19 -11 -30.5t-31 -11.5q-18 0 -29 12t-11 30t11.5 30t29.5 12q19 0 30 -12t11 -30z" />
    <glyph glyph-name="Gcommaaccent" unicode="&#x122;" horiz-adv-x="650" 
d="M579 46q-94 -58 -229 -58q-140 0 -224 100t-84 261q0 163 86 266.5t223 103.5q134 0 207 -58v-79q-74 74 -196 74q-116 0 -183 -85.5t-67 -221.5t68 -216t178 -80q96 0 156 35v192h-147v65h212v-299zM308 -286h-50q63 95 63 221h58q0 -135 -71 -221z" />
    <glyph glyph-name="gcommaaccent" unicode="&#x123;" horiz-adv-x="455" 
d="M269 800h49q-63 -98 -63 -220h-56q0 134 70 220zM151 178q-50 17 -77 58t-27 98q0 80 50.5 127.5t128.5 47.5q38 0 73 -12h138v-55h-79q38 -39 38 -104q0 -100 -80 -142q-40 -20 -100 -27q-28 -3 -54.5 -21.5t-26.5 -46.5q0 -19 12 -28.5t44 -12.5q133 -11 163 -19
q90 -21 90 -120q0 -78 -61.5 -124t-163.5 -46q-91 0 -144 36.5t-53 98.5q0 94 112 131q-58 16 -58 71q0 61 75 90zM335 339q0 58 -29 88.5t-80 30.5q-53 0 -85.5 -32t-32.5 -88q0 -52 29.5 -84.5t78.5 -32.5q53 0 86 33t33 85zM381 -86q0 57 -57 74q-43 12 -114 12
q-47 0 -88.5 -28t-41.5 -73q0 -42 36 -69t109 -27q69 0 112.5 31t43.5 80z" />
    <glyph glyph-name="Hcircumflex" unicode="&#x124;" horiz-adv-x="647" 
d="M559 0h-68v334h-336v-334h-67v706h67v-307h336v307h68v-706zM240 760h-59l116 136h48l117 -136h-60l-83 78z" />
    <glyph glyph-name="hcircumflex" unicode="&#x125;" horiz-adv-x="499" 
d="M137 0h-60v747h60v-313q20 32 60 54t86 22q106 0 130 -92q13 -49 13 -138v-280h-62v278q0 93 -10 119q-21 55 -90 55q-38 0 -72.5 -21.5t-54.5 -55.5v-375zM44 759h-59l116 136h48l117 -136h-60l-83 78z" />
    <glyph glyph-name="Hbar" unicode="&#x126;" horiz-adv-x="647" 
d="M559 0h-68v334h-336v-334h-67v505h-76v50h76v151h67v-151h336v151h68v-151h75v-50h-75v-505zM155 399h336v106h-336v-106z" />
    <glyph glyph-name="hbar" unicode="&#x127;" horiz-adv-x="499" 
d="M137 0h-60v579h-66v48h66v120h60v-120h122v-48h-122v-145q20 32 60 54t86 22q106 0 130 -92q13 -49 13 -138v-280h-62v278q0 93 -10 119q-21 55 -90 55q-38 0 -72.5 -21.5t-54.5 -55.5v-375z" />
    <glyph glyph-name="Itilde" unicode="&#x128;" horiz-adv-x="243" 
d="M155 0h-67v706h67v-706zM26 765h-47q7 54 31 85t56 31q27 0 64 -29q35 -28 54 -28q30 0 37 58h44q-3 -56 -25.5 -85t-53.5 -29q-30 0 -74 33q-29 23 -46 23q-30 0 -40 -59z" />
    <glyph glyph-name="itilde" unicode="&#x129;" horiz-adv-x="215" 
d="M15 598h-45q5 54 28.5 85.5t53.5 31.5q26 0 63 -29q36 -30 52 -30q29 0 36 60h43q-4 -57 -25.5 -86t-51.5 -29t-70 33q-31 24 -46 24q-30 0 -38 -60zM138 0h-61v497h61v-497z" />
    <glyph glyph-name="Imacron" unicode="&#x12a;" horiz-adv-x="243" 
d="M155 0h-67v706h67v-706zM239 797h-235v56h235v-56z" />
    <glyph glyph-name="imacron" unicode="&#x12b;" horiz-adv-x="215" 
d="M221 607h-226v56h226v-56zM138 0h-61v497h61v-497z" />
    <glyph glyph-name="Ibreve" unicode="&#x12c;" horiz-adv-x="243" 
d="M155 0h-67v706h67v-706zM-7 895h49q4 -81 80 -81q79 0 83 81h48q-1 -60 -34.5 -96.5t-97.5 -36.5q-62 0 -94.5 35.5t-33.5 97.5z" />
    <glyph glyph-name="ibreve" unicode="&#x12d;" horiz-adv-x="215" 
d="M-16 707h48q6 -90 75 -90q73 0 77 90h47q0 -62 -31.5 -101.5t-93.5 -39.5q-60 0 -90.5 38.5t-31.5 102.5zM138 0h-61v497h61v-497z" />
    <glyph glyph-name="Iogonek" unicode="&#x12e;" horiz-adv-x="243" 
d="M155 0h-8q-95 -66 -95 -138t67 -72q32 0 60 18v-44q-28 -22 -78 -22q-45 0 -74.5 27t-29.5 82q0 88 95 149h-4v706h67v-706z" />
    <glyph glyph-name="iogonek" unicode="&#x12f;" horiz-adv-x="215" 
d="M138 0h-5q-88 -66 -88 -131q0 -34 17.5 -52t47.5 -18t56 18v-42q-27 -21 -75 -21q-42 0 -69.5 26t-27.5 78q0 81 87 142h-4v497h61v-497zM152 659q0 -20 -12.5 -33t-33.5 -13q-19 0 -31.5 12.5t-12.5 32.5t12.5 33t33.5 13q19 0 31.5 -12.5t12.5 -32.5z" />
    <glyph glyph-name="Idotaccent" unicode="&#x130;" horiz-adv-x="243" 
d="M156 0h-67v706h67v-706zM163 821q0 -19 -11 -30.5t-31 -11.5q-18 0 -29 12t-11 30t11.5 30t29.5 12q19 0 30 -12t11 -30z" />
    <glyph glyph-name="dotlessi" unicode="&#x131;" horiz-adv-x="215" 
d="M138 0h-61v497h61v-497z" />
    <glyph glyph-name="IJ" unicode="&#x132;" horiz-adv-x="489" 
d="M155 0h-67v706h67v-706zM244 -184l-27 57q71 37 92 66q23 35 23 102v665h67v-658q0 -103 -38 -148q-42 -49 -117 -84z" />
    <glyph glyph-name="ij" unicode="&#x133;" horiz-adv-x="429" 
d="M138 0h-61v497h61v-497zM223 -238l-23 52q46 22 65 48q25 32 25 109v526h61v-528q0 -95 -27 -130q-34 -44 -101 -77zM152 659q0 -20 -12.5 -33t-33.5 -13q-19 0 -31.5 12.5t-12.5 32.5t12.5 33t33.5 13q19 0 31.5 -12.5t12.5 -32.5zM365 659q0 -20 -12.5 -33t-33.5 -13
q-19 0 -31.5 12.5t-12.5 32.5t12.5 33t33.5 13q19 0 31.5 -12.5t12.5 -32.5z" />
    <glyph glyph-name="Jcircumflex" unicode="&#x134;" horiz-adv-x="245" 
d="M1 -184l-27 57q71 37 92 66q23 34 23 102v665h67v-658q0 -103 -38 -148q-42 -49 -117 -84zM41 760h-59l116 136h48l117 -136h-60l-83 78z" />
    <glyph glyph-name="jcircumflex" unicode="&#x135;" horiz-adv-x="215" 
d="M10 -238l-23 52q46 22 65 48q25 32 25 109v526h61v-528q0 -92 -27 -130q-34 -44 -101 -77zM34 575h-56l109 163h45l108 -163h-56l-76 102z" />
    <glyph glyph-name="Kcommaaccent" unicode="&#x136;" horiz-adv-x="539" 
d="M155 0h-67v706h67v-322l266 322h85l-287 -335l319 -371h-89l-294 348v-348zM241 -286h-50q63 95 63 221h58q0 -135 -71 -221z" />
    <glyph glyph-name="kcommaaccent" unicode="&#x137;" horiz-adv-x="435" 
d="M137 0h-60v747h60v-454l24.5 25l64 66l109.5 113h78l-217 -218l238 -279h-77l-220 260v-260zM188 -286h-50q63 95 63 221h58q0 -135 -71 -221z" />
    <glyph glyph-name="kgreenlandic" unicode="&#x138;" horiz-adv-x="435" 
d="M137 0h-60v497h60v-214q9 11 24 27l65 70l109 117h77l-218 -227l239 -270h-77l-87 99l-60 68l-35.5 40.5l-23 26.5l-13.5 16v-250z" />
    <glyph glyph-name="Lacute" unicode="&#x139;" horiz-adv-x="466" 
d="M443 0h-355v706h67v-640h288v-66zM139 760h-67l121 136h92z" />
    <glyph glyph-name="lacute" unicode="&#x13a;" horiz-adv-x="214" 
d="M137 0h-60v747h60v-747zM125 780h-67l121 136h92z" />
    <glyph glyph-name="Lcommaaccent" unicode="&#x13b;" horiz-adv-x="466" 
d="M443 0h-355v706h67v-640h288v-66zM216 -286h-50q63 95 63 221h58q0 -135 -71 -221z" />
    <glyph glyph-name="lcommaaccent" unicode="&#x13c;" horiz-adv-x="214" 
d="M137 0h-60v747h60v-747zM67 -286h-50q63 95 63 221h58q0 -135 -71 -221z" />
    <glyph glyph-name="Lcaron" unicode="&#x13d;" horiz-adv-x="466" 
d="M443 0h-355v706h67v-640h288v-66zM274 486h-49q62 96 62 221h58q0 -133 -71 -221z" />
    <glyph glyph-name="lcaron" unicode="&#x13e;" horiz-adv-x="214" 
d="M137 0h-60v747h60v-747zM225 527h-49q62 96 62 221h58q0 -133 -71 -221z" />
    <glyph glyph-name="Ldot" unicode="&#x13f;" horiz-adv-x="466" 
d="M443 0h-355v706h67v-640h288v-66zM399 333q0 -23 -14.5 -37.5t-37.5 -14.5q-22 0 -36 14.5t-14 35.5q0 23 14.5 38t37.5 15q22 0 36 -14.5t14 -36.5z" />
    <glyph glyph-name="ldot" unicode="&#x140;" horiz-adv-x="268" 
d="M286 325q0 -22 -13.5 -36t-34.5 -14q-20 0 -34 14t-14 34q0 21 14 35.5t35 14.5q20 0 33.5 -13.5t13.5 -34.5zM137 0h-60v747h60v-747z" />
    <glyph glyph-name="Lslash" unicode="&#x141;" horiz-adv-x="466" 
d="M443 0h-355v279l-79 -57v59l79 57v368h67v-319l124 90v-59l-124 -90v-262h288v-66z" />
    <glyph glyph-name="lslash" unicode="&#x142;" horiz-adv-x="214" 
d="M137 0h-60v302l-71 -51v56l71 51v389h60v-345l71 51v-56l-71 -51v-346z" />
    <glyph glyph-name="Nacute" unicode="&#x143;" horiz-adv-x="664" 
d="M153 0h-65v706h60q330 -508 366 -571q-3 84 -3 571h65v-706h-55q-343 538 -369 581q1 -72 1 -581zM338 760h-67l121 136h92z" />
    <glyph glyph-name="nacute" unicode="&#x144;" horiz-adv-x="499" 
d="M137 0h-60v497h59v-64q19 32 60 54t87 22q111 0 134 -101q9 -41 9 -128v-280h-62v278q0 90 -10 119q-19 55 -89 55q-40 0 -74.5 -21.5t-53.5 -55.5v-375zM256 580h-57l104 167h79z" />
    <glyph glyph-name="Ncommaaccent" unicode="&#x145;" horiz-adv-x="664" 
d="M153 0h-65v706h60q330 -508 366 -571q-3 84 -3 571h65v-706h-55q-343 538 -369 581q1 -72 1 -581zM294 -286h-50q63 95 63 221h58q0 -135 -71 -221z" />
    <glyph glyph-name="ncommaaccent" unicode="&#x146;" horiz-adv-x="499" 
d="M137 0h-60v497h59v-64q19 32 60 54t87 22q111 0 134 -101q9 -41 9 -128v-280h-62v278q0 90 -10 119q-19 55 -89 55q-40 0 -74.5 -21.5t-53.5 -55.5v-375zM214 -286h-50q63 95 63 221h58q0 -135 -71 -221z" />
    <glyph glyph-name="Ncaron" unicode="&#x147;" horiz-adv-x="664" 
d="M153 0h-65v706h60q330 -508 366 -571q-3 84 -3 571h65v-706h-55q-343 538 -369 581q1 -72 1 -581zM409 896h59l-116 -136h-48l-117 136h60l82 -78z" />
    <glyph glyph-name="ncaron" unicode="&#x148;" horiz-adv-x="499" 
d="M137 0h-60v497h59v-64q19 32 60 54t87 22q111 0 134 -101q9 -41 9 -128v-280h-62v278q0 90 -10 119q-19 55 -89 55q-40 0 -74.5 -21.5t-53.5 -55.5v-375zM320 743h55l-108 -163h-45l-109 163h57l76 -102z" />
    <glyph glyph-name="napostrophe" unicode="&#x149;" horiz-adv-x="499" 
d="M137 0h-60v497h59v-64q19 32 60 54t87 22q111 0 134 -101q9 -41 9 -128v-280h-62v278q0 90 -10 119q-19 55 -89 55q-40 0 -74.5 -21.5t-53.5 -55.5v-375zM83 565h-50q63 95 63 221h58q0 -135 -71 -221z" />
    <glyph glyph-name="Eng" unicode="&#x14a;" horiz-adv-x="664" 
d="M152 0h-65v706h60q318 -497 364 -578q0 8 -0.5 283.5t-0.5 294.5h65v-735q0 -84 -38 -128q-37 -44 -118 -84l-28 58q64 34 92 66q24 29 24 75v55q-281 441 -356 573q1 -73 1 -586z" />
    <glyph glyph-name="eng" unicode="&#x14b;" horiz-adv-x="498" 
d="M137 0h-60v497h60v-63q22 32 61 53.5t85 21.5q112 0 134 -103q8 -35 8 -131v-307q0 -95 -26 -128q-32 -44 -101 -78l-26 52q49 24 69 48q23 28 23 109v305q0 90 -10 119q-20 57 -88 57q-42 0 -76 -21.5t-53 -55.5v-375z" />
    <glyph glyph-name="Omacron" unicode="&#x14c;" horiz-adv-x="684" 
d="M642 354q0 -166 -83 -266t-220 -100q-132 0 -214.5 100.5t-82.5 264.5t85 265t220 101q138 0 216.5 -102t78.5 -263zM571 348q0 142 -60 224.5t-165 82.5q-106 0 -170 -81t-64 -220t63 -220.5t167 -81.5q106 0 167.5 79.5t61.5 216.5zM462 797h-235v56h235v-56z" />
    <glyph glyph-name="omacron" unicode="&#x14d;" horiz-adv-x="493" 
d="M455 250q0 -121 -56 -191.5t-153 -70.5q-96 0 -151.5 71t-55.5 188q0 116 57 189t152 73q98 0 152.5 -71.5t54.5 -187.5zM391 250q0 97 -38 149.5t-105 52.5q-65 0 -105 -53.5t-40 -150.5q0 -96 38 -149.5t105 -53.5q70 0 107.5 53t37.5 152zM361 607h-226v56h226v-56z
" />
    <glyph glyph-name="Obreve" unicode="&#x14e;" horiz-adv-x="684" 
d="M642 354q0 -166 -83 -266t-220 -100q-132 0 -214.5 100.5t-82.5 264.5t85 265t220 101q138 0 216.5 -102t78.5 -263zM571 348q0 142 -60 224.5t-165 82.5q-106 0 -170 -81t-64 -220t63 -220.5t167 -81.5q106 0 167.5 79.5t61.5 216.5zM215 895h49q4 -81 80 -81
q79 0 83 81h48q-1 -60 -34.5 -96.5t-97.5 -36.5q-62 0 -94.5 35.5t-33.5 97.5z" />
    <glyph glyph-name="obreve" unicode="&#x14f;" horiz-adv-x="493" 
d="M455 250q0 -121 -56 -191.5t-153 -70.5q-96 0 -151.5 71t-55.5 188q0 116 57 189t152 73q98 0 152.5 -71.5t54.5 -187.5zM391 250q0 97 -38 149.5t-105 52.5q-65 0 -105 -53.5t-40 -150.5q0 -96 38 -149.5t105 -53.5q70 0 107.5 53t37.5 152zM125 707h48q6 -90 75 -90
q72 0 77 90h47q0 -62 -31.5 -101.5t-93.5 -39.5q-60 0 -90.5 38.5t-31.5 102.5z" />
    <glyph glyph-name="Ohungarumlaut" unicode="&#x150;" horiz-adv-x="684" 
d="M642 354q0 -166 -83 -266t-220 -100q-132 0 -214.5 100.5t-82.5 264.5t85 265t220 101q138 0 216.5 -102t78.5 -263zM571 348q0 142 -60 224.5t-165 82.5q-106 0 -170 -81t-64 -220t63 -220.5t167 -81.5q106 0 167.5 79.5t61.5 216.5zM287 760h-64l120 136h82zM427 760
h-62l119 136h82z" />
    <glyph glyph-name="ohungarumlaut" unicode="&#x151;" horiz-adv-x="493" 
d="M455 250q0 -121 -56 -191.5t-153 -70.5q-96 0 -151.5 71t-55.5 188q0 116 57 189t152 73q98 0 152.5 -71.5t54.5 -187.5zM391 250q0 97 -38 149.5t-105 52.5q-65 0 -105 -53.5t-40 -150.5q0 -96 38 -149.5t105 -53.5q70 0 107.5 53t37.5 152zM198 580h-55l105 167h70z
M330 580h-56l106 167h71z" />
    <glyph glyph-name="OE" unicode="&#x152;" horiz-adv-x="874" 
d="M841 0h-361q-62 -8 -135 -8q-140 0 -221.5 93.5t-81.5 264.5q0 184 89 274.5t229 90.5q64 0 120 -9h346v-66h-279v-241h262v-65h-262v-268h294v-66zM480 66v574q-52 12 -118 12q-115 0 -182.5 -74.5t-67.5 -224.5t69.5 -224t175.5 -74q66 0 123 11z" />
    <glyph glyph-name="oe" unicode="&#x153;" horiz-adv-x="806" 
d="M421 115q-18 -60 -63.5 -93.5t-111.5 -33.5q-96 0 -151.5 70.5t-55.5 188.5q0 116 57.5 189t151.5 73q127 0 174 -123q49 123 170 123q93 0 137 -65t44 -176v-27h-321q3 -196 172 -196q80 0 144 54v-61q-76 -50 -155 -50q-142 0 -192 127zM392 250q0 97 -37 149.5
t-107 52.5q-66 0 -105.5 -54t-39.5 -150t37.5 -149.5t105.5 -53.5q71 0 108.5 53t37.5 152zM454 290h260q-5 164 -122 164q-65 0 -100.5 -46.5t-37.5 -117.5z" />
    <glyph glyph-name="Racute" unicode="&#x154;" horiz-adv-x="550" 
d="M155 0h-67v706h110q96 0 140 -10q134 -28 134 -176q0 -139 -131 -184q40 -17 72 -73t128 -263h-74q-88 187 -115 235t-54 64q-20 12 -60 12h-83v-311zM155 373h91q46 0 75 12q81 31 81 129q0 50 -26.5 85.5t-82.5 41.5q-36 4 -93 4h-45v-272zM270 760h-67l121 136h92z
" />
    <glyph glyph-name="racute" unicode="&#x155;" 
d="M137 0h-60v497h59v-74q16 41 48 63.5t73 22.5q32 0 53 -12v-67q-23 18 -58 18q-80 0 -115 -88v-360zM194 580h-57l104 167h79z" />
    <glyph glyph-name="Rcommaaccent" unicode="&#x156;" horiz-adv-x="550" 
d="M155 0h-67v706h110q96 0 140 -10q134 -28 134 -176q0 -139 -131 -184q40 -17 72 -73t128 -263h-74q-88 187 -115 235t-54 64q-20 12 -60 12h-83v-311zM155 373h91q46 0 75 12q81 31 81 129q0 50 -26.5 85.5t-82.5 41.5q-36 4 -93 4h-45v-272zM248 -286h-50q63 95 63 221
h58q0 -135 -71 -221z" />
    <glyph glyph-name="rcommaaccent" unicode="&#x157;" 
d="M137 0h-60v497h59v-74q16 41 48 63.5t73 22.5q32 0 53 -12v-67q-23 18 -58 18q-80 0 -115 -88v-360zM68 -286h-50q63 95 63 221h58q0 -135 -71 -221z" />
    <glyph glyph-name="Rcaron" unicode="&#x158;" horiz-adv-x="550" 
d="M155 0h-67v706h110q96 0 140 -10q134 -28 134 -176q0 -139 -131 -184q40 -17 72 -73t128 -263h-74q-88 187 -115 235t-54 64q-20 12 -60 12h-83v-311zM155 373h91q46 0 75 12q81 31 81 129q0 50 -26.5 85.5t-82.5 41.5q-36 4 -93 4h-45v-272zM336 896h59l-116 -136h-48
l-117 136h60l82 -78z" />
    <glyph glyph-name="rcaron" unicode="&#x159;" 
d="M137 0h-60v497h59v-74q16 41 48 63.5t73 22.5q32 0 53 -12v-67q-23 18 -58 18q-80 0 -115 -88v-360zM256 743h55l-108 -163h-45l-109 163h57l76 -102z" />
    <glyph glyph-name="Sacute" unicode="&#x15a;" horiz-adv-x="476" 
d="M45 50v82q38 -39 91 -59.5t102 -20.5q69 0 101.5 34t32.5 87q0 44 -24 73t-88 62l-78 40q-75 38 -104.5 81t-29.5 108q0 85 52 133.5t145 48.5q95 0 162 -47v-79q-76 62 -167 62q-62 0 -92.5 -33.5t-30.5 -83.5q0 -48 22 -73.5t74 -51.5l77 -40q90 -46 121.5 -90
t31.5 -106q0 -87 -55 -138t-154 -51q-114 0 -189 62zM241 760h-67l121 136h92z" />
    <glyph glyph-name="sacute" unicode="&#x15b;" horiz-adv-x="372" 
d="M38 36v69q63 -60 149 -60q48 0 69.5 22t21.5 55q0 25 -15 44.5t-63 45.5l-59 31q-51 26 -74.5 57.5t-23.5 77.5q0 57 39 94t107 37q79 0 133 -43v-69q-66 55 -133 55q-47 0 -65.5 -21.5t-18.5 -49.5q0 -27 14.5 -45.5t59.5 -42.5l56 -29q59 -31 81.5 -60t22.5 -80
q0 -62 -40.5 -99t-110.5 -37q-85 0 -150 48zM192 580h-57l104 167h79z" />
    <glyph glyph-name="Scircumflex" unicode="&#x15c;" horiz-adv-x="476" 
d="M45 50v82q38 -39 91 -59.5t102 -20.5q69 0 101.5 34t32.5 87q0 44 -24 73t-88 62l-78 40q-75 38 -104.5 81t-29.5 108q0 85 52 133.5t145 48.5q95 0 162 -47v-79q-76 62 -167 62q-62 0 -92.5 -33.5t-30.5 -83.5q0 -48 22 -73.5t74 -51.5l77 -40q90 -46 121.5 -90
t31.5 -106q0 -87 -55 -138t-154 -51q-114 0 -189 62zM163 760h-59l116 136h48l117 -136h-60l-83 78z" />
    <glyph glyph-name="scircumflex" unicode="&#x15d;" horiz-adv-x="372" 
d="M38 36v69q63 -60 149 -60q48 0 69.5 22t21.5 55q0 25 -15 44.5t-63 45.5l-59 31q-51 26 -74.5 57.5t-23.5 77.5q0 57 39 94t107 37q79 0 133 -43v-69q-66 55 -133 55q-47 0 -65.5 -21.5t-18.5 -49.5q0 -27 14.5 -45.5t59.5 -42.5l56 -29q59 -31 81.5 -60t22.5 -80
q0 -62 -40.5 -99t-110.5 -37q-85 0 -150 48zM117 575h-56l109 163h45l108 -163h-56l-76 102z" />
    <glyph glyph-name="Scedilla" unicode="&#x15e;" horiz-adv-x="476" 
d="M158 -245v45q27 -20 60 -20q30 0 44 16.5t14 42.5q0 24 -15 39t-45 15q-20 0 -37 -6l26 103q-97 7 -160 60v82q38 -39 91 -59.5t102 -20.5q69 0 101.5 34t32.5 87q0 44 -24 73t-88 62l-78 40q-75 38 -104.5 81t-29.5 108q0 85 52 133.5t145 48.5q95 0 162 -47v-79
q-76 62 -167 62q-62 0 -92.5 -33.5t-30.5 -83.5q0 -48 22 -73.5t74 -51.5l77 -40q90 -46 121.5 -90t31.5 -106q0 -84 -52 -134.5t-145 -54.5l-14 -56q4 1 15 1q38 0 60 -26t22 -67q0 -50 -28 -76t-77 -26q-40 0 -66 17z" />
    <glyph glyph-name="scedilla" unicode="&#x15f;" horiz-adv-x="372" 
d="M110 -237v44q24 -19 59 -19q28 0 42 16t14 40q0 52 -59 52q-19 0 -36 -6l26 100q-67 8 -118 46v69q63 -60 149 -60q48 0 69.5 22t21.5 55q0 25 -15 44.5t-63 45.5l-59 31q-51 26 -74.5 57.5t-23.5 77.5q0 57 39 94t107 37q79 0 133 -43v-69q-66 55 -133 55
q-47 0 -65.5 -21.5t-18.5 -49.5q0 -27 14.5 -45.5t59.5 -42.5l56 -29q59 -31 81.5 -60t22.5 -80q0 -61 -38.5 -97.5t-105.5 -38.5l-14 -53q5 1 15 1q37 0 58.5 -25t21.5 -65q0 -49 -27 -74.5t-75 -25.5q-42 0 -64 17z" />
    <glyph glyph-name="Scaron" unicode="&#x160;" horiz-adv-x="476" 
d="M45 50v82q38 -39 91 -59.5t102 -20.5q69 0 101.5 34t32.5 87q0 44 -24 73t-88 62l-78 40q-75 38 -104.5 81t-29.5 108q0 85 52 133.5t145 48.5q95 0 162 -47v-79q-76 62 -167 62q-62 0 -92.5 -33.5t-30.5 -83.5q0 -48 22 -73.5t74 -51.5l77 -40q90 -46 121.5 -90
t31.5 -106q0 -87 -55 -138t-154 -51q-114 0 -189 62zM321 896h59l-116 -136h-48l-117 136h60l82 -78z" />
    <glyph glyph-name="scaron" unicode="&#x161;" horiz-adv-x="372" 
d="M38 36v69q63 -60 149 -60q48 0 69.5 22t21.5 55q0 25 -15 44.5t-63 45.5l-59 31q-51 26 -74.5 57.5t-23.5 77.5q0 57 39 94t107 37q79 0 133 -43v-69q-66 55 -133 55q-47 0 -65.5 -21.5t-18.5 -49.5q0 -27 14.5 -45.5t59.5 -42.5l56 -29q59 -31 81.5 -60t22.5 -80
q0 -62 -40.5 -99t-110.5 -37q-85 0 -150 48zM265 743h55l-108 -163h-45l-109 163h57l76 -102z" />
    <glyph glyph-name="uni0162" unicode="&#x162;" horiz-adv-x="518" 
d="M188 -245v45q27 -20 60 -20q30 0 44 16.5t14 42.5q0 24 -15 39t-45 15q-20 0 -37 -6l29 113h-14v640h-195v66h459v-66h-197v-640h-12l-17 -68q4 1 15 1q38 0 60 -26t22 -67q0 -50 -28 -76t-77 -26q-40 0 -66 17z" />
    <glyph glyph-name="uni0163" unicode="&#x163;" horiz-adv-x="309" 
d="M113 -237v44q24 -19 59 -19q28 0 42 16t14 40q0 52 -59 52q-19 0 -36 -6l27 104q-50 15 -61 68q-8 29 -8 105v274h-62v56h62v137h61v-137h119v-56h-119v-275q0 -50 6 -77q11 -45 64 -45q40 0 74 24v-57q-38 -23 -95 -23h-3l-14 -53q5 1 15 1q37 0 58.5 -25t21.5 -65
q0 -49 -27 -74.5t-75 -25.5q-42 0 -64 17z" />
    <glyph glyph-name="Tcaron" unicode="&#x164;" horiz-adv-x="518" 
d="M286 0h-67v640h-195v66h459v-66h-197v-640zM333 896h59l-116 -136h-48l-117 136h60l82 -78z" />
    <glyph glyph-name="tcaron" unicode="&#x165;" horiz-adv-x="309" 
d="M296 11q-38 -23 -95 -23q-38 0 -65.5 18.5t-36.5 55.5q-8 29 -8 105v274h-62v56h62v137h61v-137h119v-56h-119v-275q0 -50 6 -77q11 -45 64 -45q40 0 74 24v-57zM262 573h-49q62 96 62 221h58q0 -133 -71 -221z" />
    <glyph glyph-name="Tbar" unicode="&#x166;" horiz-adv-x="518" 
d="M291 0h-67v358h-131v49h131v233h-195v66h459v-66h-197v-233h132v-49h-132v-358z" />
    <glyph glyph-name="tbar" unicode="&#x167;" horiz-adv-x="309" 
d="M296 11q-38 -23 -95 -23q-38 0 -65.5 18.5t-36.5 55.5q-8 29 -8 105v100h-57v47h57v127h-62v56h62v137h61v-137h119v-56h-119v-127h112v-47h-112v-101q0 -50 6 -77q11 -45 64 -45q40 0 74 24v-57z" />
    <glyph glyph-name="Utilde" unicode="&#x168;" horiz-adv-x="657" 
d="M82 706h66v-412q0 -84 14 -134q15 -54 59.5 -81t105.5 -27q146 0 172 125q11 51 11 124v405h65v-408q0 -93 -14 -153q-19 -77 -80.5 -117t-155.5 -40q-86 0 -147 37.5t-81 115.5q-15 59 -15 151v414zM234 765h-47q7 54 31 85t56 31q27 0 64 -29q35 -28 54 -28q30 0 37 58
h44q-3 -56 -25.5 -85t-53.5 -29q-30 0 -74 33q-29 23 -46 23q-30 0 -40 -59z" />
    <glyph glyph-name="utilde" unicode="&#x169;" horiz-adv-x="498" 
d="M422 0h-61v63q-19 -32 -59 -53.5t-86 -21.5q-106 0 -131 91q-12 44 -12 138v280h61v-278q0 -88 10 -116q21 -58 90 -58q38 0 72.5 21.5t54.5 55.5v375h61v-497zM158 598h-45q5 54 28.5 85.5t53.5 31.5q26 0 63 -29q36 -30 52 -30q29 0 36 60h43q-4 -57 -25.5 -86
t-51.5 -29t-70 33q-31 24 -46 24q-30 0 -38 -60z" />
    <glyph glyph-name="Umacron" unicode="&#x16a;" horiz-adv-x="657" 
d="M82 706h66v-412q0 -84 14 -134q15 -54 59.5 -81t105.5 -27q146 0 172 125q11 51 11 124v405h65v-408q0 -93 -14 -153q-19 -77 -80.5 -117t-155.5 -40q-86 0 -147 37.5t-81 115.5q-15 59 -15 151v414zM444 797h-235v56h235v-56z" />
    <glyph glyph-name="umacron" unicode="&#x16b;" horiz-adv-x="498" 
d="M422 0h-61v63q-19 -32 -59 -53.5t-86 -21.5q-106 0 -131 91q-12 44 -12 138v280h61v-278q0 -88 10 -116q21 -58 90 -58q38 0 72.5 21.5t54.5 55.5v375h61v-497zM363 607h-226v56h226v-56z" />
    <glyph glyph-name="Ubreve" unicode="&#x16c;" horiz-adv-x="657" 
d="M82 706h66v-412q0 -84 14 -134q15 -54 59.5 -81t105.5 -27q146 0 172 125q11 51 11 124v405h65v-408q0 -93 -14 -153q-19 -77 -80.5 -117t-155.5 -40q-86 0 -147 37.5t-81 115.5q-15 59 -15 151v414zM195 895h49q4 -81 80 -81q79 0 83 81h48q-1 -60 -34.5 -96.5
t-97.5 -36.5q-62 0 -94.5 35.5t-33.5 97.5z" />
    <glyph glyph-name="ubreve" unicode="&#x16d;" horiz-adv-x="498" 
d="M422 0h-61v63q-19 -32 -59 -53.5t-86 -21.5q-106 0 -131 91q-12 44 -12 138v280h61v-278q0 -88 10 -116q21 -58 90 -58q38 0 72.5 21.5t54.5 55.5v375h61v-497zM127 707h48q6 -90 75 -90q72 0 77 90h47q0 -62 -31.5 -101.5t-93.5 -39.5q-60 0 -90.5 38.5t-31.5 102.5z
" />
    <glyph glyph-name="Uring" unicode="&#x16e;" horiz-adv-x="657" 
d="M82 706h66v-412q0 -84 14 -134q15 -54 59.5 -81t105.5 -27q146 0 172 125q11 51 11 124v405h65v-408q0 -93 -14 -153q-19 -77 -80.5 -117t-155.5 -40q-86 0 -147 37.5t-81 115.5q-15 59 -15 151v414zM410 837q0 -39 -24.5 -64t-63.5 -25q-38 0 -61.5 24t-23.5 62
q0 39 25 64t62 25q39 0 62.5 -23.5t23.5 -62.5zM378 836q0 28 -15 43.5t-41 15.5q-24 0 -39 -16.5t-15 -43.5q0 -24 14.5 -41.5t41.5 -17.5q25 0 39.5 17t14.5 43z" />
    <glyph glyph-name="uring" unicode="&#x16f;" horiz-adv-x="498" 
d="M422 0h-61v63q-19 -32 -59 -53.5t-86 -21.5q-106 0 -131 91q-12 44 -12 138v280h61v-278q0 -88 10 -116q21 -58 90 -58q38 0 72.5 21.5t54.5 55.5v375h61v-497zM341 670q0 -38 -26.5 -64.5t-65.5 -26.5q-38 0 -63 26t-25 65q0 41 25.5 66t65.5 25t64.5 -25t24.5 -66z
M309 671q0 28 -16 45t-44 17q-26 0 -42 -18t-16 -45q0 -26 16 -44.5t45 -18.5q26 0 41.5 18.5t15.5 45.5z" />
    <glyph glyph-name="Uhungarumlaut" unicode="&#x170;" horiz-adv-x="657" 
d="M82 706h66v-412q0 -84 14 -134q15 -54 59.5 -81t105.5 -27q146 0 172 125q11 51 11 124v405h65v-408q0 -93 -14 -153q-19 -77 -80.5 -117t-155.5 -40q-86 0 -147 37.5t-81 115.5q-15 59 -15 151v414zM259 760h-64l120 136h82zM399 760h-62l119 136h82z" />
    <glyph glyph-name="uhungarumlaut" unicode="&#x171;" horiz-adv-x="498" 
d="M422 0h-61v63q-19 -32 -59 -53.5t-86 -21.5q-106 0 -131 91q-12 44 -12 138v280h61v-278q0 -88 10 -116q21 -58 90 -58q38 0 72.5 21.5t54.5 55.5v375h61v-497zM197 580h-55l105 167h70zM329 580h-56l106 167h71z" />
    <glyph glyph-name="Uogonek" unicode="&#x172;" horiz-adv-x="657" 
d="M82 706h66v-412q0 -84 14 -134q15 -54 59.5 -81t105.5 -27q146 0 172 125q11 51 11 124v405h65v-408q0 -93 -14 -153q-35 -139 -197 -155q-81 -61 -81 -128q0 -72 67 -72q32 0 60 18v-44q-28 -22 -78 -22q-45 0 -74.5 27t-29.5 82q0 80 79 138q-173 9 -210 152
q-15 59 -15 151v414z" />
    <glyph glyph-name="uogonek" unicode="&#x173;" horiz-adv-x="498" 
d="M422 0h-4q-88 -66 -88 -131q0 -34 17.5 -52t47.5 -18t56 18v-42q-27 -21 -75 -21q-42 0 -69.5 26t-27.5 78q0 84 86 142h-4v63q-19 -32 -59 -53.5t-86 -21.5q-106 0 -131 91q-12 44 -12 138v280h61v-278q0 -88 10 -116q21 -58 90 -58q38 0 72.5 21.5t54.5 55.5v375h61
v-497z" />
    <glyph glyph-name="Wcircumflex" unicode="&#x174;" horiz-adv-x="865" 
d="M259 -3h-55l-194 709h72q125 -456 155 -588q16 62 171 588h52q163 -547 173 -588q31 143 154 588h68l-194 -709h-55q-149 499 -173 592q-18 -74 -174 -592zM352 760h-59l116 136h48l117 -136h-60l-83 78z" />
    <glyph glyph-name="wcircumflex" unicode="&#x175;" horiz-adv-x="667" 
d="M203 -3h-45l-146 500h67q86 -306 108 -397q22 78 124 397h47q105 -322 125 -397q19 79 106 397h67l-146 -500h-46q-124 377 -131 402q-19 -72 -130 -402zM258 575h-56l109 163h45l108 -163h-56l-76 102z" />
    <glyph glyph-name="Ycircumflex" unicode="&#x176;" horiz-adv-x="548" 
d="M304 0h-68v297l-232 409h79l189 -340l199 340h73l-240 -409v-297zM191 760h-59l116 136h48l117 -136h-60l-83 78z" />
    <glyph glyph-name="ycircumflex" unicode="&#x177;" horiz-adv-x="432" 
d="M173 -237h-65l88 247l-193 487h69q140 -362 154 -407q14 47 137 407h66zM148 575h-56l109 163h45l108 -163h-56l-76 102z" />
    <glyph glyph-name="Ydieresis" unicode="&#x178;" horiz-adv-x="548" 
d="M304 0h-68v297l-232 409h79l189 -340l199 340h73l-240 -409v-297zM241 821q0 -19 -11 -30.5t-31 -11.5q-18 0 -29 12t-11 30t11.5 30t29.5 12q19 0 30 -12t11 -30zM391 821q0 -19 -11 -30.5t-31 -11.5q-18 0 -29 12t-11 30t11.5 30t29.5 12q19 0 30 -12t11 -30z" />
    <glyph glyph-name="Zacute" unicode="&#x179;" horiz-adv-x="544" 
d="M517 0h-508l394 641q-42 -1 -350 -1v66h468l-393 -641q59 1 389 1v-66zM288 760h-67l121 136h92z" />
    <glyph glyph-name="zacute" unicode="&#x17a;" horiz-adv-x="410" 
d="M394 0h-386l278 443q-38 -1 -246 -1v55h348l-276 -443q12 0 105.5 0.5t176.5 0.5v-55zM226 580h-57l104 167h79z" />
    <glyph glyph-name="Zdotaccent" unicode="&#x17b;" horiz-adv-x="544" 
d="M517 0h-508l394 641q-42 -1 -350 -1v66h468l-393 -641q59 1 389 1v-66zM319 821q0 -19 -11 -30.5t-31 -11.5q-18 0 -29 12t-11 30t11.5 30t29.5 12q19 0 30 -12t11 -30z" />
    <glyph glyph-name="zdotaccent" unicode="&#x17c;" horiz-adv-x="410" 
d="M394 0h-386l278 443q-38 -1 -246 -1v55h348l-276 -443q12 0 105.5 0.5t176.5 0.5v-55zM260 658q0 -19 -11 -30.5t-31 -11.5q-18 0 -29 12t-11 30t11.5 30t29.5 12q19 0 30 -12t11 -30z" />
    <glyph glyph-name="Zcaron" unicode="&#x17d;" horiz-adv-x="544" 
d="M517 0h-508l394 641q-42 -1 -350 -1v66h468l-393 -641q59 1 389 1v-66zM361 896h59l-116 -136h-48l-117 136h60l82 -78z" />
    <glyph glyph-name="zcaron" unicode="&#x17e;" horiz-adv-x="410" 
d="M394 0h-386l278 443q-38 -1 -246 -1v55h348l-276 -443q12 0 105.5 0.5t176.5 0.5v-55zM282 743h55l-108 -163h-45l-109 163h57l76 -102z" />
    <glyph glyph-name="longs" unicode="&#x17f;" horiz-adv-x="233" 
d="M137 0h-60v573q0 76 13 114q28 73 123 73q44 0 72 -16v-59q-26 19 -65 19q-55 0 -73 -44q-10 -25 -10 -86v-574z" />
    <glyph glyph-name="florin" unicode="&#x192;" horiz-adv-x="415" 
d="M14 -116v65q25 -24 64 -24q41 0 55 34q8 21 12 69l24 341h-82v54h85l7 98q5 82 29 123q15 26 44.5 41.5t60.5 15.5q55 0 80 -23v-65q-26 26 -69 26q-39 0 -59 -28q-17 -26 -23 -95l-7 -93h102v-54h-105l-22 -335q-4 -57 -15 -94q-11 -38 -42 -57t-70 -19q-43 0 -69 20z
" />
    <glyph glyph-name="Aringacute" unicode="&#x1fa;" horiz-adv-x="567" 
d="M364 768q0 -55 -46 -78l244 -690h-72l-82 228h-253l-80 -228h-71l244 689q-47 22 -47 78q0 38 23.5 62t59.5 24q37 0 58.5 -23t21.5 -62zM176 290h214q-89 252 -107 313zM337 768q0 28 -15 44t-41 16q-23 0 -38 -17.5t-15 -43.5t14.5 -43t41.5 -17q25 0 39 17.5t14 43.5z
M299 884h-50l95 115h72z" />
    <glyph glyph-name="aringacute" unicode="&#x1fb;" horiz-adv-x="448" 
d="M376 0h-57v57q-56 -67 -140 -67q-62 0 -99 40.5t-37 101.5q0 75 55 112q56 40 219 54v16q0 67 -18 97q-26 40 -83 40q-90 0 -150 -61v62q60 57 155 57q100 0 136 -74q19 -41 19 -130v-305zM317 98v153q-132 -11 -180 -44q-34 -24 -34 -71q0 -37 22 -66t71 -29
q69 0 121 57zM316 670q0 -38 -26 -64.5t-66 -26.5q-38 0 -63 26t-25 65q0 41 25.5 66t65.5 25t64.5 -25t24.5 -66zM284 671q0 28 -16 45t-44 17q-26 0 -42 -18t-16 -45q0 -26 16 -44.5t45 -18.5q26 0 41.5 18.5t15.5 45.5zM235 801h-52l98 155h74z" />
    <glyph glyph-name="AEacute" unicode="&#x1fc;" horiz-adv-x="881" 
d="M83 0h-82l458 706h373v-66h-276v-241h260v-65h-260v-267h291v-67h-358v234h-256zM270 296h219v344zM595 759h-67l121 136h92z" />
    <glyph glyph-name="aeacute" unicode="&#x1fd;" horiz-adv-x="726" 
d="M688 38q-72 -50 -156 -50q-115 0 -170 83q-74 -82 -176 -82q-69 0 -107 41.5t-38 103.5q0 72 56 110q65 43 218 50v24q0 66 -20 97q-25 36 -81 36q-88 0 -150 -61v63q65 56 154 56q117 0 135 -102q21 49 62.5 75.5t95.5 26.5q92 0 137.5 -63.5t45.5 -172.5v-29h-320
q0 -62 19 -108q39 -91 152 -91q80 0 143 53v-60zM341 108q-23 55 -25 139q-129 -8 -179 -40q-35 -22 -35 -69q0 -38 22.5 -67.5t72.5 -29.5q75 0 144 67zM374 294h261q-2 32 -7 56.5t-17.5 50t-37 39.5t-60.5 14q-65 0 -100.5 -44.5t-38.5 -115.5zM388 580h-57l104 167h79z
" />
    <glyph glyph-name="Oslashacute" unicode="&#x1fe;" horiz-adv-x="684" 
d="M115 -40l-35 21l58 92q-96 102 -96 280q0 164 85 265t220 101q92 0 164 -51l54 86l34 -22l-57 -91q100 -102 100 -287q0 -166 -83 -266t-220 -100q-99 0 -171 57zM571 348q0 149 -67 233l-300 -479q58 -50 138 -50q106 0 167.5 79.5t61.5 216.5zM112 354q0 -139 63 -221
l300 477q-54 45 -129 45q-106 0 -170 -81t-64 -220zM351 760h-67l121 136h92z" />
    <glyph glyph-name="oslashacute" unicode="&#x1ff;" horiz-adv-x="493" 
d="M89 -43l-31 20l45 72q-64 70 -64 198q0 116 57 189t152 73q68 0 119 -38l46 74l31 -19l-51 -81q62 -71 62 -195q0 -121 -56 -191.5t-153 -70.5q-66 0 -116 36zM100 248q0 -93 36 -146l200 319q-37 32 -88 32q-66 0 -107 -54t-41 -151zM394 250q0 89 -34 142l-199 -319
q35 -29 85 -29q71 0 109.5 53t38.5 153zM253 580h-57l104 167h79z" />
    <glyph glyph-name="uni0218" unicode="&#x218;" horiz-adv-x="476" 
d="M45 50v82q38 -39 91 -59.5t102 -20.5q69 0 101.5 34t32.5 87q0 44 -24 73t-88 62l-78 40q-75 38 -104.5 81t-29.5 108q0 85 52 133.5t145 48.5q95 0 162 -47v-79q-76 62 -167 62q-62 0 -92.5 -33.5t-30.5 -83.5q0 -48 22 -73.5t74 -51.5l77 -40q90 -46 121.5 -90
t31.5 -106q0 -87 -55 -138t-154 -51q-114 0 -189 62zM187 -286h-50q63 95 63 221h58q0 -135 -71 -221z" />
    <glyph glyph-name="uni0219" unicode="&#x219;" horiz-adv-x="372" 
d="M38 36v69q63 -60 149 -60q48 0 69.5 22t21.5 55q0 25 -15 44.5t-63 45.5l-59 31q-51 26 -74.5 57.5t-23.5 77.5q0 57 39 94t107 37q79 0 133 -43v-69q-66 55 -133 55q-47 0 -65.5 -21.5t-18.5 -49.5q0 -27 14.5 -45.5t59.5 -42.5l56 -29q59 -31 81.5 -60t22.5 -80
q0 -62 -40.5 -99t-110.5 -37q-85 0 -150 48zM142 -286h-50q63 95 63 221h58q0 -135 -71 -221z" />
    <glyph glyph-name="uni021A" unicode="&#x21a;" horiz-adv-x="518" 
d="M286 0h-67v640h-195v66h459v-66h-197v-640zM211 -286h-50q63 95 63 221h58q0 -135 -71 -221z" />
    <glyph glyph-name="uni021B" unicode="&#x21b;" horiz-adv-x="309" 
d="M296 11q-38 -23 -95 -23q-38 0 -65.5 18.5t-36.5 55.5q-8 29 -8 105v274h-62v56h62v137h61v-137h119v-56h-119v-275q0 -50 6 -77q11 -45 64 -45q40 0 74 24v-57zM131 -286h-50q63 95 63 221h58q0 -135 -71 -221z" />
    <glyph glyph-name="circumflex" unicode="&#x2c6;" horiz-adv-x="156" 
d="M3 575h-56l109 163h45l108 -163h-56l-76 102z" />
    <glyph glyph-name="caron" unicode="&#x2c7;" horiz-adv-x="156" 
d="M154 743h55l-108 -163h-45l-109 163h57l76 -102z" />
    <glyph glyph-name="breve" unicode="&#x2d8;" horiz-adv-x="156" 
d="M-46 707h48q6 -90 75 -90q73 0 77 90h47q0 -62 -31.5 -101.5t-93.5 -39.5q-60 0 -90.5 38.5t-31.5 102.5z" />
    <glyph glyph-name="dotaccent" unicode="&#x2d9;" horiz-adv-x="156" 
d="M119 658q0 -19 -11 -30.5t-31 -11.5q-18 0 -29 12t-11 30t11.5 30t29.5 12q19 0 30 -12t11 -30z" />
    <glyph glyph-name="ring" unicode="&#x2da;" horiz-adv-x="156" 
d="M168 670q0 -38 -26 -64.5t-66 -26.5q-38 0 -63 26t-25 65q0 41 25.5 66t65.5 25t64.5 -25t24.5 -66zM136 671q0 28 -16 45t-44 17q-26 0 -42 -18t-16 -45q0 -26 16 -44.5t45 -18.5q26 0 41.5 18.5t15.5 45.5z" />
    <glyph glyph-name="ogonek" unicode="&#x2db;" horiz-adv-x="156" 
d="M158 15q-110 -74 -110 -146q0 -34 17.5 -52t47.5 -18t56 18v-42q-27 -21 -75 -21q-42 0 -69.5 26t-27.5 78q0 46 30.5 88t82.5 70z" />
    <glyph glyph-name="tilde" unicode="&#x2dc;" horiz-adv-x="161" 
d="M-12 598h-45q5 54 28.5 85.5t53.5 31.5q26 0 63 -29q36 -30 52 -30q29 0 36 60h43q-4 -57 -25.5 -86t-51.5 -29t-70 33q-31 24 -46 24q-30 0 -38 -60z" />
    <glyph glyph-name="hungarumlaut" unicode="&#x2dd;" horiz-adv-x="156" 
d="M-19 580h-55l105 167h70zM113 580h-56l106 167h71z" />
    <glyph glyph-name="uni0394" unicode="&#x394;" horiz-adv-x="632" 
d="M623 0h-615l275 707h67zM316 632q-34 -98 -218 -568h436q-176 450 -218 568z" />
    <glyph glyph-name="uni03A9" unicode="&#x3a9;" horiz-adv-x="646" 
d="M284 0h-230v62h182q-178 81 -178 316q0 154 73 245.5t196 91.5q120 0 189.5 -90t69.5 -240q0 -228 -176 -323h181v-62h-228v81q75 33 118 111t43 180q0 126 -54 202.5t-145 76.5q-93 0 -149 -75t-56 -206q0 -102 43 -180t121 -109v-81z" />
    <glyph glyph-name="uni03BC" unicode="&#x3bc;" horiz-adv-x="510" 
d="M140 -237h-60v734h60v-276q0 -89 11 -116q21 -59 94 -59q37 0 70 21.5t54 55.5v374h61v-497h-61v65q-18 -31 -53 -53t-76 -22q-74 0 -100 60v-287z" />
    <glyph glyph-name="pi" unicode="&#x3c0;" horiz-adv-x="523" 
d="M489 442h-61v-258q0 -116 20 -184h-62q-18 65 -18 182v260h-202v-442h-59v442h-60v54h442v-54z" />
    <glyph glyph-name="Wgrave" unicode="&#x1e80;" horiz-adv-x="865" 
d="M259 -3h-55l-194 709h72q125 -456 155 -588q16 62 171 588h52q163 -547 173 -588q31 143 154 588h68l-194 -709h-55q-149 499 -173 592q-18 -74 -174 -592zM495 760h-65l-145 136h89z" />
    <glyph glyph-name="wgrave" unicode="&#x1e81;" horiz-adv-x="667" 
d="M203 -3h-45l-146 500h67q86 -306 108 -397q22 78 124 397h47q105 -322 125 -397q19 79 106 397h67l-146 -500h-46q-124 377 -131 402q-19 -72 -130 -402zM389 580h-59l-126 167h79z" />
    <glyph glyph-name="Wacute" unicode="&#x1e82;" horiz-adv-x="865" 
d="M259 -3h-55l-194 709h72q125 -456 155 -588q16 62 171 588h52q163 -547 173 -588q31 143 154 588h68l-194 -709h-55q-149 499 -173 592q-18 -74 -174 -592zM439 760h-67l121 136h92z" />
    <glyph glyph-name="wacute" unicode="&#x1e83;" horiz-adv-x="667" 
d="M203 -3h-45l-146 500h67q86 -306 108 -397q22 78 124 397h47q105 -322 125 -397q19 79 106 397h67l-146 -500h-46q-124 377 -131 402q-19 -72 -130 -402zM340 580h-57l104 167h79z" />
    <glyph glyph-name="Wdieresis" unicode="&#x1e84;" horiz-adv-x="865" 
d="M259 -3h-55l-194 709h72q125 -456 155 -588q16 62 171 588h52q163 -547 173 -588q31 143 154 588h68l-194 -709h-55q-149 499 -173 592q-18 -74 -174 -592zM402 821q0 -19 -11 -30.5t-31 -11.5q-18 0 -29 12t-11 30t11.5 30t29.5 12q19 0 30 -12t11 -30zM552 821
q0 -19 -11 -30.5t-31 -11.5q-18 0 -29 12t-11 30t11.5 30t29.5 12q19 0 30 -12t11 -30z" />
    <glyph glyph-name="wdieresis" unicode="&#x1e85;" horiz-adv-x="667" 
d="M203 -3h-45l-146 500h67q86 -306 108 -397q22 78 124 397h47q105 -322 125 -397q19 79 106 397h67l-146 -500h-46q-124 377 -131 402q-19 -72 -130 -402zM305 658q0 -19 -11 -30.5t-31 -11.5q-18 0 -29 12t-11 30t11.5 30t29.5 12q19 0 30 -12t11 -30zM445 658
q0 -19 -11 -30.5t-31 -11.5q-18 0 -29 12t-11 30t11.5 30t29.5 12q19 0 30 -12t11 -30z" />
    <glyph glyph-name="Ygrave" unicode="&#x1ef2;" horiz-adv-x="548" 
d="M304 0h-68v297l-232 409h79l189 -340l199 340h73l-240 -409v-297zM328 760h-65l-145 136h89z" />
    <glyph glyph-name="ygrave" unicode="&#x1ef3;" horiz-adv-x="432" 
d="M173 -237h-65l88 247l-193 487h69q140 -362 154 -407q14 47 137 407h66zM269 580h-59l-126 167h79z" />
    <glyph glyph-name="endash" unicode="&#x2013;" horiz-adv-x="482" 
d="M440 236h-398v48h398v-48z" />
    <glyph glyph-name="emdash" unicode="&#x2014;" horiz-adv-x="770" 
d="M728 236h-686v48h686v-48z" />
    <glyph glyph-name="quoteleft" unicode="&#x2018;" horiz-adv-x="129" 
d="M90 747h51q-69 -103 -69 -237h-57q0 134 75 237z" />
    <glyph glyph-name="quoteright" unicode="&#x2019;" horiz-adv-x="130" 
d="M43 510h-51q69 104 69 237h58q0 -135 -76 -237z" />
    <glyph glyph-name="quotesinglbase" unicode="&#x201a;" horiz-adv-x="130" 
d="M43 -116h-51q69 103 69 237h58q0 -135 -76 -237z" />
    <glyph glyph-name="quotedblleft" unicode="&#x201c;" horiz-adv-x="278" 
d="M239 747h51q-69 -103 -69 -237h-58q0 135 76 237zM90 747h51q-69 -103 -69 -237h-57q0 134 75 237z" />
    <glyph glyph-name="quotedblright" unicode="&#x201d;" horiz-adv-x="278" 
d="M43 510h-51q69 104 69 237h58q0 -135 -76 -237zM192 510h-51q69 104 69 237h57q0 -134 -75 -237z" />
    <glyph glyph-name="quotedblbase" unicode="&#x201e;" horiz-adv-x="278" 
d="M43 -116h-51q69 103 69 237h58q0 -135 -76 -237zM192 -116h-51q69 103 69 237h57q0 -134 -75 -237z" />
    <glyph glyph-name="dagger" unicode="&#x2020;" horiz-adv-x="391" 
d="M223 217h-58v445h-140v58h140v180h58v-180h143v-58h-143v-445z" />
    <glyph glyph-name="daggerdbl" unicode="&#x2021;" horiz-adv-x="391" 
d="M223 217h-58v190h-140v58h140v197h-140v58h140v180h58v-180h143v-58h-143v-197h143v-58h-143v-190z" />
    <glyph glyph-name="bullet" unicode="&#x2022;" horiz-adv-x="298" 
d="M263 257q0 -50 -33 -82t-81 -32q-47 0 -80.5 31.5t-33.5 82.5q0 56 35 87t80 31q47 0 80 -30.5t33 -87.5z" />
    <glyph glyph-name="ellipsis" unicode="&#x2026;" horiz-adv-x="757" 
d="M189 45q0 -23 -14.5 -37.5t-37.5 -14.5q-22 0 -36 14.5t-14 35.5q0 23 14.5 38t37.5 15q22 0 36 -14.5t14 -36.5zM428 45q0 -23 -15 -37.5t-37 -14.5t-36 14.5t-14 35.5q0 23 14.5 38t37.5 15q22 0 36 -14.5t14 -36.5zM671 45q0 -23 -14.5 -37.5t-37.5 -14.5
q-22 0 -36 14.5t-14 35.5q0 23 14.5 38t37.5 15q22 0 36 -14.5t14 -36.5z" />
    <glyph glyph-name="perthousand" unicode="&#x2030;" horiz-adv-x="1062" 
d="M297 482q0 -92 -33 -149.5t-102 -57.5q-70 0 -103 58t-33 149q0 94 35 154t104 60q132 0 132 -214zM246 483q0 92 -22 128t-61 36q-84 0 -84 -166q0 -160 84 -160q83 0 83 162zM228 -12h-42l314 713h42zM702 200q0 -92 -32.5 -149.5t-102.5 -57.5t-103.5 58t-33.5 149
q0 94 35.5 154t104.5 60q132 0 132 -214zM651 201q0 92 -22 128t-61 36q-37 0 -61 -38.5t-24 -127.5q0 -160 85 -160q83 0 83 162zM1036 200q0 -92 -32.5 -149.5t-101.5 -57.5q-70 0 -103.5 58t-33.5 149q0 94 35.5 154t104.5 60q131 0 131 -214zM986 201q0 92 -22 128
t-61 36q-85 0 -85 -166q0 -160 85 -160q83 0 83 162z" />
    <glyph glyph-name="guilsinglleft" unicode="&#x2039;" horiz-adv-x="212" 
d="M196 74h-62l-114 184l113 184h63l-113 -184z" />
    <glyph glyph-name="guilsinglright" unicode="&#x203a;" horiz-adv-x="213" 
d="M16 442h62l115 -184l-114 -184h-63l112 184z" />
    <glyph glyph-name="fraction" unicode="&#x2044;" horiz-adv-x="81" 
d="M-96 -12h-42l314 713h42z" />
    <glyph glyph-name="zero.superior" unicode="&#x2070;" 
d="M298 620q0 -92 -33 -149.5t-103 -57.5t-103 58t-33 149q0 94 35 154t104 60q133 0 133 -214zM246 621q0 92 -22 128t-61 36q-36 0 -60 -38.5t-24 -127.5q0 -160 84 -160q83 0 83 162z" />
    <glyph glyph-name="four.superior" unicode="&#x2074;" 
d="M247 420h-51v116h-173v34l180 257h44v-250h54v-41h-54v-116zM196 577q0 154 1 182l-124 -182h123z" />
    <glyph glyph-name="five.superior" unicode="&#x2075;" 
d="M39 438v50q41 -28 98 -28q42 0 66 23.5t24 64.5q0 39 -23.5 60.5t-64.5 21.5q-48 0 -86 -19l19 216h186v-47h-149l-12 -121q20 10 60 10q52 0 86 -30t34 -90q0 -64 -36.5 -100t-101.5 -36q-63 0 -100 25z" />
    <glyph glyph-name="six.superior" unicode="&#x2076;" 
d="M80 613q10 28 37.5 47.5t63.5 19.5q49 0 80 -32t31 -95q0 -66 -34.5 -103t-91.5 -37q-61 0 -99 48.5t-38 152.5q0 110 45 165t113 55q53 0 84 -22v-53q-32 26 -80 26q-109 0 -111 -172zM84 570q2 -36 14 -65q20 -46 69 -46q32 0 53 24t21 70q0 87 -74 87
q-32 0 -54.5 -20.5t-28.5 -49.5z" />
    <glyph glyph-name="seven.superior" unicode="&#x2077;" 
d="M136 420h-53l142 359h-198v48h266z" />
    <glyph glyph-name="eight.superior" unicode="&#x2078;" 
d="M101 631q-63 25 -63 93q0 49 34.5 79.5t86.5 30.5q54 0 86 -28t32 -80q0 -31 -16 -56.5t-47 -36.5q74 -21 74 -100q0 -53 -36 -86.5t-96 -33.5q-55 0 -91.5 30.5t-36.5 85.5q0 35 19 62.5t54 39.5zM232 723q0 31 -19.5 49.5t-53.5 18.5q-32 0 -53 -18.5t-21 -50.5
q0 -31 19 -52.5t54 -21.5t54.5 20.5t19.5 54.5zM239 536q0 38 -22 57.5t-59 19.5t-59 -22t-22 -56q0 -39 24 -58.5t57 -19.5q34 0 57.5 20.5t23.5 58.5z" />
    <glyph glyph-name="nine.superior" unicode="&#x2079;" 
d="M235 633q-8 -28 -36.5 -46.5t-64.5 -18.5q-49 0 -80 31.5t-31 93.5q0 66 35 103.5t92 37.5q135 0 135 -201q0 -112 -43 -166t-115 -54q-56 0 -85 20v54q31 -25 83 -25q58 0 83.5 42.5t26.5 128.5zM231 677q0 37 -13 64q-21 47 -68 47q-33 0 -55 -24t-22 -70q0 -87 74 -87
q32 0 55 20.5t29 49.5z" />
    <glyph glyph-name="parenleft.superior" unicode="&#x207d;" horiz-adv-x="191" 
d="M149 326q-117 100 -117 266q0 176 117 270h48q-115 -99 -115 -269q0 -154 115 -267h-48z" />
    <glyph glyph-name="parenright.superior" unicode="&#x207e;" horiz-adv-x="191" 
d="M-5 862h47q117 -98 117 -267q0 -171 -117 -269h-47q114 104 114 268q0 159 -114 268z" />
    <glyph glyph-name="n.superior" unicode="&#x207f;" horiz-adv-x="322" 
d="M94 282h-47v295h46v-37q14 19 40 31.5t54 12.5q72 0 86 -63q4 -20 4 -77v-162h-47v161q0 48 -6 66q-10 31 -53 31q-52 0 -77 -42v-216z" />
    <glyph glyph-name="zero.inferior" unicode="&#x2080;" 
d="M298 74q0 -92 -33 -149.5t-103 -57.5t-103 58t-33 149q0 94 35 154t104 60q133 0 133 -214zM246 75q0 92 -22 128t-61 36q-36 0 -60 -38.5t-24 -127.5q0 -160 84 -160q83 0 83 162z" />
    <glyph glyph-name="one.inferior" unicode="&#x2081;" 
d="M197 -126h-52v344l-75 -40v51l127 62v-417z" />
    <glyph glyph-name="two.inferior" unicode="&#x2082;" 
d="M289 -126h-267q108 126 150 184q41 58 41 103q0 78 -74 78q-50 0 -100 -42v48q50 43 111 43q56 0 85.5 -30.5t29.5 -84.5q0 -67 -48 -132q-31 -44 -101 -121q34 1 173 1v-47z" />
    <glyph glyph-name="three.inferior" unicode="&#x2083;" 
d="M36 -108v50q40 -28 100 -28q44 0 64.5 22t20.5 57q0 25 -15 43.5t-45 23.5q-20 4 -53 4h-11v42h12q38 0 51 6q46 18 46 62q0 67 -71 67q-50 0 -92 -32v46q42 33 102 33q54 0 83.5 -27.5t29.5 -77.5q0 -31 -19 -57.5t-59 -36.5q45 -7 68.5 -33.5t23.5 -66.5
q0 -55 -36 -88.5t-102 -33.5q-63 0 -98 25z" />
    <glyph glyph-name="four.inferior" unicode="&#x2084;" 
d="M247 -126h-51v116h-173v34l180 257h44v-250h54v-41h-54v-116zM196 31q0 154 1 182l-124 -182h123z" />
    <glyph glyph-name="five.inferior" unicode="&#x2085;" 
d="M39 -108v50q41 -28 98 -28q42 0 66 23.5t24 64.5q0 39 -23.5 60.5t-64.5 21.5q-48 0 -86 -19l19 216h186v-47h-149l-12 -121q20 10 60 10q52 0 86 -30t34 -90q0 -64 -36.5 -100t-101.5 -36q-63 0 -100 25z" />
    <glyph glyph-name="six.inferior" unicode="&#x2086;" 
d="M80 67q10 28 37.5 47.5t63.5 19.5q49 0 80 -32t31 -95q0 -66 -34.5 -103t-91.5 -37q-61 0 -99 48.5t-38 152.5q0 110 45 165t113 55q53 0 84 -22v-53q-32 26 -80 26q-109 0 -111 -172zM84 24q2 -36 14 -65q20 -46 69 -46q32 0 53 24t21 70q0 87 -74 87q-32 0 -54.5 -20.5
t-28.5 -49.5z" />
    <glyph glyph-name="seven.inferior" unicode="&#x2087;" 
d="M136 -126h-53l142 359h-198v48h266z" />
    <glyph glyph-name="eight.inferior" unicode="&#x2088;" 
d="M101 85q-63 25 -63 93q0 49 34.5 79.5t86.5 30.5q54 0 86 -28t32 -80q0 -31 -16 -56.5t-47 -36.5q74 -21 74 -100q0 -53 -36 -86.5t-96 -33.5q-55 0 -91.5 30.5t-36.5 85.5q0 35 19 62.5t54 39.5zM232 177q0 31 -19.5 49.5t-53.5 18.5q-32 0 -53 -18.5t-21 -50.5
q0 -31 19 -52.5t54 -21.5t54.5 20.5t19.5 54.5zM239 -10q0 38 -22 57.5t-59 19.5t-59 -22t-22 -56q0 -39 24 -58.5t57 -19.5q34 0 57.5 20.5t23.5 58.5z" />
    <glyph glyph-name="nine.inferior" unicode="&#x2089;" 
d="M235 87q-8 -28 -36.5 -46.5t-64.5 -18.5q-49 0 -80 31.5t-31 93.5q0 66 35 103.5t92 37.5q135 0 135 -201q0 -112 -43 -166t-115 -54q-56 0 -85 20v54q31 -25 83 -25q58 0 83.5 42.5t26.5 128.5zM231 131q0 37 -13 64q-21 47 -68 47q-33 0 -55 -24t-22 -70q0 -87 74 -87
q32 0 55 20.5t29 49.5z" />
    <glyph glyph-name="parenleft.inferior" unicode="&#x208d;" horiz-adv-x="191" 
d="M149 -220q-117 100 -117 266q0 176 117 270h48q-115 -99 -115 -269q0 -154 115 -267h-48z" />
    <glyph glyph-name="parenright.inferior" unicode="&#x208e;" horiz-adv-x="191" 
d="M-5 316h47q117 -98 117 -267q0 -171 -117 -269h-47q114 104 114 268q0 159 -114 268z" />
    <glyph glyph-name="Euro" unicode="&#x20ac;" horiz-adv-x="610" 
d="M429 259h-218q15 -103 64 -156t124 -53q92 0 161 57v-66q-66 -52 -169 -52t-167 71t-80 199h-70v44h66q-1 13 -1 42q0 17 2 51h-67v45h71q18 127 84 201.5t169 74.5q108 0 164 -55v-72q-58 64 -159 64q-79 0 -128 -56t-64 -157h218v-45h-223q-1 -16 -1 -49q0 -30 1 -44
h223v-44z" />
    <glyph glyph-name="afii61289" unicode="&#x2113;" horiz-adv-x="403" 
d="M367 33q-53 -45 -125 -45q-121 0 -143 191l-64 -51v62q45 37 55 46q-7 93 -7 151q0 314 154 314q53 0 82.5 -36.5t29.5 -96.5q0 -98 -50.5 -180t-142.5 -170q11 -172 99 -172q57 0 112 50v-63zM148 283q143 149 143 284q0 80 -57 80q-91 0 -91 -243q0 -56 5 -121z" />
    <glyph glyph-name="trademark" unicode="&#x2122;" horiz-adv-x="791" 
d="M207 328h-51v328h-103v50h257v-50h-103v-328zM423 328h-50v378h52l52.5 -87.5l36 -59.5l20.5 -35q6 12 110 182h51v-378h-50q0 124 0.5 208.5t0.5 86.5l-114 -180l-110 180q1 -44 1 -295z" />
    <glyph glyph-name="Omega" unicode="&#x2126;" horiz-adv-x="646" 
d="M284 0h-230v62h182q-178 81 -178 316q0 154 73 245.5t196 91.5q120 0 189.5 -90t69.5 -240q0 -228 -176 -323h181v-62h-228v81q75 33 118 111t43 180q0 126 -54 202.5t-145 76.5q-93 0 -149 -75t-56 -206q0 -102 43 -180t121 -109v-81z" />
    <glyph glyph-name="estimated" unicode="&#x212e;" horiz-adv-x="855" 
d="M818 336h-629q-6 0 -6 -5v-195q0 -10 10 -22q93 -103 238 -103q151 0 250 115h58q-55 -64 -136 -101t-173 -37q-161 0 -274.5 104.5t-113.5 252.5t113.5 252t274.5 104t274.5 -104t113.5 -252v-9zM677 361v195q0 13 -11 24q-94 96 -235 96q-143 0 -237 -100
q-11 -13 -11 -24v-191q0 -5 6 -5h483q5 0 5 5z" />
    <glyph glyph-name="onethird" unicode="&#x2153;" horiz-adv-x="719" 
d="M199 -12h-42l314 713h42zM197 282h-52v344l-75 -40v51l127 62v-417zM429 18v50q40 -28 100 -28q44 0 64.5 22t20.5 57q0 25 -15 43.5t-45 23.5q-20 4 -53 4h-11v42h12q38 0 51 6q46 18 46 62q0 67 -71 67q-50 0 -92 -32v46q42 33 102 33q54 0 83.5 -27.5t29.5 -77.5
q0 -31 -19 -57.5t-59 -36.5q45 -7 68.5 -33.5t23.5 -66.5q0 -55 -36 -88.5t-102 -33.5q-63 0 -98 25z" />
    <glyph glyph-name="twothirds" unicode="&#x2154;" horiz-adv-x="719" 
d="M257 -12h-42l314 713h42zM304 282h-267q108 126 150 184q41 58 41 103q0 78 -74 78q-50 0 -100 -42v48q50 43 111 43q56 0 85.5 -30.5t29.5 -84.5q0 -67 -48 -132q-31 -44 -101 -121q34 1 173 1v-47zM467 18v50q40 -28 100 -28q44 0 64.5 22t20.5 57q0 25 -15 43.5
t-45 23.5q-20 4 -53 4h-11v42h12q38 0 51 6q46 18 46 62q0 67 -71 67q-50 0 -92 -32v46q42 33 102 33q54 0 83.5 -27.5t29.5 -77.5q0 -31 -19 -57.5t-59 -36.5q45 -7 68.5 -33.5t23.5 -66.5q0 -55 -36 -88.5t-102 -33.5q-63 0 -98 25z" />
    <glyph glyph-name="oneeighth" unicode="&#x215b;" horiz-adv-x="719" 
d="M200 -12h-42l314 713h42zM186 282h-52v344l-75 -40v51l127 62v-417zM494 211q-63 25 -63 93q0 49 34.5 79.5t86.5 30.5q54 0 86 -28t32 -80q0 -31 -16 -56.5t-47 -36.5q74 -21 74 -100q0 -53 -36 -86.5t-96 -33.5q-55 0 -91.5 30.5t-36.5 85.5q0 35 19 62.5t54 39.5z
M625 303q0 31 -19.5 49.5t-53.5 18.5q-32 0 -53 -18.5t-21 -50.5q0 -31 19 -52.5t54 -21.5t54.5 20.5t19.5 54.5zM632 116q0 38 -22 57.5t-59 19.5t-59 -22t-22 -56q0 -39 24 -58.5t57 -19.5q34 0 57.5 20.5t23.5 58.5z" />
    <glyph glyph-name="threeeighths" unicode="&#x215c;" horiz-adv-x="719" 
d="M231 -12h-42l314 713h42zM53 300v50q40 -28 100 -28q44 0 64.5 22t20.5 57q0 25 -15 43.5t-45 23.5q-20 4 -53 4h-11v42h12q38 0 51 6q46 18 46 62q0 67 -71 67q-50 0 -92 -32v46q42 33 102 33q54 0 83.5 -27.5t29.5 -77.5q0 -31 -19 -57.5t-59 -36.5q45 -7 68.5 -33.5
t23.5 -66.5q0 -55 -36 -88.5t-102 -33.5q-63 0 -98 25zM506 211q-63 25 -63 93q0 49 34.5 79.5t86.5 30.5q54 0 86 -28t32 -80q0 -31 -16 -56.5t-47 -36.5q74 -21 74 -100q0 -53 -36 -86.5t-96 -33.5q-55 0 -91.5 30.5t-36.5 85.5q0 35 19 62.5t54 39.5zM637 303
q0 31 -19.5 49.5t-53.5 18.5q-32 0 -53 -18.5t-21 -50.5q0 -31 19 -52.5t54 -21.5t54.5 20.5t19.5 54.5zM644 116q0 38 -22 57.5t-59 19.5t-59 -22t-22 -56q0 -39 24 -58.5t57 -19.5q34 0 57.5 20.5t23.5 58.5z" />
    <glyph glyph-name="fiveeighths" unicode="&#x215d;" horiz-adv-x="719" 
d="M223 -12h-42l314 713h42zM45 300v50q41 -28 98 -28q42 0 66 23.5t24 64.5q0 39 -23.5 60.5t-64.5 21.5q-48 0 -86 -19l19 216h186v-47h-149l-12 -121q20 10 60 10q52 0 86 -30t34 -90q0 -64 -36.5 -100t-101.5 -36q-63 0 -100 25zM497 211q-63 25 -63 93q0 49 34.5 79.5
t86.5 30.5q54 0 86 -28t32 -80q0 -31 -16 -56.5t-47 -36.5q74 -21 74 -100q0 -53 -36 -86.5t-96 -33.5q-55 0 -91.5 30.5t-36.5 85.5q0 35 19 62.5t54 39.5zM628 303q0 31 -19.5 49.5t-53.5 18.5q-32 0 -53 -18.5t-21 -50.5q0 -31 19 -52.5t54 -21.5t54.5 20.5t19.5 54.5z
M635 116q0 38 -22 57.5t-59 19.5t-59 -22t-22 -56q0 -39 24 -58.5t57 -19.5q34 0 57.5 20.5t23.5 58.5z" />
    <glyph glyph-name="seveneighths" unicode="&#x215e;" horiz-adv-x="719" 
d="M198 -12h-42l314 713h42zM155 282h-53l142 359h-198v48h266zM481 211q-63 25 -63 93q0 49 34.5 79.5t86.5 30.5q54 0 86 -28t32 -80q0 -31 -16 -56.5t-47 -36.5q74 -21 74 -100q0 -53 -36 -86.5t-96 -33.5q-55 0 -91.5 30.5t-36.5 85.5q0 35 19 62.5t54 39.5zM612 303
q0 31 -19.5 49.5t-53.5 18.5q-32 0 -53 -18.5t-21 -50.5q0 -31 19 -52.5t54 -21.5t54.5 20.5t19.5 54.5zM619 116q0 38 -22 57.5t-59 19.5t-59 -22t-22 -56q0 -39 24 -58.5t57 -19.5q34 0 57.5 20.5t23.5 58.5z" />
    <glyph glyph-name="arrowleft" unicode="&#x2190;" horiz-adv-x="783" 
d="M749 384v-63q-522 0 -610 2q43 -38 280 -277l-41 -43l-350 350l350 349l41 -44q-265 -261 -281 -275q93 1 611 1z" />
    <glyph glyph-name="arrowup" unicode="&#x2191;" horiz-adv-x="783" 
d="M424 0h-64q0 521 1 608q-37 -42 -277 -279l-42 41l350 351l349 -351l-43 -41l-275 279q1 -92 1 -608z" />
    <glyph glyph-name="arrowright" unicode="&#x2192;" horiz-adv-x="783" 
d="M34 321v63q518 0 611 -1q-16 14 -281 275l41 44l350 -349l-350 -350l-41 43q237 239 280 277q-88 -2 -610 -2z" />
    <glyph glyph-name="arrowdown" unicode="&#x2193;" horiz-adv-x="783" 
d="M360 706h64q0 -516 -1 -608l275 279l43 -41l-349 -351l-350 351l42 41q240 -237 277 -279q-1 87 -1 608z" />
    <glyph glyph-name="uni2196" unicode="&#x2196;" horiz-adv-x="783" 
d="M671 110l-45 -46l-427 428q0 -6 0.5 -45.5t0.5 -128.5v-216h-61v495h495v-59q-365 0 -395 1z" />
    <glyph glyph-name="uni2197" unicode="&#x2197;" horiz-adv-x="783" 
d="M157 64l-45 46l432 429q-30 -1 -395 -1v59h495v-495h-61q0 127 0.5 216t0.5 128.5v45.5z" />
    <glyph glyph-name="uni2198" unicode="&#x2198;" horiz-adv-x="783" 
d="M112 596l45 46l428 -428q-2 62 -2 390h61v-495h-495v59q366 0 396 -1q-83 78 -433 429z" />
    <glyph glyph-name="uni2199" unicode="&#x2199;" horiz-adv-x="783" 
d="M626 650l45 -46l-432 -430q30 1 395 1v-59h-495v495h61v-216t-0.5 -128t-0.5 -45z" />
    <glyph glyph-name="partialdiff" unicode="&#x2202;" horiz-adv-x="508" 
d="M382 315q-20 31 -55 47.5t-73 16.5q-60 0 -98.5 -47t-38.5 -127q0 -78 36 -120t90 -42q43 0 78.5 31.5t49.5 93.5q11 48 11 147zM119 619l-14 49q58 32 137 32q108 0 153.5 -98.5t45.5 -306.5q0 -143 -50.5 -225t-149.5 -82q-81 0 -131 58t-50 158q0 106 53 165.5
t138 59.5q79 0 128 -52q-5 130 -38 201t-107 71q-64 0 -115 -30z" />
    <glyph glyph-name="Delta" unicode="&#x2206;" horiz-adv-x="632" 
d="M623 0h-615l275 707h67zM316 632q-34 -98 -218 -568h436q-176 450 -218 568z" />
    <glyph glyph-name="product" unicode="&#x220f;" horiz-adv-x="630" 
d="M546 -101h-65v741h-333v-741h-65v807h463v-807z" />
    <glyph glyph-name="summation" unicode="&#x2211;" horiz-adv-x="516" 
d="M496 -101h-473l254 421l-239 386h443v-66h-329l199 -320l-216 -355h361v-66z" />
    <glyph glyph-name="minus" unicode="&#x2212;" horiz-adv-x="684" 
d="M586 270h-488v50h488v-50z" />
    <glyph glyph-name="uni2215" unicode="&#x2215;" horiz-adv-x="81" 
d="M-96 -12h-42l314 713h42z" />
    <glyph glyph-name="uni2219" unicode="&#x2219;" horiz-adv-x="181" 
d="M143 261q0 -22 -13 -36.5t-33 -14.5t-32.5 14t-12.5 35q0 22 13.5 36t33.5 14q19 0 31.5 -13.5t12.5 -34.5z" />
    <glyph glyph-name="radical" unicode="&#x221a;" horiz-adv-x="628" 
d="M361 -178h-41l-165 300l-64 -38l-17 34l107 64l157 -287l176 811h46z" />
    <glyph glyph-name="infinity" unicode="&#x221e;" horiz-adv-x="712" 
d="M357 325q43 56 83 83t86 27q59 0 95 -40t36 -103q0 -65 -37.5 -106.5t-97.5 -41.5q-44 0 -80 25.5t-84 83.5q-49 -59 -86.5 -84t-82.5 -25q-60 0 -97.5 39t-37.5 103q0 65 39 107t101 42q44 0 79.5 -25t83.5 -85zM329 288q-32 41 -47.5 58.5t-39 31t-50.5 13.5
q-42 0 -68.5 -28t-26.5 -73q0 -44 26 -72.5t67 -28.5q40 0 70.5 24t68.5 75zM384 290q42 -55 73 -78t67 -23q38 0 64 27.5t26 70.5q0 46 -24.5 75t-65.5 29q-64 0 -140 -101z" />
    <glyph glyph-name="integral" unicode="&#x222b;" horiz-adv-x="295" 
d="M135 -41q0 43 -2 91l-16 457q-3 78 -3 81q0 120 104 120q30 0 53 -9v-50q-30 10 -50 10q-26 0 -40.5 -16t-14.5 -61q0 -27 2 -73l16 -457q0 -2 2 -39.5t2 -55.5q0 -62 -25.5 -89.5t-78.5 -27.5q-22 0 -47 10v53q24 -13 48 -13t37 14.5t13 54.5z" />
    <glyph glyph-name="approxequal" unicode="&#x2248;" horiz-adv-x="684" 
d="M122 130l-35 25q40 59 75.5 83.5t75.5 24.5t117 -48q58 -37 98 -37q31 0 55 19.5t53 67.5l36 -23q-34 -59 -67 -87t-80 -28q-44 0 -115 42q-69 42 -102 42q-56 0 -111 -81zM122 332l-35 26q40 59 75.5 83.5t75.5 24.5q38 0 117 -49q59 -36 98 -36q31 0 55 19t53 67
l36 -23q-34 -59 -67 -86.5t-80 -27.5q-46 0 -115 42q-69 41 -102 41q-57 0 -111 -81z" />
    <glyph glyph-name="notequal" unicode="&#x2260;" horiz-adv-x="684" 
d="M224 4h-43l80 164h-163v49h185l75 156h-260v49h283l71 148h44l-72 -148h162v-49h-184l-75 -156h259v-49h-282z" />
    <glyph glyph-name="lessequal" unicode="&#x2264;" horiz-adv-x="684" 
d="M555 125l-441 205v45l441 211v-57l-385 -175l385 -171v-58zM555 0h-441v50h441v-50z" />
    <glyph glyph-name="greaterequal" unicode="&#x2265;" horiz-adv-x="684" 
d="M129 586l441 -206v-44l-441 -211v57l385 175l-385 171v58zM570 0h-441v50h441v-50z" />
    <glyph glyph-name="lozenge" unicode="&#x25ca;" horiz-adv-x="690" 
d="M321 706h48l177 -351l-177 -355h-48l-178 354zM196 354l151 -297l145 298l-146 295z" />
    <glyph glyph-name="commaaccent" unicode="&#xf6c3;" horiz-adv-x="152" 
d="M68 -286h-50q63 95 63 221h58q0 -135 -71 -221z" />
    <glyph glyph-name="Dotlessi" horiz-adv-x="243" 
d="M155 0h-67v706h67v-706z" />
    <glyph glyph-name="Euro.denominator" horiz-adv-x="395" 
d="M279 149h-133q21 -109 115 -109q57 0 100 32v-48q-40 -30 -107 -30q-65 0 -106.5 40.5t-52.5 114.5h-44v31h40v24q0 18 1 27h-41v31h44q12 74 54.5 117t107.5 43q69 0 104 -32v-53q-34 37 -100 37q-93 0 -114 -112h132v-31h-136q-1 -9 -1 -27q0 -17 1 -24h136v-31z" />
    <glyph glyph-name="Euro.inferior" horiz-adv-x="395" 
d="M279 23h-133q21 -109 115 -109q57 0 100 32v-48q-40 -30 -107 -30q-65 0 -106.5 40.5t-52.5 114.5h-44v31h40v24q0 18 1 27h-41v31h44q12 74 54.5 117t107.5 43q69 0 104 -32v-53q-34 37 -100 37q-93 0 -114 -112h132v-31h-136q-1 -9 -1 -27q0 -17 1 -24h136v-31z" />
    <glyph glyph-name="Euro.numerator" horiz-adv-x="395" 
d="M279 431h-133q21 -109 115 -109q57 0 100 32v-48q-40 -30 -107 -30q-65 0 -106.5 40.5t-52.5 114.5h-44v31h40v24q0 18 1 27h-41v31h44q12 74 54.5 117t107.5 43q69 0 104 -32v-53q-34 37 -100 37q-93 0 -114 -112h132v-31h-136q-1 -9 -1 -27q0 -17 1 -24h136v-31z" />
    <glyph glyph-name="Euro.oldstyle" horiz-adv-x="590" 
d="M410 217h-201q15 -84 60 -126t113 -42q85 0 151 48v-65q-62 -43 -158 -43q-94 0 -154 60t-77 168h-66v42h61q-1 13 -1 40q0 16 2 46h-62v43h67q19 108 80.5 170.5t156.5 62.5t152 -45v-70q-54 54 -147 54q-72 0 -117.5 -45t-60.5 -127h201v-43h-206q-2 -30 -2 -45
q0 -28 1 -41h207v-42z" />
    <glyph glyph-name="Euro.superior" horiz-adv-x="395" 
d="M279 569h-133q21 -109 115 -109q57 0 100 32v-48q-40 -30 -107 -30q-65 0 -106.5 40.5t-52.5 114.5h-44v31h40v24q0 18 1 27h-41v31h44q12 74 54.5 117t107.5 43q69 0 104 -32v-53q-34 37 -100 37q-93 0 -114 -112h132v-31h-136q-1 -9 -1 -27q0 -17 1 -24h136v-31z" />
    <glyph glyph-name="Kgreenlandic" horiz-adv-x="590" 
d="M596 747h51q-70 -113 -70 -257h-61q0 159 80 257zM155 0h-67v706h67v-322l266 322h85l-287 -335l319 -371h-89l-294 348v-348z" />
    <glyph glyph-name="S_S" horiz-adv-x="953" 
d="M45 50v82q38 -39 91 -59.5t102 -20.5q69 0 101.5 34t32.5 87q0 44 -24 73t-88 62l-78 40q-75 38 -104.5 81t-29.5 108q0 85 52 133.5t145 48.5q95 0 162 -47v-79q-76 62 -167 62q-62 0 -92.5 -33.5t-30.5 -83.5q0 -48 22 -73.5t74 -51.5l77 -40q90 -46 121.5 -90
t31.5 -106q0 -87 -55 -138t-154 -51q-114 0 -189 62zM520 50v82q38 -39 91 -59.5t102 -20.5q69 0 101.5 34t32.5 87q0 44 -24 73t-88 62l-78 40q-75 38 -104.5 81t-29.5 108q0 85 52 133.5t145 48.5q95 0 162 -47v-79q-76 62 -167 62q-62 0 -92.5 -33.5t-30.5 -83.5
q0 -48 22 -73.5t74 -51.5l77 -40q90 -46 121.5 -90t31.5 -106q0 -87 -55 -138t-154 -51q-114 0 -189 62z" />
    <glyph glyph-name="a.sc" horiz-adv-x="452" 
d="M69 0h-65l193 529h58l193 -529h-67l-59 161h-194zM148 220h157q-72 205 -79 228z" />
    <glyph glyph-name="a.superior" horiz-adv-x="288" 
d="M241 282h-44v32q-35 -38 -86 -38q-39 0 -61 23.5t-22 59.5q0 46 33 68q40 25 135 32v10q0 34 -12 50q-14 22 -49 22q-57 0 -93 -36v42q36 37 97 37q68 0 91 -47q11 -25 11 -78v-177zM196 343v83q-75 -6 -105 -26q-20 -11 -20 -39q0 -19 13 -33.5t41 -14.5q41 0 71 30z
" />
    <glyph glyph-name="aacute.sc" horiz-adv-x="452" 
d="M69 0h-65l193 529h58l193 -529h-67l-59 161h-194zM148 220h157q-72 205 -79 228zM231 592h-57l104 168h79z" />
    <glyph glyph-name="abreve.sc" horiz-adv-x="452" 
d="M69 0h-65l193 529h58l193 -529h-67l-59 161h-194zM148 220h157q-72 205 -79 228zM101 719h49q4 -90 75 -90q73 0 77 90h47q-1 -62 -32.5 -101.5t-92.5 -39.5q-60 0 -90.5 38t-32.5 103z" />
    <glyph glyph-name="acircumflex.sc" horiz-adv-x="452" 
d="M69 0h-65l193 529h58l193 -529h-67l-59 161h-194zM148 220h157q-72 205 -79 228zM151 588h-56l109 163h45l108 -163h-56l-76 101z" />
    <glyph glyph-name="acute.cap" horiz-adv-x="161" 
d="M43 760h-67l121 136h92z" />
    <glyph glyph-name="acute.sc" horiz-adv-x="161" 
d="M47 592h-57l104 168h79z" />
    <glyph glyph-name="adieresis.sc" horiz-adv-x="452" 
d="M69 0h-65l193 529h58l193 -529h-67l-59 161h-194zM148 220h157q-72 205 -79 228zM201 671q0 -19 -11 -30.5t-31 -11.5q-18 0 -29 12t-11 30t11.5 30t29.5 12q19 0 30 -12t11 -30zM341 671q0 -19 -11 -30.5t-31 -11.5q-18 0 -29 12t-11 30t11.5 30t29.5 12q19 0 30 -12
t11 -30z" />
    <glyph glyph-name="ae.sc" horiz-adv-x="701" 
d="M76 0h-75l354 527h307v-60h-215v-165h201v-58h-201v-184h227v-60h-289v162h-200zM219 220h166v251q-35 -56 -166 -251z" />
    <glyph glyph-name="aeacute.sc" horiz-adv-x="701" 
d="M76 0h-75l354 527h307v-60h-215v-165h201v-58h-201v-184h227v-60h-289v162h-200zM219 220h166v251q-35 -56 -166 -251zM492 592h-57l104 168h79z" />
    <glyph glyph-name="agrave.sc" horiz-adv-x="452" 
d="M69 0h-65l193 529h58l193 -529h-67l-59 161h-194zM148 220h157q-72 205 -79 228zM278 592h-59l-126 168h79z" />
    <glyph glyph-name="amacron.sc" horiz-adv-x="452" 
d="M69 0h-65l193 529h58l193 -529h-67l-59 161h-194zM148 220h157q-72 205 -79 228zM339 619h-226v56h226v-56z" />
    <glyph glyph-name="ampersand.sc" horiz-adv-x="530" 
d="M435 0l-58 58q-79 -68 -172 -68q-76 0 -121.5 42t-45.5 110q0 58 29.5 93t96.5 64q-44 60 -44 119q0 53 36.5 86.5t99.5 33.5q54 0 86.5 -27.5t32.5 -77.5q0 -52 -30 -84.5t-92 -64.5q54 -65 133 -144q27 27 75 100l52 -36q-41 -63 -86 -108q15 -17 48 -50.5t44 -45.5
h-84zM223 323q94 45 94 105q0 26 -16 42.5t-46 16.5q-73 0 -73 -67q0 -49 41 -97zM194 258q-51 -22 -72 -47t-21 -67q0 -36 25.5 -65.5t83.5 -29.5q71 0 126 49q-73 76 -142 160z" />
    <glyph glyph-name="aogonek.sc" horiz-adv-x="452" 
d="M255 529l193 -529h-22q-88 -66 -88 -131q0 -34 17.5 -52t47.5 -18t56 18v-42q-27 -21 -75 -21q-42 0 -69.5 26t-27.5 78q0 87 92 145l-57 158h-194l-59 -161h-65l193 529h58zM148 220h157q-72 205 -79 228z" />
    <glyph glyph-name="aring.sc" horiz-adv-x="452" 
d="M69 0h-65l193 529h58l193 -529h-67l-59 161h-194zM148 220h157q-72 205 -79 228zM316 683q0 -39 -26 -65t-66 -26q-38 0 -63 26t-25 65q0 41 25.5 66t65.5 25t64.5 -25t24.5 -66zM284 684q0 28 -16 45t-44 17q-26 0 -42 -18t-16 -45q0 -26 16 -44.5t45 -18.5
q26 0 41.5 18.5t15.5 45.5z" />
    <glyph glyph-name="aringacute.sc" horiz-adv-x="452" 
d="M69 0h-65l193 529h58l193 -529h-67l-60 164h-192zM146 217h160l-41 118l-26.5 75.5t-12.5 37.5zM316 682q0 -38 -26 -64.5t-66 -26.5q-38 0 -63 26t-25 65q0 41 25.5 66t65.5 25t64.5 -25t24.5 -66zM284 683q0 28 -16 45t-44 17q-26 0 -42 -18t-16 -45q0 -26 16 -44.5
t45 -18.5q26 0 41.5 18.5t15.5 45.5zM235 813h-52l98 155h74z" />
    <glyph glyph-name="atilde.sc" horiz-adv-x="452" 
d="M69 0h-65l193 529h58l193 -529h-67l-59 161h-194zM148 220h157q-72 205 -79 228zM130 611h-45q5 54 28.5 85.5t53.5 31.5q26 0 63 -29q36 -30 52 -30q29 0 36 60h43q-4 -57 -25.5 -86t-51.5 -29t-70 33q-29 24 -46 24q-30 0 -38 -60z" />
    <glyph glyph-name="b.sc" horiz-adv-x="456" 
d="M78 0v527h140q60 0 91 -15q73 -33 73 -113q0 -42 -20.5 -74t-58.5 -47q112 -17 112 -128q0 -90 -68 -128q-38 -22 -123 -22h-146zM140 57h80q63 0 86 12q45 23 45 85q0 64 -59 82q-32 9 -71 9h-81v-188zM140 300h78q47 0 69 16q34 24 34 72q0 50 -33 69q-27 15 -73 15
h-75v-172z" />
    <glyph glyph-name="b.superior" horiz-adv-x="322" 
d="M47 298v425h46v-179q34 40 86 40q56 0 86 -39.5t30 -108.5q0 -78 -38 -119.5t-101 -41.5q-57 0 -109 23zM94 327q28 -13 67 -13q38 0 62 29.5t24 87.5t-23 85t-57 27q-45 0 -73 -38v-178z" />
    <glyph glyph-name="braceleft.cap" horiz-adv-x="282" 
d="M274 -72h-28q-78 0 -107 31q-30 31 -30 117v93q0 89 -24 123q-16 26 -64 31v43q54 8 71 40q17 33 17 112v96q0 71 27 108q28 39 114 39h24v-42h-31q-40 0 -60 -29q-17 -25 -17 -79v-93q0 -106 -26 -139q-15 -19 -54 -35q32 -6 49 -26q31 -34 31 -147v-94q0 -56 18 -82
q19 -26 62 -26h28v-41z" />
    <glyph glyph-name="braceright.cap" horiz-adv-x="282" 
d="M8 761h28q77 0 107 -32q30 -30 30 -116v-93q0 -89 23 -123q19 -27 65 -32v-42q-55 -8 -72 -41q-16 -31 -16 -111v-97q0 -68 -28 -107t-114 -39h-23v41h31q39 0 60 29q16 25 16 80v92q0 102 27 139q15 21 53 35q-31 6 -49 26q-31 35 -31 147v95q0 58 -18 82q-19 25 -61 25
h-28v42z" />
    <glyph glyph-name="bracketleft.cap" horiz-adv-x="230" 
d="M222 -64h-154v821h154v-41h-96v-739h96v-41z" />
    <glyph glyph-name="bracketright.cap" horiz-adv-x="230" 
d="M8 757h154v-821h-154v41h96v739h-96v41z" />
    <glyph glyph-name="breve.cap" horiz-adv-x="161" 
d="M-49 895h49q4 -81 80 -81q79 0 83 81h48q-1 -60 -34.5 -96.5t-97.5 -36.5q-62 0 -94.5 35.5t-33.5 97.5z" />
    <glyph glyph-name="breve.sc" horiz-adv-x="156" 
d="M-46 719h49q4 -90 75 -90q72 0 77 90h47q-1 -62 -32.5 -101.5t-92.5 -39.5q-60 0 -90.5 38t-32.5 103z" />
    <glyph glyph-name="bullet.cap" horiz-adv-x="298" 
d="M263 327q0 -50 -33 -82t-81 -32q-47 0 -80.5 31.5t-33.5 82.5q0 56 35 87t80 31q47 0 80 -30.5t33 -87.5z" />
    <glyph glyph-name="c.sc" horiz-adv-x="468" 
d="M433 35q-62 -46 -157 -46q-103 0 -169 74.5t-66 196.5t66.5 200t173.5 78q100 0 154 -43v-71q-53 54 -146 54q-85 0 -135 -59t-50 -159q0 -98 52.5 -154t133.5 -56q82 0 143 50v-65z" />
    <glyph glyph-name="cacute.sc" horiz-adv-x="468" 
d="M433 35q-62 -46 -157 -46q-103 0 -169 74.5t-66 196.5t66.5 200t173.5 78q100 0 154 -43v-71q-53 54 -146 54q-85 0 -135 -59t-50 -159q0 -98 52.5 -154t133.5 -56q82 0 143 50v-65zM278 592h-57l104 168h79z" />
    <glyph glyph-name="caron.alt" horiz-adv-x="154" 
d="M67 541h-49q62 96 62 221h58q0 -133 -71 -221z" />
    <glyph glyph-name="caron.cap" horiz-adv-x="161" 
d="M163 896h59l-116 -136h-48l-117 136h60l82 -78z" />
    <glyph glyph-name="caron.sc" horiz-adv-x="156" 
d="M154 753h55l-108 -163h-45l-109 163h57l76 -102z" />
    <glyph glyph-name="ccaron.sc" horiz-adv-x="468" 
d="M433 35q-62 -46 -157 -46q-103 0 -169 74.5t-66 196.5t66.5 200t173.5 78q100 0 154 -43v-71q-53 54 -146 54q-85 0 -135 -59t-50 -159q0 -98 52.5 -154t133.5 -56q82 0 143 50v-65zM351 753h55l-108 -163h-45l-109 163h57l76 -102z" />
    <glyph glyph-name="ccedilla.sc" horiz-adv-x="468" 
d="M182 -237v44q24 -19 59 -19q28 0 42 16t14 40q0 52 -59 52q-19 0 -36 -6l27 104q-85 16 -136.5 87t-51.5 179q0 122 66.5 200t173.5 78q100 0 154 -43v-71q-53 54 -146 54q-85 0 -135 -59t-50 -159q0 -98 52.5 -154t133.5 -56q82 0 143 50v-65q-62 -46 -157 -46h-9
l-14 -54q5 1 15 1q37 0 58.5 -25t21.5 -65q0 -49 -27 -74.5t-75 -25.5q-42 0 -64 17z" />
    <glyph glyph-name="ccircumflex.sc" horiz-adv-x="468" 
d="M433 35q-62 -46 -157 -46q-103 0 -169 74.5t-66 196.5t66.5 200t173.5 78q100 0 154 -43v-71q-53 54 -146 54q-85 0 -135 -59t-50 -159q0 -98 52.5 -154t133.5 -56q82 0 143 50v-65zM200 588h-56l109 163h45l108 -163h-56l-76 101z" />
    <glyph glyph-name="cdotaccent.sc" horiz-adv-x="468" 
d="M433 35q-62 -46 -157 -46q-103 0 -169 74.5t-66 196.5t66.5 200t173.5 78q100 0 154 -43v-71q-53 54 -146 54q-85 0 -135 -59t-50 -159q0 -98 52.5 -154t133.5 -56q82 0 143 50v-65zM323 671q0 -19 -11 -30.5t-31 -11.5q-18 0 -29 12t-11 30t11.5 30t29.5 12q19 0 30 -12
t11 -30z" />
    <glyph glyph-name="cedilla.cap" horiz-adv-x="161" 
d="M-4 -245v45q27 -20 60 -20q30 0 44 16.5t14 42.5q0 24 -15 39t-45 15q-20 0 -37 -6l31 121h41l-19 -76q4 1 15 1q38 0 60 -26t22 -67q0 -50 -28 -76t-77 -26q-41 0 -66 17z" />
    <glyph glyph-name="cedilla.sc" horiz-adv-x="156" 
d="M0 -237v44q24 -19 59 -19q28 0 42 16t14 40q0 52 -59 52q-19 0 -36 -6l30 116h40l-19 -71q5 1 15 1q37 0 58.5 -25t21.5 -65q0 -49 -27 -74.5t-75 -25.5q-42 0 -64 17z" />
    <glyph glyph-name="cent.denominator" horiz-adv-x="298" 
d="M191 -51h-32v48q-54 6 -83.5 45t-29.5 103q0 62 30 101.5t83 46.5v52h32v-50q43 -2 69 -21v-50q-33 28 -69 29v-213q37 1 71 27v-47q-31 -21 -71 -24v-47zM97 147q0 -87 62 -104v206q-30 -8 -46 -36t-16 -66z" />
    <glyph glyph-name="cent.inferior" horiz-adv-x="298" 
d="M191 -177h-32v48q-54 6 -83.5 45t-29.5 103q0 62 30 101.5t83 46.5v52h32v-50q43 -2 69 -21v-50q-33 28 -69 29v-213q37 1 71 27v-47q-31 -21 -71 -24v-47zM97 21q0 -87 62 -104v206q-30 -8 -46 -36t-16 -66z" />
    <glyph glyph-name="cent.numerator" horiz-adv-x="298" 
d="M191 231h-32v48q-54 6 -83.5 45t-29.5 103q0 62 30 101.5t83 46.5v52h32v-50q43 -2 69 -21v-50q-33 28 -69 29v-213q37 1 71 27v-47q-31 -21 -71 -24v-47zM97 429q0 -87 62 -104v206q-30 -8 -46 -36t-16 -66z" />
    <glyph glyph-name="cent.oldstyle" horiz-adv-x="441" 
d="M286 -86h-41v80q-83 7 -126.5 68t-43.5 164q0 99 44 162t126 72v86h41v-85q65 -3 108 -38v-61q-52 44 -108 46v-360q59 1 109 45v-60q-47 -36 -109 -39v-80zM137 231q0 -159 108 -180v354q-55 -11 -81.5 -58.5t-26.5 -115.5z" />
    <glyph glyph-name="cent.superior" horiz-adv-x="298" 
d="M191 369h-32v48q-54 6 -83.5 45t-29.5 103q0 62 30 101.5t83 46.5v52h32v-50q43 -2 69 -21v-50q-33 28 -69 29v-213q37 1 71 27v-47q-31 -21 -71 -24v-47zM97 567q0 -87 62 -104v206q-30 -8 -46 -36t-16 -66z" />
    <glyph glyph-name="circumflex.cap" horiz-adv-x="161" 
d="M0 760h-59l116 136h48l117 -136h-60l-83 78z" />
    <glyph glyph-name="circumflex.sc" horiz-adv-x="156" 
d="M3 588h-56l109 163h45l108 -163h-56l-76 101z" />
    <glyph glyph-name="comma.denominator" horiz-adv-x="135" 
d="M45 -88h-44q48 74 48 173h54q0 -103 -58 -173z" />
    <glyph glyph-name="comma.inferior" horiz-adv-x="135" 
d="M45 -214h-44q48 74 48 173h54q0 -103 -58 -173z" />
    <glyph glyph-name="comma.numerator" horiz-adv-x="135" 
d="M45 194h-44q48 74 48 173h54q0 -103 -58 -173z" />
    <glyph glyph-name="comma.superior" horiz-adv-x="135" 
d="M45 332h-44q48 74 48 173h54q0 -103 -58 -173z" />
    <glyph glyph-name="commaaccent.sc" horiz-adv-x="152" 
d="M68 -286h-50q63 95 63 221h58q0 -135 -71 -221z" />
    <glyph glyph-name="d.sc" horiz-adv-x="523" 
d="M78 0v527h123q104 0 159 -24q122 -55 122 -235q0 -189 -138 -245q-54 -23 -160 -23h-106zM140 60h57q83 0 126 20q95 47 95 187q0 133 -85 180q-34 20 -123 20h-70v-407z" />
    <glyph glyph-name="d.superior" 
d="M276 282h-46v30q-31 -37 -86 -37q-54 0 -86.5 40t-32.5 107q0 73 34.5 117t98.5 44q49 0 71 -25v165h47v-441zM229 351v163q-19 30 -65 30q-39 0 -64.5 -30t-25.5 -88t24 -84.5t59 -26.5q47 0 72 36z" />
    <glyph glyph-name="dcaron.sc" horiz-adv-x="523" 
d="M78 0v527h123q104 0 159 -24q122 -55 122 -235q0 -189 -138 -245q-54 -23 -160 -23h-106zM140 60h57q83 0 126 20q95 47 95 187q0 133 -85 180q-34 20 -123 20h-70v-407zM312 753h55l-108 -163h-45l-109 163h57l76 -102z" />
    <glyph glyph-name="dcroat.sc" horiz-adv-x="523" 
d="M78 0v249h-66v48h66v230h123q104 0 159 -24q122 -55 122 -235q0 -189 -138 -245q-54 -23 -160 -23h-106zM140 60h57q83 0 126 20q95 47 95 187q0 133 -85 180q-34 20 -123 20h-70v-170h138v-48h-138v-189z" />
    <glyph glyph-name="dieresis.cap" horiz-adv-x="161" 
d="M47 821q0 -19 -11 -30.5t-31 -11.5q-18 0 -29 12t-11 30t11.5 30t29.5 12q19 0 30 -12t11 -30zM197 821q0 -19 -11 -30.5t-31 -11.5q-18 0 -29 12t-11 30t11.5 30t29.5 12q19 0 30 -12t11 -30z" />
    <glyph glyph-name="dieresis.sc" horiz-adv-x="161" 
d="M52 671q0 -19 -11 -30.5t-31 -11.5q-18 0 -29 12t-11 30t11.5 30t29.5 12q19 0 30 -12t11 -30zM192 671q0 -19 -11 -30.5t-31 -11.5q-18 0 -29 12t-11 30t11.5 30t29.5 12q19 0 30 -12t11 -30z" />
    <glyph glyph-name="dollar.denominator" horiz-adv-x="328" 
d="M187 -51h-32v46q-64 3 -107 39v55q43 -42 107 -47v141l-22 11q-46 22 -65.5 47t-19.5 63q0 46 28 74t79 32v46h32v-46q46 -3 84 -28v-53q-34 27 -84 34v-137l14 -6q52 -24 71.5 -51t19.5 -63q0 -45 -27 -74.5t-78 -34.5v-48zM241 105q0 36 -54 63v-124q54 9 54 61z
M101 305q0 -24 13 -38t41 -26v122q-54 -6 -54 -58z" />
    <glyph glyph-name="dollar.inferior" horiz-adv-x="328" 
d="M187 -177h-32v46q-64 3 -107 39v55q43 -42 107 -47v141l-22 11q-46 22 -65.5 47t-19.5 63q0 46 28 74t79 32v46h32v-46q46 -3 84 -28v-53q-34 27 -84 34v-137l14 -6q52 -24 71.5 -51t19.5 -63q0 -45 -27 -74.5t-78 -34.5v-48zM241 -21q0 36 -54 63v-124q54 9 54 61z
M101 179q0 -24 13 -38t41 -26v122q-54 -6 -54 -58z" />
    <glyph glyph-name="dollar.numerator" horiz-adv-x="328" 
d="M187 231h-32v46q-64 3 -107 39v55q43 -42 107 -47v141l-22 11q-46 22 -65.5 47t-19.5 63q0 46 28 74t79 32v46h32v-46q46 -3 84 -28v-53q-34 27 -84 34v-137l14 -6q52 -24 71.5 -51t19.5 -63q0 -45 -27 -74.5t-78 -35.5v-47zM241 387q0 36 -54 63v-124q54 9 54 61z
M101 587q0 -24 13 -38t41 -26v122q-54 -6 -54 -58z" />
    <glyph glyph-name="dollar.oldstyle" horiz-adv-x="468" 
d="M259 -86h-42v78q-94 3 -158 56v72q63 -62 158 -69v229l-37 18q-65 32 -93 70t-28 92q0 68 41.5 109.5t116.5 45.5v81h42v-81q70 -6 121 -41v-70q-53 43 -121 51v-227l17 -8q78 -38 106.5 -77t28.5 -90q0 -67 -39.5 -109t-112.5 -50v-80zM122 464q0 -39 20.5 -63t65.5 -47
l9 -5v207q-47 -4 -71 -29.5t-24 -62.5zM348 149q0 35 -19.5 59.5t-69.5 50.5v-206q89 13 89 96z" />
    <glyph glyph-name="dollar.superior" horiz-adv-x="328" 
d="M187 369h-32v46q-64 3 -107 39v55q43 -42 107 -47v141l-22 11q-46 22 -65.5 47t-19.5 63q0 46 28 74t79 32v46h32v-46q46 -3 84 -28v-53q-34 27 -84 34v-137l14 -6q52 -24 71.5 -51t19.5 -63q0 -45 -27 -74.5t-78 -34.5v-48zM241 525q0 36 -54 63v-124q54 9 54 61z
M101 725q0 -24 13 -38t41 -26v122q-54 -6 -54 -58z" />
    <glyph glyph-name="dotaccent.cap" horiz-adv-x="161" 
d="M122 821q0 -19 -11 -30.5t-31 -11.5q-18 0 -29 12t-11 30t11.5 30t29.5 12q19 0 30 -12t11 -30z" />
    <glyph glyph-name="dotaccent.sc" horiz-adv-x="156" 
d="M120 671q0 -19 -11 -30.5t-31 -11.5q-18 0 -29 12t-11 30t11.5 30t29.5 12q19 0 30 -12t11 -30z" />
    <glyph glyph-name="dotlessi.sc" horiz-adv-x="219" 
d="M140 0h-62v527h62v-527z" />
    <glyph glyph-name="e.sc" horiz-adv-x="396" 
d="M367 0h-289v527h278v-60h-216v-164h203v-60h-203v-183h227v-60z" />
    <glyph glyph-name="e.superior" horiz-adv-x="293" 
d="M267 303q-44 -28 -101 -28q-65 0 -102 41t-37 115q0 70 34.5 111.5t91.5 41.5q116 0 116 -144v-17h-194q1 -106 100 -106q52 0 92 31v-45zM76 459h150q-1 33 -18 58t-55 25q-34 0 -54.5 -23.5t-22.5 -59.5z" />
    <glyph glyph-name="eacute.sc" horiz-adv-x="396" 
d="M367 0h-289v527h278v-60h-216v-164h203v-60h-203v-183h227v-60zM232 592h-57l104 168h79z" />
    <glyph glyph-name="ebreve.sc" horiz-adv-x="396" 
d="M367 0h-289v527h278v-60h-216v-164h203v-60h-203v-183h227v-60zM96 719h49q4 -90 75 -90q72 0 77 90h47q-1 -62 -32.5 -101.5t-92.5 -39.5q-60 0 -90.5 38t-32.5 103z" />
    <glyph glyph-name="ecaron.sc" horiz-adv-x="396" 
d="M367 0h-289v527h278v-60h-216v-164h203v-60h-203v-183h227v-60zM292 753h55l-108 -163h-45l-109 163h57l76 -102z" />
    <glyph glyph-name="ecircumflex.sc" horiz-adv-x="396" 
d="M367 0h-289v527h278v-60h-216v-164h203v-60h-203v-183h227v-60zM143 588h-56l109 163h45l108 -163h-56l-76 101z" />
    <glyph glyph-name="edieresis.sc" horiz-adv-x="396" 
d="M367 0h-289v527h278v-60h-216v-164h203v-60h-203v-183h227v-60zM193 671q0 -19 -11 -30.5t-31 -11.5q-18 0 -29 12t-11 30t11.5 30t29.5 12q19 0 30 -12t11 -30zM333 671q0 -19 -11 -30.5t-31 -11.5q-18 0 -29 12t-11 30t11.5 30t29.5 12q19 0 30 -12t11 -30z" />
    <glyph glyph-name="edotaccent.sc" horiz-adv-x="396" 
d="M367 0h-289v527h278v-60h-216v-164h203v-60h-203v-183h227v-60zM269 671q0 -19 -11 -30.5t-31 -11.5q-18 0 -29 12t-11 30t11.5 30t29.5 12q19 0 30 -12t11 -30z" />
    <glyph glyph-name="egrave.sc" horiz-adv-x="396" 
d="M367 0h-289v527h278v-60h-216v-164h203v-60h-203v-183h227v-60zM267 592h-59l-126 168h79z" />
    <glyph glyph-name="egrave.superior" horiz-adv-x="293" 
d="M190 624h-44l-79 99h57zM267 303q-44 -28 -101 -28q-65 0 -102 41t-37 115q0 70 34.5 111.5t91.5 41.5q116 0 116 -144v-17h-194q1 -106 100 -106q52 0 92 31v-45zM76 459h150q-1 33 -18 58t-55 25q-34 0 -54.5 -23.5t-22.5 -59.5z" />
    <glyph glyph-name="eight.denominator" 
d="M101 211q-63 25 -63 93q0 49 34.5 79.5t86.5 30.5q54 0 86 -28t32 -80q0 -31 -16 -56.5t-47 -36.5q74 -21 74 -100q0 -53 -36 -86.5t-96 -33.5q-55 0 -91.5 30.5t-36.5 85.5q0 35 19 62.5t54 39.5zM232 303q0 31 -19.5 49.5t-53.5 18.5q-32 0 -53 -18.5t-21 -50.5
q0 -31 19 -52.5t54 -21.5t54.5 20.5t19.5 54.5zM239 116q0 38 -22 57.5t-59 19.5t-59 -22t-22 -56q0 -39 24 -58.5t57 -19.5q34 0 57.5 20.5t23.5 58.5z" />
    <glyph glyph-name="eight.numerator" 
d="M101 493q-63 25 -63 93q0 49 34.5 79.5t86.5 30.5q54 0 86 -28t32 -80q0 -31 -16 -56.5t-47 -36.5q74 -21 74 -100q0 -53 -36 -86.5t-96 -33.5q-55 0 -91.5 30.5t-36.5 85.5q0 35 19 62.5t54 39.5zM232 585q0 31 -19.5 49.5t-53.5 18.5q-32 0 -53 -18.5t-21 -50.5
q0 -31 19 -52.5t54 -21.5t54.5 20.5t19.5 54.5zM239 398q0 38 -22 57.5t-59 19.5t-59 -22t-22 -56q0 -39 24 -58.5t57 -19.5q34 0 57.5 20.5t23.5 58.5z" />
    <glyph glyph-name="eight.oldstyle" horiz-adv-x="462" 
d="M152 348q-98 43 -98 156q0 77 50.5 127t127.5 50q82 0 129.5 -46t47.5 -129q0 -52 -27 -95t-75 -60q58 -16 87 -63t29 -108q0 -85 -52.5 -138.5t-142.5 -53.5q-82 0 -136 50.5t-54 140.5q0 58 30 104.5t84 64.5zM351 503q0 56 -32 89t-87 33q-51 0 -85.5 -33t-34.5 -90
q0 -53 30 -90t89 -37q56 0 88 36t32 92zM364 183q0 66 -37 102t-96 36q-60 0 -96.5 -39t-36.5 -97q0 -69 39 -104.5t92 -35.5q58 0 96.5 35.5t38.5 102.5z" />
    <glyph glyph-name="eight.taboldstyle" horiz-adv-x="462" 
d="M152 348q-98 43 -98 156q0 77 50.5 127t127.5 50q82 0 129.5 -46t47.5 -129q0 -52 -27 -95t-75 -60q58 -16 87 -63t29 -108q0 -85 -52.5 -138.5t-142.5 -53.5q-82 0 -136 50.5t-54 140.5q0 58 30 104.5t84 64.5zM351 503q0 56 -32 89t-87 33q-51 0 -85.5 -33t-34.5 -90
q0 -53 30 -90t89 -37q56 0 88 36t32 92zM364 183q0 66 -37 102t-96 36q-60 0 -96.5 -39t-36.5 -97q0 -69 39 -104.5t92 -35.5q58 0 96.5 35.5t38.5 102.5z" />
    <glyph glyph-name="emacron.sc" horiz-adv-x="396" 
d="M367 0h-289v527h278v-60h-216v-164h203v-60h-203v-183h227v-60zM330 619h-226v56h226v-56z" />
    <glyph glyph-name="emdash.cap" horiz-adv-x="770" 
d="M728 306h-686v48h686v-48z" />
    <glyph glyph-name="endash.cap" horiz-adv-x="482" 
d="M440 306h-398v48h398v-48z" />
    <glyph glyph-name="eng.sc" horiz-adv-x="545" 
d="M140 0h-62v527h58q226 -337 272 -414q-2 63 -2 414h61v-554q0 -98 -28 -135q-28 -38 -99 -76l-27 52q52 29 69 49q24 29 24 98v53q-246 372 -267 408q1 -52 1 -422z" />
    <glyph glyph-name="eogonek.sc" horiz-adv-x="396" 
d="M367 0h-28q-88 -66 -88 -131q0 -34 17.5 -52t47.5 -18t56 18v-42q-27 -21 -75 -21q-42 0 -69.5 26t-27.5 78q0 84 86 142h-208v527h278v-60h-216v-164h203v-60h-203v-183h227v-60z" />
    <glyph glyph-name="estimated.alt" horiz-adv-x="823" 
d="M739 54q-127 -66 -274 -66q-189 0 -292 94t-103 270q0 159 98 254t261 95q86 0 150.5 -25t102.5 -71t56.5 -105t18.5 -131v-32h-618q4 -148 92.5 -217.5t242.5 -69.5q152 0 265 73v-69zM140 394h545q0 43 -10.5 80.5t-36 77.5t-79.5 63.5t-131 23.5q-129 0 -205.5 -70.5
t-82.5 -174.5z" />
    <glyph glyph-name="eth.sc" horiz-adv-x="523" 
d="M78 0v249h-66v48h66v230h123q104 0 159 -24q122 -55 122 -235q0 -189 -138 -245q-54 -23 -160 -23h-106zM140 60h57q83 0 126 20q95 47 95 187q0 133 -85 180q-34 20 -123 20h-70v-170h138v-48h-138v-189z" />
    <glyph glyph-name="exclam.sc" horiz-adv-x="209" 
d="M140 206h-46q-8 273 -8 382h63q0 -74 -9 -382zM168 45q0 -23 -15 -37.5t-37 -14.5t-36 14.5t-14 35.5q0 23 14.5 38t37.5 15q22 0 36 -14.5t14 -36.5z" />
    <glyph glyph-name="exclamdown.cap" horiz-adv-x="236" 
d="M76 491h53q9 -326 9 -491h-71q0 167 9 491zM155 662q0 -22 -14.5 -37t-37.5 -15q-22 0 -36 14.5t-14 35.5q0 23 14.5 38t37.5 15q22 0 36 -14.5t14 -36.5z" />
    <glyph glyph-name="exclamdown.sc" horiz-adv-x="209" 
d="M68 324h47q8 -273 8 -382h-63q0 69 8 382zM144 486q0 -22 -15 -37t-37 -15t-36 14.5t-14 35.5q0 23 14.5 38t37.5 15q22 0 36 -14.5t14 -36.5z" />
    <glyph glyph-name="f.sc" horiz-adv-x="376" 
d="M140 0h-62v527h273v-60h-211v-181h198v-59h-198v-227z" />
    <glyph glyph-name="f_i.sc" horiz-adv-x="575" 
d="M140 0h-62v527h273v-60h-211v-181h198v-59h-198v-227zM497 0h-62v527h62v-527z" />
    <glyph glyph-name="f_l.sc" horiz-adv-x="740" 
d="M140 0h-62v527h273v-60h-211v-181h198v-59h-198v-227zM717 0h-282v527h62v-468h220v-59z" />
    <glyph glyph-name="five.denominator" 
d="M39 18v50q41 -28 98 -28q42 0 66 23.5t24 64.5q0 39 -23.5 60.5t-64.5 21.5q-48 0 -86 -19l19 216h186v-47h-149l-12 -121q20 10 60 10q52 0 86 -30t34 -90q0 -64 -36.5 -100t-101.5 -36q-63 0 -100 25z" />
    <glyph glyph-name="five.numerator" 
d="M39 300v50q41 -28 98 -28q42 0 66 23.5t24 64.5q0 39 -23.5 60.5t-64.5 21.5q-48 0 -86 -19l19 216h186v-47h-149l-12 -121q20 10 60 10q52 0 86 -30t34 -90q0 -64 -36.5 -100t-101.5 -36q-63 0 -100 25z" />
    <glyph glyph-name="five.oldstyle" horiz-adv-x="434" 
d="M37 -96v68q68 -50 154 -50q68 0 108 42.5t40 116.5q0 72 -39.5 110t-108.5 38q-75 0 -131 -32l31 343h282v-62h-233l-20 -211q41 18 92 18q83 0 136 -49t53 -152q0 -104 -55.5 -164t-153.5 -60q-92 0 -155 44z" />
    <glyph glyph-name="five.taboldstyle" horiz-adv-x="462" 
d="M58 -96v68q68 -50 154 -50q69 0 109 42.5t40 116.5q0 72 -39.5 110t-108.5 38q-77 0 -131 -32l31 343h282v-62h-234l-19 -211q41 18 91 18q83 0 136.5 -49t53.5 -152t-56 -163.5t-154 -60.5q-91 0 -155 44z" />
    <glyph glyph-name="florin.denominator" horiz-adv-x="282" 
d="M14 -68v47q16 -13 40 -13q28 0 36 21q5 12 7 41l14 185h-52v40h54l4 47q4 52 19 77q23 37 73 37q36 0 54 -15v-48q-16 15 -44 15q-25 0 -36 -15q-11 -14 -14 -52l-4 -46h65v-40h-68l-12 -184q-2 -34 -10 -60q-16 -49 -80 -49q-31 0 -46 12z" />
    <glyph glyph-name="florin.inferior" horiz-adv-x="282" 
d="M14 -194v47q16 -13 40 -13q28 0 36 21q5 12 7 41l14 185h-52v40h54l4 47q4 52 19 77q23 37 73 37q36 0 54 -15v-48q-16 15 -44 15q-25 0 -36 -15q-11 -14 -14 -52l-4 -46h65v-40h-68l-12 -184q-2 -34 -10 -60q-16 -49 -80 -49q-31 0 -46 12z" />
    <glyph glyph-name="florin.numerator" horiz-adv-x="282" 
d="M14 214v47q16 -13 40 -13q28 0 36 21q5 12 7 41l14 185h-52v40h54l4 47q4 52 19 77q23 37 73 37q36 0 54 -15v-48q-16 15 -44 15q-25 0 -36 -15q-11 -14 -14 -52l-4 -46h65v-40h-68l-12 -184q-2 -34 -10 -60q-16 -49 -80 -49q-31 0 -46 12z" />
    <glyph glyph-name="florin.oldstyle" horiz-adv-x="416" 
d="M22 -99v63q26 -23 63 -23q40 0 53 31q8 19 12 66l20 288h-80v54h83l5 70q7 80 30 117q34 53 99 53q51 0 77 -20v-62q-27 24 -67 24q-37 0 -56 -27q-16 -21 -22 -88l-6 -67h99v-54h-102l-19 -285q-4 -57 -14 -88q-11 -36 -40.5 -53.5t-66.5 -17.5q-40 0 -68 19z" />
    <glyph glyph-name="florin.superior" horiz-adv-x="282" 
d="M14 352v47q16 -13 40 -13q28 0 36 21q5 12 7 41l14 185h-52v40h54l4 47q4 52 19 77q23 37 73 37q36 0 54 -15v-48q-16 15 -44 15q-25 0 -36 -15q-11 -14 -14 -52l-4 -46h65v-40h-68l-12 -184q-2 -34 -10 -60q-16 -49 -80 -49q-31 0 -46 12z" />
    <glyph glyph-name="four.denominator" 
d="M247 0h-51v116h-173v34l180 257h44v-250h54v-41h-54v-116zM196 157q0 154 1 182l-124 -182h123z" />
    <glyph glyph-name="four.numerator" 
d="M247 282h-51v116h-173v34l180 257h44v-250h54v-41h-54v-116zM196 439q0 154 1 182l-124 -182h123z" />
    <glyph glyph-name="four.oldstyle" horiz-adv-x="476" 
d="M375 -139h-62v205h-287v44l293 439h56v-429h86v-54h-86v-205zM313 120q0 288 1 338q-54 -90 -220 -338h219z" />
    <glyph glyph-name="four.taboldstyle" horiz-adv-x="462" 
d="M364 -139h-62v205h-277v44l284 439h55v-429h86v-54h-86v-205zM302 120q0 282 1 331q-36 -61 -210 -331h209z" />
    <glyph glyph-name="fourfifths" horiz-adv-x="719" 
d="M248 -12h-42l314 713h42zM250 282h-51v116h-173v34l180 257h44v-250h54v-41h-54v-116zM199 439q0 154 1 182l-124 -182h123zM458 18v50q41 -28 98 -28q42 0 66 23.5t24 64.5q0 39 -23.5 60.5t-64.5 21.5q-48 0 -86 -19l19 216h186v-47h-149l-12 -121q20 10 60 10
q52 0 86 -30t34 -90q0 -64 -36.5 -100t-101.5 -36q-62 0 -100 25z" />
    <glyph glyph-name="g.sc" horiz-adv-x="520" 
d="M461 33q-81 -44 -179 -44q-109 0 -175 76t-66 196q0 123 67.5 200t177.5 77q101 0 157 -43v-71q-58 54 -153 54q-87 0 -136.5 -61t-49.5 -157q0 -97 50.5 -154.5t131.5 -57.5q72 0 116 25v133h-109v59h168v-232z" />
    <glyph glyph-name="gbreve.sc" horiz-adv-x="520" 
d="M461 33q-81 -44 -179 -44q-109 0 -175 76t-66 196q0 123 67.5 200t177.5 77q101 0 157 -43v-71q-58 54 -153 54q-87 0 -136.5 -61t-49.5 -157q0 -97 50.5 -154.5t131.5 -57.5q72 0 116 25v133h-109v59h168v-232zM152 719h49q4 -90 75 -90q72 0 77 90h47
q-1 -62 -32.5 -101.5t-92.5 -39.5q-60 0 -90.5 38t-32.5 103z" />
    <glyph glyph-name="gcircumflex.sc" horiz-adv-x="520" 
d="M461 33q-81 -44 -179 -44q-109 0 -175 76t-66 196q0 123 67.5 200t177.5 77q101 0 157 -43v-71q-58 54 -153 54q-87 0 -136.5 -61t-49.5 -157q0 -97 50.5 -154.5t131.5 -57.5q72 0 116 25v133h-109v59h168v-232zM201 588h-56l109 163h45l108 -163h-56l-76 101z" />
    <glyph glyph-name="gcommaaccent.sc" horiz-adv-x="520" 
d="M461 33q-81 -44 -179 -44q-109 0 -175 76t-66 196q0 123 67.5 200t177.5 77q101 0 157 -43v-71q-58 54 -153 54q-87 0 -136.5 -61t-49.5 -157q0 -97 50.5 -154.5t131.5 -57.5q72 0 116 25v133h-109v59h168v-232zM236 -286h-50q63 95 63 221h58q0 -135 -71 -221z" />
    <glyph glyph-name="gdotaccent.sc" horiz-adv-x="520" 
d="M461 33q-81 -44 -179 -44q-109 0 -175 76t-66 196q0 123 67.5 200t177.5 77q101 0 157 -43v-71q-58 54 -153 54q-87 0 -136.5 -61t-49.5 -157q0 -97 50.5 -154.5t131.5 -57.5q72 0 116 25v133h-109v59h168v-232zM324 671q0 -19 -11 -30.5t-31 -11.5q-18 0 -29 12t-11 30
t11.5 30t29.5 12q19 0 30 -12t11 -30z" />
    <glyph glyph-name="germandbls.sc" horiz-adv-x="778" 
d="M42 35v71q61 -58 149 -58q98 0 98 82q0 30 -19 52.5t-68 45.5l-57 27q-56 27 -79.5 61t-23.5 84q0 65 42 101.5t114 36.5q76 0 131 -36v-70q-64 49 -131 49q-45 0 -67.5 -23.5t-22.5 -58.5q0 -31 17.5 -49.5t59.5 -39.5l57 -28q66 -34 90 -66t24 -83q0 -67 -44.5 -105
t-120.5 -38q-90 0 -149 45zM431 35v71q61 -58 149 -58q98 0 98 82q0 30 -19 52.5t-68 45.5l-57 27q-56 27 -79.5 61t-23.5 84q0 65 42 101.5t114 36.5q76 0 131 -36v-70q-64 49 -131 49q-45 0 -67.5 -23.5t-22.5 -58.5q0 -31 17.5 -49.5t59.5 -39.5l57 -28q66 -34 90 -66
t24 -83q0 -67 -44.5 -105t-120.5 -38q-90 0 -149 45z" />
    <glyph glyph-name="grave.cap" horiz-adv-x="161" 
d="M184 760h-65l-145 136h89z" />
    <glyph glyph-name="grave.sc" horiz-adv-x="161" 
d="M172 592h-59l-126 168h79z" />
    <glyph glyph-name="guillemotleft.cap" horiz-adv-x="368" 
d="M196 144h-62l-114 184l113 184h63l-113 -184zM352 144h-62l-115 184l114 184h62l-111 -184z" />
    <glyph glyph-name="guillemotright.cap" horiz-adv-x="368" 
d="M172 512h61l115 -184l-114 -184h-62l112 184zM16 512h62l115 -184l-114 -184h-63l112 184z" />
    <glyph glyph-name="guilsinglleft.cap" horiz-adv-x="212" 
d="M196 144h-62l-114 184l113 184h63l-113 -184z" />
    <glyph glyph-name="guilsinglright.cap" horiz-adv-x="206" 
d="M16 512h62l115 -184l-114 -184h-63l112 184z" />
    <glyph glyph-name="h.sc" horiz-adv-x="532" 
d="M453 0h-62v243h-251v-243h-62v527h62v-224h251v224h62v-527z" />
    <glyph glyph-name="h.superior" horiz-adv-x="322" 
d="M94 282h-47v441h47v-183q14 19 39 31.5t53 12.5q67 0 84 -54q7 -22 7 -86v-162h-47v161q0 51 -6 66q-10 31 -54 31q-49 0 -76 -42v-216z" />
    <glyph glyph-name="hbar.sc" horiz-adv-x="532" 
d="M453 0h-62v243h-251v-243h-62v360h-66v48h66v119h62v-119h251v119h62v-119h66v-48h-66v-360zM140 303h251v57h-251v-57z" />
    <glyph glyph-name="hcircumflex.sc" horiz-adv-x="532" 
d="M453 0h-62v243h-251v-243h-62v527h62v-224h251v224h62v-527zM192 588h-56l109 163h45l108 -163h-56l-76 101z" />
    <glyph glyph-name="hungarumlaut.cap" horiz-adv-x="161" 
d="M-26 760h-64l120 136h82zM114 760h-62l119 136h82z" />
    <glyph glyph-name="hungarumlaut.sc" horiz-adv-x="156" 
d="M-19 592h-55l105 168h70zM113 592h-56l106 168h71z" />
    <glyph glyph-name="hyphen.cap" horiz-adv-x="313" 
d="M271 301h-229v59h229v-59z" />
    <glyph glyph-name="hyphen.denominator" horiz-adv-x="203" 
d="M174 167h-145v51h145v-51z" />
    <glyph glyph-name="hyphen.inferior" horiz-adv-x="203" 
d="M174 41h-145v51h145v-51z" />
    <glyph glyph-name="hyphen.numerator" horiz-adv-x="203" 
d="M174 448h-145v51h145v-51z" />
    <glyph glyph-name="hyphen.superior" horiz-adv-x="203" 
d="M174 587h-145v51h145v-51z" />
    <glyph glyph-name="i.sc" horiz-adv-x="219" 
d="M140 0h-62v527h62v-527z" />
    <glyph glyph-name="i.superior" horiz-adv-x="142" 
d="M95 282h-48v295h48v-295zM102 671q0 -13 -9 -22t-22 -9t-21.5 9t-8.5 22t8.5 22t22.5 9q13 0 21.5 -9t8.5 -22z" />
    <glyph glyph-name="iacute.sc" horiz-adv-x="219" 
d="M140 0h-62v527h62v-527zM119 592h-57l104 168h79z" />
    <glyph glyph-name="ibreve.sc" horiz-adv-x="219" 
d="M140 0h-62v527h62v-527zM-13 719h49q4 -90 75 -90q73 0 77 90h47q-1 -62 -32.5 -101.5t-92.5 -39.5q-60 0 -90.5 38t-32.5 103z" />
    <glyph glyph-name="icircumflex.sc" horiz-adv-x="219" 
d="M140 0h-62v527h62v-527zM34 588h-56l109 163h45l108 -163h-56l-76 101z" />
    <glyph glyph-name="idieresis.sc" horiz-adv-x="219" 
d="M140 0h-62v527h62v-527zM80 671q0 -19 -11 -30.5t-31 -11.5q-18 0 -29 12t-11 30t11.5 30t29.5 12q19 0 30 -12t11 -30zM220 671q0 -19 -11 -30.5t-31 -11.5q-18 0 -29 12t-11 30t11.5 30t29.5 12q19 0 30 -12t11 -30z" />
    <glyph glyph-name="idotaccent" horiz-adv-x="207" 
d="M135 0h-61v497h61v-497zM146 658q0 -19 -11 -30.5t-31 -11.5q-18 0 -29 12t-11 30t11.5 30t29.5 12q19 0 30 -12t11 -30z" />
    <glyph glyph-name="idotaccent.sc" horiz-adv-x="219" 
d="M140 0h-62v527h62v-527zM151 671q0 -19 -11 -30.5t-31 -11.5q-18 0 -29 12t-11 30t11.5 30t29.5 12q19 0 30 -12t11 -30z" />
    <glyph glyph-name="igrave.sc" horiz-adv-x="219" 
d="M140 0h-62v527h62v-527zM160 592h-59l-126 168h79z" />
    <glyph glyph-name="ij.sc" horiz-adv-x="432" 
d="M140 0h-62v527h62v-527zM228 -140l-26 51q54 27 72 52q19 23 19 76v488h62v-486q0 -81 -33 -115q-34 -35 -94 -66z" />
    <glyph glyph-name="imacron.sc" horiz-adv-x="219" 
d="M140 0h-62v527h62v-527zM223 619h-226v56h226v-56z" />
    <glyph glyph-name="iogonek.sc" horiz-adv-x="219" 
d="M140 0h-5q-88 -66 -88 -131q0 -34 17.5 -52t47.5 -18t56 18v-42q-27 -21 -75 -21q-42 0 -69.5 26t-27.5 78q0 87 86 142h-4v527h62v-527z" />
    <glyph glyph-name="itilde.sc" horiz-adv-x="219" 
d="M140 0h-62v527h62v-527zM17 611h-45q5 54 28.5 85.5t53.5 31.5q26 0 63 -29q36 -30 52 -30q29 0 36 60h43q-4 -57 -25.5 -86t-51.5 -29t-70 33q-29 24 -46 24q-30 0 -38 -60z" />
    <glyph glyph-name="j.sc" horiz-adv-x="219" 
d="M13 -140l-26 51q54 27 72 52q19 23 19 76v488h62v-486q0 -81 -33 -115q-34 -35 -94 -66z" />
    <glyph glyph-name="jcircumflex.sc" horiz-adv-x="219" 
d="M13 -140l-26 51q54 27 72 52q19 23 19 76v488h62v-486q0 -81 -33 -115q-34 -35 -94 -66zM33 588h-56l109 163h45l108 -163h-56l-76 101z" />
    <glyph glyph-name="k.sc" horiz-adv-x="438" 
d="M140 0h-62v527h62v-238l199 238h76l-214 -251l237 -276h-76l-222 259v-259z" />
    <glyph glyph-name="kcommaaccent.sc" horiz-adv-x="438" 
d="M140 0h-62v527h62v-238l199 238h76l-214 -251l237 -276h-76l-222 259v-259zM194 -286h-50q63 95 63 221h58q0 -135 -71 -221z" />
    <glyph glyph-name="kgreenlandic.sc" horiz-adv-x="496" 
d="M490 547h54q-35 -57 -52.5 -110t-17.5 -127h-64q0 139 80 237zM140 0h-62v527h62v-238l199 238h76l-214 -248l237 -279h-76l-222 259v-259z" />
    <glyph glyph-name="l.sc" horiz-adv-x="383" 
d="M360 0h-282v527h62v-468h220v-59z" />
    <glyph glyph-name="l.superior" horiz-adv-x="142" 
d="M95 282h-48v441h48v-441z" />
    <glyph glyph-name="lacute.sc" horiz-adv-x="383" 
d="M360 0h-282v527h62v-468h220v-59zM131 592h-57l104 168h79z" />
    <glyph glyph-name="lcaron.sc" horiz-adv-x="383" 
d="M360 0h-282v527h62v-468h220v-59zM254 361h-49q62 96 62 221h58q0 -133 -71 -221z" />
    <glyph glyph-name="lcommaaccent.sc" horiz-adv-x="383" 
d="M360 0h-282v527h62v-468h220v-59zM173 -286h-50q63 95 63 221h58q0 -135 -71 -221z" />
    <glyph glyph-name="ldot.sc" horiz-adv-x="383" 
d="M360 0h-282v527h62v-468h220v-59zM344 268q0 -22 -13.5 -36t-34.5 -14t-34.5 14t-13.5 34q0 22 14 36t35 14q20 0 33.5 -13.5t13.5 -34.5z" />
    <glyph glyph-name="lslash.sc" horiz-adv-x="383" 
d="M360 0h-282v193l-68 -50v59l68 50v275h62v-230l112 83v-59l-112 -83v-179h220v-59z" />
    <glyph glyph-name="m.sc" horiz-adv-x="600" 
d="M139 0h-61v527h68l79 -141l53 -91.5t18 -33.5q3 6 20.5 34l55.5 91l84 141h65v-527h-61q0 368 2 432q-37 -65 -167 -275q-134 230 -158 276q2 -63 2 -433z" />
    <glyph glyph-name="m.superior" horiz-adv-x="492" 
d="M94 282h-47v295h46v-37q35 44 90 44q60 0 79 -51q35 51 97 51q63 0 80 -53q7 -23 7 -87v-162h-46v161q0 50 -5 64q-12 33 -53 33q-45 0 -74 -41q3 -17 3 -55v-162h-47v161q0 48 -6 65q-14 32 -52 32q-43 0 -72 -42v-216z" />
    <glyph glyph-name="macron.cap" horiz-adv-x="161" 
d="M198 797h-235v56h235v-56z" />
    <glyph glyph-name="macron.sc" horiz-adv-x="156" 
d="M191 619h-226v56h226v-56z" />
    <glyph glyph-name="n.sc" horiz-adv-x="545" 
d="M140 0h-62v527h58q250 -375 271 -410q-1 62 -1 410h61v-527h-53l-275 421q1 -53 1 -421z" />
    <glyph glyph-name="nacute.sc" horiz-adv-x="545" 
d="M140 0h-62v527h58q250 -375 271 -410q-1 62 -1 410h61v-527h-53l-275 421q1 -53 1 -421zM284 592h-57l104 168h79z" />
    <glyph glyph-name="ncaron.sc" horiz-adv-x="545" 
d="M140 0h-62v527h58q250 -375 271 -410q-1 62 -1 410h61v-527h-53l-275 421q1 -53 1 -421zM348 753h55l-108 -163h-45l-109 163h57l76 -102z" />
    <glyph glyph-name="ncommaaccent.sc" horiz-adv-x="545" 
d="M140 0h-62v527h58q250 -375 271 -410q-1 62 -1 410h61v-527h-53l-275 421q1 -53 1 -421zM231 -286h-50q63 95 63 221h58q0 -135 -71 -221z" />
    <glyph glyph-name="nine.denominator" 
d="M235 213q-8 -28 -36.5 -46.5t-64.5 -18.5q-49 0 -80 31.5t-31 93.5q0 66 35 103.5t92 37.5q135 0 135 -201q0 -112 -43 -166t-115 -54q-56 0 -85 20v54q31 -25 83 -25q58 0 83.5 42.5t26.5 128.5zM231 257q0 37 -13 64q-21 47 -68 47q-33 0 -55 -24t-22 -70q0 -87 74 -87
q32 0 55 20.5t29 49.5z" />
    <glyph glyph-name="nine.numerator" 
d="M235 495q-8 -28 -36.5 -46.5t-64.5 -18.5q-49 0 -80 31.5t-31 93.5q0 66 35 103.5t92 37.5q135 0 135 -201q0 -112 -43 -166t-115 -54q-56 0 -85 20v54q31 -25 83 -25q58 0 83.5 42.5t26.5 128.5zM231 539q0 37 -13 64q-21 47 -68 47q-33 0 -55 -24t-22 -70q0 -87 74 -87
q32 0 55 20.5t29 49.5z" />
    <glyph glyph-name="nine.oldstyle" horiz-adv-x="470" 
d="M366 225q-19 -48 -60.5 -78.5t-99.5 -30.5q-75 0 -121.5 51.5t-46.5 154.5q0 109 52.5 170.5t138.5 61.5q199 0 199 -331q0 -187 -64.5 -275t-171.5 -88q-77 0 -125 35v72q49 -44 122 -44q94 0 135 76.5t42 225.5zM360 297q-4 73 -19 115q-32 83 -114 83q-54 0 -91 -43.5
t-37 -125.5q0 -154 122 -154q54 0 92 36.5t47 88.5z" />
    <glyph glyph-name="nine.taboldstyle" horiz-adv-x="462" 
d="M360 225q-20 -49 -61 -79t-99 -30q-75 0 -121.5 51.5t-46.5 154.5q0 110 52 171t139 61q198 0 198 -331q0 -186 -64.5 -274.5t-170.5 -88.5q-77 0 -126 35v72q50 -44 123 -44q93 0 134.5 77t42.5 225zM354 297q-4 75 -20 115q-33 83 -113 83q-54 0 -91 -43.5t-37 -125.5
q0 -154 121 -154q55 0 92.5 36.5t47.5 88.5z" />
    <glyph glyph-name="ntilde.sc" horiz-adv-x="545" 
d="M140 0h-62v527h58q250 -375 271 -410q-1 62 -1 410h61v-527h-53l-275 421q1 -53 1 -421zM182 611h-45q5 54 28.5 85.5t53.5 31.5q26 0 63 -29q36 -30 52 -30q29 0 36 60h43q-4 -57 -25.5 -86t-51.5 -29t-70 33q-29 24 -46 24q-30 0 -38 -60z" />
    <glyph glyph-name="numbersign.oldstyle" horiz-adv-x="474" 
d="M137 -25h-35l23 182h-87v57h94l18 135h-91v56h98l21 165h34l-21 -165h121l21 165h35l-21 -165h88v-56h-95l-17 -135h91v-57h-98l-23 -182h-35l23 182h-121zM184 349l-17 -135h121l17 135h-121z" />
    <glyph glyph-name="o.sc" horiz-adv-x="550" 
d="M508 265q0 -125 -64.5 -200.5t-170.5 -75.5q-104 0 -168 75.5t-64 198.5q0 122 66 198.5t171 76.5q108 0 169 -75.5t61 -197.5zM445 260q0 101 -45 160t-123 59q-77 0 -125 -57.5t-48 -157.5q0 -99 47 -157t124 -58q78 0 124 56.5t46 154.5z" />
    <glyph glyph-name="o.superior" horiz-adv-x="316" 
d="M291 431q0 -72 -36.5 -114t-96.5 -42t-95.5 42t-35.5 111t36 112.5t95 43.5q62 0 97.5 -42.5t35.5 -110.5zM242 429q0 112 -84 112q-38 0 -61 -29.5t-23 -82.5t22 -82t62 -29q84 0 84 111z" />
    <glyph glyph-name="oacute.sc" horiz-adv-x="550" 
d="M508 265q0 -125 -64.5 -200.5t-170.5 -75.5q-104 0 -168 75.5t-64 198.5q0 122 66 198.5t171 76.5q108 0 169 -75.5t61 -197.5zM445 260q0 101 -45 160t-123 59q-77 0 -125 -57.5t-48 -157.5q0 -99 47 -157t124 -58q78 0 124 56.5t46 154.5zM278 592h-57l104 168h79z" />
    <glyph glyph-name="obreve.sc" horiz-adv-x="550" 
d="M508 265q0 -125 -64.5 -200.5t-170.5 -75.5q-104 0 -168 75.5t-64 198.5q0 122 66 198.5t171 76.5q108 0 169 -75.5t61 -197.5zM445 260q0 101 -45 160t-123 59q-77 0 -125 -57.5t-48 -157.5q0 -99 47 -157t124 -58q78 0 124 56.5t46 154.5zM151 719h49q4 -90 75 -90
q73 0 77 90h47q-1 -62 -32.5 -101.5t-92.5 -39.5q-60 0 -90.5 38t-32.5 103z" />
    <glyph glyph-name="ocircumflex.sc" horiz-adv-x="550" 
d="M508 265q0 -125 -64.5 -200.5t-170.5 -75.5q-104 0 -168 75.5t-64 198.5q0 122 66 198.5t171 76.5q108 0 169 -75.5t61 -197.5zM445 260q0 101 -45 160t-123 59q-77 0 -125 -57.5t-48 -157.5q0 -99 47 -157t124 -58q78 0 124 56.5t46 154.5zM202 588h-56l109 163h45
l108 -163h-56l-76 101z" />
    <glyph glyph-name="odieresis.sc" horiz-adv-x="550" 
d="M508 265q0 -125 -64.5 -200.5t-170.5 -75.5q-104 0 -168 75.5t-64 198.5q0 122 66 198.5t171 76.5q108 0 169 -75.5t61 -197.5zM445 260q0 101 -45 160t-123 59q-77 0 -125 -57.5t-48 -157.5q0 -99 47 -157t124 -58q78 0 124 56.5t46 154.5zM249 671q0 -19 -11 -30.5
t-31 -11.5q-18 0 -29 12t-11 30t11.5 30t29.5 12q19 0 30 -12t11 -30zM389 671q0 -19 -11 -30.5t-31 -11.5q-18 0 -29 12t-11 30t11.5 30t29.5 12q19 0 30 -12t11 -30z" />
    <glyph glyph-name="oe.sc" horiz-adv-x="690" 
d="M662 0h-285q-51 -7 -102 -7q-108 0 -171 70t-63 199q0 138 68.5 205.5t176.5 67.5q45 0 91 -8h274v-60h-216v-164h202v-60h-202v-183h227v-60zM373 60v409q-40 8 -84 8q-85 0 -135 -53.5t-50 -159.5q0 -109 50.5 -160t130.5 -51q37 0 88 7z" />
    <glyph glyph-name="ogonek.cap" horiz-adv-x="161" 
d="M159 12q-113 -73 -113 -150q0 -72 67 -72q32 0 60 18v-44q-28 -22 -78 -22q-45 0 -74.5 27t-29.5 82q0 48 31 90t85 71h52z" />
    <glyph glyph-name="ogonek.sc" horiz-adv-x="156" 
d="M157 15q-109 -75 -109 -146q0 -34 17.5 -52t47.5 -18t56 18v-42q-27 -21 -75 -21q-42 0 -69.5 26t-27.5 78q0 46 30 88t82 69h48z" />
    <glyph glyph-name="ograve.sc" horiz-adv-x="550" 
d="M508 265q0 -125 -64.5 -200.5t-170.5 -75.5q-104 0 -168 75.5t-64 198.5q0 122 66 198.5t171 76.5q108 0 169 -75.5t61 -197.5zM445 260q0 101 -45 160t-123 59q-77 0 -125 -57.5t-48 -157.5q0 -99 47 -157t124 -58q78 0 124 56.5t46 154.5zM336 592h-59l-126 168h79z
" />
    <glyph glyph-name="ohungarumlaut.sc" horiz-adv-x="550" 
d="M508 265q0 -125 -64.5 -200.5t-170.5 -75.5q-104 0 -168 75.5t-64 198.5q0 122 66 198.5t171 76.5q108 0 169 -75.5t61 -197.5zM445 260q0 101 -45 160t-123 59q-77 0 -125 -57.5t-48 -157.5q0 -99 47 -157t124 -58q78 0 124 56.5t46 154.5zM222 592h-55l105 168h70z
M354 592h-56l106 168h71z" />
    <glyph glyph-name="omacron.sc" horiz-adv-x="550" 
d="M508 265q0 -125 -64.5 -200.5t-170.5 -75.5q-104 0 -168 75.5t-64 198.5q0 122 66 198.5t171 76.5q108 0 169 -75.5t61 -197.5zM445 260q0 101 -45 160t-123 59q-77 0 -125 -57.5t-48 -157.5q0 -99 47 -157t124 -58q78 0 124 56.5t46 154.5zM390 619h-226v56h226v-56z
" />
    <glyph glyph-name="one.denominator" 
d="M197 0h-52v344l-75 -40v51l127 62v-417z" />
    <glyph glyph-name="one.numerator" 
d="M197 282h-52v344l-75 -40v51l127 62v-417z" />
    <glyph glyph-name="one.oldstyle" horiz-adv-x="327" 
d="M222 0h-66v451l-118 -67v73l184 99v-556z" />
    <glyph glyph-name="one.taboldstyle" horiz-adv-x="462" 
d="M278 0h-67v451l-125 -70v73l192 102v-556z" />
    <glyph glyph-name="onefifth" horiz-adv-x="719" 
d="M201 -12h-42l314 713h42zM199 282h-52v344l-75 -40v51l127 62v-417zM426 18v50q41 -28 98 -28q42 0 66 23.5t24 64.5q0 39 -23.5 60.5t-64.5 21.5q-48 0 -86 -19l19 216h186v-47h-149l-12 -121q20 10 60 10q52 0 86 -30t34 -90q0 -64 -36.5 -100t-101.5 -36
q-62 0 -100 25z" />
    <glyph glyph-name="oslash.sc" horiz-adv-x="550" 
d="M104 -39l-32 20l45 70q-76 76 -76 212q0 123 66 199.5t171 76.5q72 0 125 -36l43 67l31 -20l-45 -71q77 -75 77 -214q0 -125 -65 -200.5t-171 -75.5q-74 0 -127 38zM445 260q0 105 -48 164l-218 -345q39 -30 96 -30q78 0 124 56.5t46 154.5zM104 264q0 -100 47 -158
l219 344q-40 29 -93 29q-77 0 -125 -57.5t-48 -157.5z" />
    <glyph glyph-name="oslashacute.sc" horiz-adv-x="550" 
d="M104 -39l-32 20l45 70q-76 76 -76 212q0 123 66 199.5t171 76.5q72 0 125 -36l43 67l31 -20l-45 -71q77 -75 77 -214q0 -125 -65 -200.5t-171 -75.5q-74 0 -127 38zM445 260q0 105 -48 164l-218 -345q39 -30 96 -30q78 0 124 56.5t46 154.5zM104 264q0 -100 47 -158
l219 344q-40 29 -93 29q-77 0 -125 -57.5t-48 -157.5zM282 592h-57l104 168h79z" />
    <glyph glyph-name="otilde.sc" horiz-adv-x="550" 
d="M508 265q0 -125 -64.5 -200.5t-170.5 -75.5q-104 0 -168 75.5t-64 198.5q0 122 66 198.5t171 76.5q108 0 169 -75.5t61 -197.5zM445 260q0 101 -45 160t-123 59q-77 0 -125 -57.5t-48 -157.5q0 -99 47 -157t124 -58q78 0 124 56.5t46 154.5zM183 611h-45q5 54 28.5 85.5
t53.5 31.5q26 0 63 -29q36 -30 52 -30q29 0 36 60h43q-4 -57 -25.5 -86t-51.5 -29t-70 33q-29 24 -46 24q-30 0 -38 -60z" />
    <glyph glyph-name="p.sc" horiz-adv-x="432" 
d="M140 0h-62v527h100q72 0 103 -6q113 -23 113 -147q0 -104 -80 -140q-48 -21 -131 -21h-43v-213zM140 270h43q61 0 94 13q54 19 54 88q0 78 -78 92q-32 5 -75 5h-38v-198z" />
    <glyph glyph-name="parenleft.cap" horiz-adv-x="274" 
d="M224 -72q-39 36 -67 69.5t-58.5 84t-47 115.5t-16.5 142q0 148 50.5 245t138.5 174h54q-91 -86 -135.5 -184t-44.5 -234q0 -127 46.5 -225t133.5 -187h-54z" />
    <glyph glyph-name="parenleft.denominator" horiz-adv-x="191" 
d="M149 -94q-117 100 -117 266q0 176 117 270h48q-115 -99 -115 -269q0 -154 115 -267h-48z" />
    <glyph glyph-name="parenleft.numerator" horiz-adv-x="191" 
d="M149 188q-117 100 -117 266q0 176 117 270h48q-115 -99 -115 -269q0 -154 115 -267h-48z" />
    <glyph glyph-name="parenright.cap" horiz-adv-x="274" 
d="M-4 758h54q39 -36 67 -69t58.5 -83.5t47 -116t16.5 -142.5q0 -147 -50.5 -244t-138.5 -175h-54q91 86 135.5 184t44.5 234q0 127 -46.5 225t-133.5 187z" />
    <glyph glyph-name="parenright.denominator" horiz-adv-x="191" 
d="M-5 442h47q117 -98 117 -267q0 -172 -117 -269h-47q114 104 114 268q0 159 -114 268z" />
    <glyph glyph-name="parenright.numerator" horiz-adv-x="191" 
d="M-5 724h47q117 -98 117 -267q0 -171 -117 -269h-47q114 104 114 268q0 159 -114 268z" />
    <glyph glyph-name="percent.oldstyle" horiz-adv-x="711" 
d="M291 416q0 -87 -33.5 -142t-100.5 -55q-68 0 -102 55.5t-34 141.5q0 88 35.5 145.5t102.5 57.5q132 0 132 -203zM241 417q0 154 -83 154q-36 0 -61 -36.5t-25 -119.5q0 -84 26 -117t60 -33q83 0 83 152zM232 -16h-40l288 645h38zM689 190q0 -87 -33.5 -142t-100.5 -55
q-68 0 -102 55.5t-34 141.5q0 88 36 145.5t103 57.5q131 0 131 -203zM640 191q0 154 -84 154q-35 0 -60 -36t-25 -120q0 -83 25.5 -116.5t59.5 -33.5q84 0 84 152z" />
    <glyph glyph-name="period.denominator" horiz-adv-x="126" 
d="M106 34q0 -16 -10.5 -27.5t-28.5 -11.5t-28 11t-10 27q0 17 10.5 28t28.5 11q17 0 27.5 -10.5t10.5 -27.5z" />
    <glyph glyph-name="period.inferior" horiz-adv-x="126" 
d="M106 -92q0 -16 -10.5 -27.5t-28.5 -11.5t-28 11t-10 27q0 17 10.5 28t28.5 11q17 0 27.5 -10.5t10.5 -27.5z" />
    <glyph glyph-name="period.numerator" horiz-adv-x="126" 
d="M106 316q0 -16 -10.5 -27.5t-28.5 -11.5t-28 11t-10 27q0 17 10.5 28t28.5 11q17 0 27.5 -10.5t10.5 -27.5z" />
    <glyph glyph-name="period.superior" horiz-adv-x="126" 
d="M106 454q0 -16 -10.5 -27.5t-28.5 -11.5t-28 11t-10 27q0 17 10.5 28t28.5 11q17 0 27.5 -10.5t10.5 -27.5z" />
    <glyph glyph-name="periodcentered.cap" horiz-adv-x="181" 
d="M150 330q0 -22 -15 -37t-37 -15t-36 14.5t-14 35.5q0 23 14.5 38t37.5 15q22 0 36 -14.5t14 -36.5z" />
    <glyph glyph-name="perthousand.oldstyle" horiz-adv-x="1035" 
d="M291 416q0 -87 -33.5 -142t-100.5 -55q-68 0 -102 55.5t-34 141.5q0 88 35.5 145.5t102.5 57.5q132 0 132 -203zM241 417q0 154 -83 154q-36 0 -61 -36.5t-25 -119.5q0 -84 26 -117t60 -33q83 0 83 152zM232 -16h-40l288 645h38zM689 190q0 -87 -33.5 -142t-100.5 -55
q-68 0 -102 55.5t-34 141.5q0 88 36 145.5t103 57.5q131 0 131 -203zM640 191q0 154 -84 154q-35 0 -60 -36t-25 -120q0 -83 25.5 -116.5t59.5 -33.5q84 0 84 152zM1014 190q0 -87 -33.5 -142t-100.5 -55q-68 0 -102 55.5t-34 141.5q0 88 36 145.5t103 57.5q131 0 131 -203z
M965 191q0 154 -84 154q-35 0 -60 -36t-25 -120q0 -83 25.5 -116.5t59.5 -33.5q84 0 84 152z" />
    <glyph glyph-name="q.sc" horiz-adv-x="550" 
d="M508 265q0 -95 -38.5 -163t-106.5 -96q68 -44 156 -70l-20 -55q-53 13 -114.5 45.5t-99.5 62.5h-12q-104 0 -168 75.5t-64 198.5q0 122 66 198.5t171 76.5q108 0 169 -75.5t61 -197.5zM445 260q0 101 -45 160t-123 59q-77 0 -125 -57.5t-48 -157.5q0 -99 47 -157t124 -58
q78 0 124 56.5t46 154.5z" />
    <glyph glyph-name="question.sc" horiz-adv-x="320" 
d="M154 207h-49q0 44 7.5 70t33.5 50q46 42 64.5 71t18.5 60q0 34 -20.5 58.5t-67.5 24.5q-66 0 -111 -44v57q52 42 128 42q62 0 98 -32t36 -93q0 -43 -22 -79.5t-74 -79.5q-23 -19 -31 -42t-11 -63zM182 45q0 -23 -15 -37.5t-37 -14.5t-36 14.5t-14 35.5q0 23 14.5 38
t37.5 15q22 0 36 -14.5t14 -36.5z" />
    <glyph glyph-name="questiondown.cap" horiz-adv-x="358" 
d="M182 491h53q0 -59 -8.5 -94t-38.5 -64q-52 -52 -72.5 -90.5t-20.5 -78.5q0 -45 23.5 -79t77.5 -34q73 0 126 57v-69q-53 -52 -142 -52q-70 0 -111 42t-41 121q0 52 24.5 99.5t83.5 102.5q27 25 35.5 55.5t10.5 83.5zM259 662q0 -22 -14.5 -37t-37.5 -15q-22 0 -36 14.5
t-14 35.5q0 23 14.5 38t37.5 15q22 0 36 -14.5t14 -36.5z" />
    <glyph glyph-name="questiondown.sc" horiz-adv-x="320" 
d="M167 323h49q0 -44 -7.5 -70.5t-33.5 -49.5q-46 -42 -64.5 -71t-18.5 -60q0 -34 20.5 -58.5t67.5 -24.5q66 0 111 44v-57q-56 -42 -128 -42q-62 0 -98 32.5t-36 93.5q0 42 22 79t74 79q23 19 31 42.5t11 62.5zM241 486q0 -22 -14.5 -37t-37.5 -15q-22 0 -36 14.5t-14 35.5
q0 23 14.5 38t37.5 15q22 0 36 -14.5t14 -36.5z" />
    <glyph glyph-name="r.sc" horiz-adv-x="445" 
d="M140 0h-62v527h95q76 0 111 -7q105 -22 105 -134q0 -107 -101 -140q32 -14 56.5 -55t95.5 -191h-67q-61 126 -83 162.5t-42 48.5q-16 9 -47 9h-61v-220zM140 274h70q33 0 57 10q60 25 60 92q0 80 -83 91q-33 5 -71 5h-33v-198z" />
    <glyph glyph-name="r.superior" horiz-adv-x="217" 
d="M94 282h-47v295h48v-45q25 52 77 52q18 0 33 -7v-51q-17 10 -38 10q-47 0 -73 -51v-203z" />
    <glyph glyph-name="racute.sc" horiz-adv-x="445" 
d="M140 0h-62v527h95q76 0 111 -7q105 -22 105 -134q0 -107 -101 -140q32 -14 56.5 -55t95.5 -191h-67q-61 126 -83 162.5t-42 48.5q-16 9 -47 9h-61v-220zM140 274h70q33 0 57 10q60 25 60 92q0 80 -83 91q-33 5 -71 5h-33v-198zM227 592h-57l104 168h79z" />
    <glyph glyph-name="rcaron.sc" horiz-adv-x="445" 
d="M140 0h-62v527h95q76 0 111 -7q105 -22 105 -134q0 -107 -101 -140q32 -14 56.5 -55t95.5 -191h-67q-61 126 -83 162.5t-42 48.5q-16 9 -47 9h-61v-220zM140 274h70q33 0 57 10q60 25 60 92q0 80 -83 91q-33 5 -71 5h-33v-198zM291 753h55l-108 -163h-45l-109 163h57
l76 -102z" />
    <glyph glyph-name="rcommaaccent.sc" horiz-adv-x="445" 
d="M140 0h-62v527h95q76 0 111 -7q105 -22 105 -134q0 -107 -101 -140q32 -14 56.5 -55t95.5 -191h-67q-61 126 -83 162.5t-42 48.5q-16 9 -47 9h-61v-220zM140 274h70q33 0 57 10q60 25 60 92q0 80 -83 91q-33 5 -71 5h-33v-198zM200 -286h-50q63 95 63 221h58
q0 -135 -71 -221z" />
    <glyph glyph-name="ring.cap" horiz-adv-x="161" 
d="M167 837q0 -39 -24.5 -64t-63.5 -25q-38 0 -61.5 24t-23.5 62q0 39 25 64t62 25q39 0 62.5 -23.5t23.5 -62.5zM135 836q0 28 -15 43.5t-41 15.5q-24 0 -39 -16.5t-15 -43.5q0 -24 14.5 -41.5t41.5 -17.5q25 0 39.5 17t14.5 43z" />
    <glyph glyph-name="ring.sc" horiz-adv-x="156" 
d="M168 683q0 -39 -26 -65t-66 -26q-38 0 -63 26t-25 65q0 41 25.5 66t65.5 25t64.5 -25t24.5 -66zM136 684q0 28 -16 45t-44 17q-26 0 -42 -18t-16 -45q0 -26 16 -44.5t45 -18.5q26 0 41.5 18.5t15.5 45.5z" />
    <glyph glyph-name="s.sc" horiz-adv-x="389" 
d="M42 35v71q61 -58 149 -58q98 0 98 82q0 30 -19 52.5t-68 45.5l-57 27q-56 27 -79.5 61t-23.5 84q0 65 42 101.5t114 36.5q76 0 131 -36v-70q-64 49 -131 49q-45 0 -67.5 -23.5t-22.5 -58.5q0 -31 17.5 -49.5t59.5 -39.5l57 -28q66 -34 90 -66t24 -83q0 -67 -44.5 -105
t-120.5 -38q-90 0 -149 45z" />
    <glyph glyph-name="s.superior" horiz-adv-x="244" 
d="M27 303v50q39 -36 98 -36q53 0 53 40q0 14 -10.5 25.5t-41.5 24.5l-33 13q-34 14 -48.5 33.5t-14.5 51.5q0 36 25.5 57.5t70.5 21.5q48 0 86 -26v-48q-45 32 -85 32q-50 0 -50 -37q0 -9 2 -15t12.5 -15t30.5 -17l35 -14q36 -15 51 -34.5t15 -51.5q0 -38 -27 -60.5
t-72 -22.5q-57 0 -97 28z" />
    <glyph glyph-name="sacute.sc" horiz-adv-x="389" 
d="M42 35v71q61 -58 149 -58q98 0 98 82q0 30 -19 52.5t-68 45.5l-57 27q-56 27 -79.5 61t-23.5 84q0 65 42 101.5t114 36.5q76 0 131 -36v-70q-64 49 -131 49q-45 0 -67.5 -23.5t-22.5 -58.5q0 -31 17.5 -49.5t59.5 -39.5l57 -28q66 -34 90 -66t24 -83q0 -67 -44.5 -105
t-120.5 -38q-90 0 -149 45zM206 592h-57l104 168h79z" />
    <glyph glyph-name="scaron.sc" horiz-adv-x="389" 
d="M42 35v71q61 -58 149 -58q98 0 98 82q0 30 -19 52.5t-68 45.5l-57 27q-56 27 -79.5 61t-23.5 84q0 65 42 101.5t114 36.5q76 0 131 -36v-70q-64 49 -131 49q-45 0 -67.5 -23.5t-22.5 -58.5q0 -31 17.5 -49.5t59.5 -39.5l57 -28q66 -34 90 -66t24 -83q0 -67 -44.5 -105
t-120.5 -38q-90 0 -149 45zM273 753h55l-108 -163h-45l-109 163h57l76 -102z" />
    <glyph glyph-name="scedilla.sc" horiz-adv-x="389" 
d="M118 -237v44q24 -19 59 -19q28 0 42 16t14 40q0 52 -59 52q-19 0 -36 -6l26 101q-73 6 -122 44v71q61 -58 149 -58q98 0 98 82q0 30 -19 52.5t-68 45.5l-57 27q-56 27 -79.5 61t-23.5 84q0 65 42 101.5t114 36.5q76 0 131 -36v-70q-64 49 -131 49q-45 0 -67.5 -23.5
t-22.5 -58.5q0 -31 17.5 -49.5t59.5 -39.5l57 -28q66 -34 90 -66t24 -83q0 -64 -41 -101.5t-111 -40.5l-15 -56q5 1 15 1q37 0 58.5 -25t21.5 -65q0 -49 -27 -74.5t-75 -25.5q-42 0 -64 17z" />
    <glyph glyph-name="scircumflex.sc" horiz-adv-x="389" 
d="M42 35v71q61 -58 149 -58q98 0 98 82q0 30 -19 52.5t-68 45.5l-57 27q-56 27 -79.5 61t-23.5 84q0 65 42 101.5t114 36.5q76 0 131 -36v-70q-64 49 -131 49q-45 0 -67.5 -23.5t-22.5 -58.5q0 -31 17.5 -49.5t59.5 -39.5l57 -28q66 -34 90 -66t24 -83q0 -67 -44.5 -105
t-120.5 -38q-90 0 -149 45zM124 588h-56l109 163h45l108 -163h-56l-76 101z" />
    <glyph glyph-name="seven.denominator" 
d="M136 0h-53l142 359h-198v48h266z" />
    <glyph glyph-name="seven.numerator" 
d="M136 282h-53l142 359h-198v48h266z" />
    <glyph glyph-name="seven.oldstyle" horiz-adv-x="420" 
d="M166 -137h-65l213 615h-302v62h382z" />
    <glyph glyph-name="seven.taboldstyle" horiz-adv-x="462" 
d="M190 -137h-65l217 615h-306v62h386z" />
    <glyph glyph-name="six.denominator" 
d="M80 193q10 28 37.5 47.5t63.5 19.5q49 0 80 -32t31 -95q0 -66 -34.5 -103t-91.5 -37q-61 0 -99 48.5t-38 152.5q0 110 45 165t113 55q53 0 84 -22v-53q-32 26 -80 26q-109 0 -111 -172zM84 150q2 -36 14 -65q20 -46 69 -46q32 0 53 24t21 70q0 87 -74 87
q-32 0 -54.5 -20.5t-28.5 -49.5z" />
    <glyph glyph-name="six.numerator" 
d="M80 475q10 28 37.5 47.5t63.5 19.5q49 0 80 -32t31 -95q0 -66 -34.5 -103t-91.5 -37q-61 0 -99 48.5t-38 152.5q0 110 45 165t113 55q53 0 84 -22v-53q-32 26 -80 26q-109 0 -111 -172zM84 432q2 -36 14 -65q20 -46 69 -46q32 0 53 24t21 70q0 87 -74 87
q-32 0 -54.5 -20.5t-28.5 -49.5z" />
    <glyph glyph-name="six.oldstyle" horiz-adv-x="470" 
d="M106 312q16 49 59.5 82t101.5 33q74 0 121.5 -52.5t47.5 -155.5q0 -109 -51.5 -170t-135.5 -61q-91 0 -147 78.5t-56 253.5q0 184 65 272.5t168 88.5q78 0 123 -35v-72q-49 45 -119 45q-91 0 -133 -77.5t-44 -229.5zM112 243q3 -65 23 -113q34 -83 114 -83q53 0 89 43
t36 125q0 154 -121 154q-54 0 -93 -36.5t-48 -89.5z" />
    <glyph glyph-name="six.taboldstyle" horiz-adv-x="462" 
d="M100 312q17 50 59.5 82.5t100.5 32.5q74 0 121.5 -52.5t47.5 -155.5q0 -109 -51 -170t-135 -61q-90 0 -146.5 78.5t-56.5 253.5q0 184 65 272.5t168 88.5q78 0 124 -35v-72q-50 45 -120 45q-91 0 -133.5 -78t-43.5 -229zM106 243q3 -65 23 -113q34 -83 115 -83
q53 0 88 43t35 125q0 155 -121 155q-54 0 -92.5 -37t-47.5 -90z" />
    <glyph glyph-name="sterling.denominator" horiz-adv-x="367" 
d="M253 169h-93l-20 -122h183v-47h-280v47h43l21 122h-38v40h45l13 69q10 57 25 82q32 54 102 54q47 0 73 -18l-6 -50q-25 20 -66 20q-37 0 -57 -32q-13 -22 -21 -68l-10 -57h86v-40z" />
    <glyph glyph-name="sterling.inferior" horiz-adv-x="367" 
d="M253 43h-93l-20 -122h183v-47h-280v47h43l21 122h-38v40h45l13 69q10 57 25 82q32 54 102 54q47 0 73 -18l-6 -50q-25 20 -66 20q-37 0 -57 -32q-13 -22 -21 -68l-10 -57h86v-40z" />
    <glyph glyph-name="sterling.numerator" horiz-adv-x="367" 
d="M253 451h-93l-20 -122h183v-47h-280v47h43l21 122h-38v40h45l13 69q10 57 25 82q32 54 102 54q47 0 73 -18l-6 -50q-25 20 -66 20q-37 0 -57 -32q-13 -20 -21 -68l-10 -57h86v-40z" />
    <glyph glyph-name="sterling.oldstyle" horiz-adv-x="520" 
d="M375 257h-150l-34 -197h288v-60h-418v60h65l35 197h-57v54h66l20 109q14 80 38 124q46 77 146 77q60 0 101 -26v-64q-40 31 -101 31q-58 0 -89 -49q-21 -33 -33 -105l-17 -97h140v-54z" />
    <glyph glyph-name="sterling.superior" horiz-adv-x="367" 
d="M253 589h-93l-20 -122h183v-47h-280v47h43l21 122h-38v40h45l13 69q10 57 25 82q32 54 102 54q47 0 73 -18l-6 -50q-25 20 -66 20q-37 0 -57 -32q-13 -22 -21 -68l-10 -57h86v-40z" />
    <glyph glyph-name="t.sc" horiz-adv-x="410" 
d="M236 0h-63v468h-148v59h359v-59h-148v-468z" />
    <glyph glyph-name="t.superior" horiz-adv-x="204" 
d="M195 288q-25 -13 -62 -13q-55 0 -68 46q-6 23 -6 67v146h-38v43h38v81h47v-81h74v-43h-74v-148q0 -31 4 -44q7 -25 39 -25q21 0 46 14v-43z" />
    <glyph glyph-name="tbar.sc" horiz-adv-x="410" 
d="M236 0h-63v246h-108v48h108v174h-148v59h359v-59h-148v-174h110v-48h-110v-246z" />
    <glyph glyph-name="tcaron.sc" horiz-adv-x="410" 
d="M236 0h-63v468h-148v59h359v-59h-148v-468zM279 753h55l-108 -163h-45l-109 163h57l76 -102z" />
    <glyph glyph-name="thorn.sc" horiz-adv-x="432" 
d="M140 0h-62v527h62v-98h38q66 0 103 -7q113 -23 113 -147q0 -105 -80 -139q-46 -21 -130 -21h-44v-115zM140 172h45q61 0 92 12q53 21 53 89q0 78 -77 92q-33 5 -75 5h-38v-198z" />
    <glyph glyph-name="three.denominator" 
d="M36 18v50q40 -28 100 -28q44 0 64.5 22t20.5 57q0 25 -15 43.5t-45 23.5q-20 4 -53 4h-11v42h12q38 0 51 6q46 18 46 62q0 67 -71 67q-50 0 -92 -32v46q42 33 102 33q54 0 83.5 -27.5t29.5 -77.5q0 -31 -19 -57.5t-59 -36.5q45 -7 68.5 -33.5t23.5 -66.5q0 -55 -36 -88.5
t-102 -33.5q-63 0 -98 25z" />
    <glyph glyph-name="three.numerator" 
d="M36 300v50q40 -28 100 -28q44 0 64.5 22t20.5 57q0 25 -15 43.5t-45 23.5q-20 4 -53 4h-11v42h12q38 0 51 6q46 18 46 62q0 67 -71 67q-50 0 -92 -32v46q42 33 102 33q54 0 83.5 -27.5t29.5 -77.5q0 -31 -19 -57.5t-59 -36.5q45 -7 68.5 -33.5t23.5 -66.5
q0 -55 -36 -88.5t-102 -33.5q-63 0 -98 25z" />
    <glyph glyph-name="three.oldstyle" horiz-adv-x="430" 
d="M34 -99v69q63 -49 150 -49q71 0 105 42.5t34 104.5q0 45 -24.5 76t-74.5 40q-26 5 -80 5h-16v60h16q56 0 82 10q37 15 56.5 46t19.5 69q0 119 -118 119q-71 0 -139 -55v63q66 53 153 53q79 0 123 -43.5t44 -126.5q0 -123 -111 -159q132 -23 132 -161q0 -91 -54 -147.5
t-152 -56.5q-41 0 -82 11.5t-64 29.5z" />
    <glyph glyph-name="three.taboldstyle" horiz-adv-x="462" 
d="M54 -99v69q63 -49 150 -49q71 0 105 42.5t34 104.5q0 45 -24.5 76t-74.5 40q-26 5 -80 5h-16v60h17q55 0 81 10q37 15 56.5 46t19.5 69q0 119 -117 119q-72 0 -140 -55v63q66 53 153 53q79 0 123 -43.5t44 -126.5q0 -123 -111 -159q133 -23 133 -161q0 -91 -54.5 -147.5
t-152.5 -56.5q-41 0 -82 11.5t-64 29.5z" />
    <glyph glyph-name="threefifths" horiz-adv-x="719" 
d="M236 -12h-42l314 713h42zM56 300v50q40 -28 100 -28q44 0 64.5 22t20.5 57q0 25 -15 43.5t-45 23.5q-20 4 -53 4h-11v42h12q38 0 51 6q46 18 46 62q0 67 -71 67q-50 0 -92 -32v46q42 33 102 33q54 0 83.5 -27.5t29.5 -77.5q0 -31 -19 -57.5t-59 -36.5q45 -7 68.5 -33.5
t23.5 -66.5q0 -55 -36 -88.5t-102 -33.5q-63 0 -98 25zM448 18v50q41 -28 98 -28q42 0 66 23.5t24 64.5q0 39 -23.5 60.5t-64.5 21.5q-48 0 -86 -19l19 216h186v-47h-149l-12 -121q20 10 60 10q52 0 86 -30t34 -90q0 -64 -36.5 -100t-101.5 -36q-62 0 -100 25z" />
    <glyph glyph-name="tilde.cap" horiz-adv-x="161" 
d="M-15 765h-47q7 54 31 85t56 31q27 0 64 -29q35 -28 54 -28q30 0 37 58h44q-3 -56 -25.5 -85t-53.5 -29q-30 0 -74 33q-29 23 -46 23q-30 0 -40 -59z" />
    <glyph glyph-name="tilde.sc" horiz-adv-x="161" 
d="M-12 611h-45q5 54 28.5 85.5t53.5 31.5q26 0 63 -29q36 -30 52 -30q29 0 36 60h43q-4 -57 -25.5 -86t-51.5 -29t-70 33q-29 24 -46 24q-30 0 -38 -60z" />
    <glyph glyph-name="two.denominator" 
d="M289 0h-267q108 126 150 184q41 58 41 103q0 78 -74 78q-50 0 -100 -42v48q50 43 111 43q56 0 85.5 -30.5t29.5 -84.5q0 -67 -48 -132q-31 -44 -101 -121q34 1 173 1v-47z" />
    <glyph glyph-name="two.numerator" 
d="M289 282h-267q108 126 150 184q41 58 41 103q0 78 -74 78q-50 0 -100 -42v48q50 43 111 43q56 0 85.5 -30.5t29.5 -84.5q0 -67 -48 -132q-31 -44 -101 -121q34 1 173 1v-47z" />
    <glyph glyph-name="two.oldstyle" horiz-adv-x="436" 
d="M401 0h-382q186 192 217 232q58 76 58 144q0 55 -27 85.5t-81 30.5q-80 0 -150 -68v65q70 65 161 65q79 0 121 -45t42 -118q0 -95 -67 -178q-41 -53 -142 -154q33 1 250 1v-60z" />
    <glyph glyph-name="two.taboldstyle" horiz-adv-x="462" 
d="M421 0h-382q186 192 217 232q59 77 59 144q0 55 -27.5 85.5t-81.5 30.5q-79 0 -150 -68v65q70 65 161 65q80 0 121.5 -44.5t41.5 -118.5q0 -95 -66 -178q-41 -51 -142 -154q32 1 249 1v-60z" />
    <glyph glyph-name="twofifths" horiz-adv-x="719" 
d="M249 -12h-42l314 713h42zM297 282h-267q108 126 150 184q41 58 41 103q0 78 -74 78q-50 0 -100 -42v48q50 43 111 43q56 0 85.5 -30.5t29.5 -84.5q0 -67 -48 -132q-31 -44 -101 -121q34 1 173 1v-47zM457 18v50q41 -28 98 -28q42 0 66 23.5t24 64.5q0 39 -23.5 60.5
t-64.5 21.5q-48 0 -86 -19l19 216h186v-47h-149l-12 -121q20 10 60 10q52 0 86 -30t34 -90q0 -64 -36.5 -100t-101.5 -36q-62 0 -100 25z" />
    <glyph glyph-name="u.sc" horiz-adv-x="536" 
d="M74 527h62v-305q0 -66 10 -98q21 -75 120 -75q108 0 128 87q8 36 8 91v300h60v-304q0 -71 -14 -116q-16 -56 -64 -87t-119 -31q-144 0 -177 115q-14 49 -14 115v308z" />
    <glyph glyph-name="uacute.sc" horiz-adv-x="536" 
d="M74 527h62v-305q0 -66 10 -98q21 -75 120 -75q108 0 128 87q8 36 8 91v300h60v-304q0 -71 -14 -116q-16 -56 -64 -87t-119 -31q-144 0 -177 115q-14 49 -14 115v308zM269 592h-57l104 168h79z" />
    <glyph glyph-name="ubreve.sc" horiz-adv-x="536" 
d="M74 527h62v-305q0 -66 10 -98q21 -75 120 -75q108 0 128 87q8 36 8 91v300h60v-304q0 -71 -14 -116q-16 -56 -64 -87t-119 -31q-144 0 -177 115q-14 49 -14 115v308zM145 719h49q4 -90 75 -90q73 0 77 90h47q-1 -62 -32.5 -101.5t-92.5 -39.5q-60 0 -90.5 38t-32.5 103z
" />
    <glyph glyph-name="ucircumflex.sc" horiz-adv-x="536" 
d="M74 527h62v-305q0 -66 10 -98q21 -75 120 -75q108 0 128 87q8 36 8 91v300h60v-304q0 -71 -14 -116q-16 -56 -64 -87t-119 -31q-144 0 -177 115q-14 49 -14 115v308zM191 588h-56l109 163h45l108 -163h-56l-76 101z" />
    <glyph glyph-name="udieresis.sc" horiz-adv-x="536" 
d="M74 527h62v-305q0 -66 10 -98q21 -75 120 -75q108 0 128 87q8 36 8 91v300h60v-304q0 -71 -14 -116q-16 -56 -64 -87t-119 -31q-144 0 -177 115q-14 49 -14 115v308zM241 671q0 -19 -11 -30.5t-31 -11.5q-18 0 -29 12t-11 30t11.5 30t29.5 12q19 0 30 -12t11 -30z
M381 671q0 -19 -11 -30.5t-31 -11.5q-18 0 -29 12t-11 30t11.5 30t29.5 12q19 0 30 -12t11 -30z" />
    <glyph glyph-name="ugrave.sc" horiz-adv-x="536" 
d="M74 527h62v-305q0 -66 10 -98q21 -75 120 -75q108 0 128 87q8 36 8 91v300h60v-304q0 -71 -14 -116q-16 -56 -64 -87t-119 -31q-144 0 -177 115q-14 49 -14 115v308zM324 592h-59l-126 168h79z" />
    <glyph glyph-name="uhungarumlaut.sc" horiz-adv-x="536" 
d="M74 527h62v-305q0 -66 10 -98q21 -75 120 -75q108 0 128 87q8 36 8 91v300h60v-304q0 -71 -14 -116q-16 -56 -64 -87t-119 -31q-144 0 -177 115q-14 49 -14 115v308zM216 592h-55l105 168h70zM348 592h-56l106 168h71z" />
    <glyph glyph-name="umacron.sc" horiz-adv-x="536" 
d="M74 527h62v-305q0 -66 10 -98q21 -75 120 -75q108 0 128 87q8 36 8 91v300h60v-304q0 -71 -14 -116q-16 -56 -64 -87t-119 -31q-144 0 -177 115q-14 49 -14 115v308zM382 619h-226v56h226v-56z" />
    <glyph glyph-name="uni0163.sc" horiz-adv-x="410" 
d="M137 -237v44q24 -19 59 -19q28 0 42 16t14 40q0 52 -59 52q-19 0 -36 -6l28 110h-12v468h-148v59h359v-59h-148v-468h-11l-17 -65q5 1 15 1q37 0 58.5 -25t21.5 -65q0 -49 -27 -74.5t-75 -25.5q-42 0 -64 17z" />
    <glyph glyph-name="uni0219.sc" horiz-adv-x="389" 
d="M42 35v71q61 -58 149 -58q98 0 98 82q0 30 -19 52.5t-68 45.5l-57 27q-56 27 -79.5 61t-23.5 84q0 65 42 101.5t114 36.5q76 0 131 -36v-70q-64 49 -131 49q-45 0 -67.5 -23.5t-22.5 -58.5q0 -31 17.5 -49.5t59.5 -39.5l57 -28q66 -34 90 -66t24 -83q0 -67 -44.5 -105
t-120.5 -38q-90 0 -149 45zM158 -286h-50q63 95 63 221h58q0 -135 -71 -221z" />
    <glyph glyph-name="uni021B.sc" horiz-adv-x="410" 
d="M236 0h-63v468h-148v59h359v-59h-148v-468zM165 -286h-50q63 95 63 221h58q0 -135 -71 -221z" />
    <glyph glyph-name="uogonek.sc" horiz-adv-x="536" 
d="M74 527h62v-305q0 -66 10 -98q21 -75 120 -75q108 0 128 87q8 36 8 91v300h60v-304q0 -71 -14 -116q-28 -98 -143 -115q-77 -61 -77 -123q0 -34 17.5 -52t47.5 -18t56 18v-42q-27 -21 -75 -21q-42 0 -69.5 26t-27.5 78q0 74 72 132q-131 7 -161 114q-14 49 -14 115v308z
" />
    <glyph glyph-name="uring.sc" horiz-adv-x="536" 
d="M74 527h62v-305q0 -66 10 -98q21 -75 120 -75q108 0 128 87q8 36 8 91v300h60v-304q0 -71 -14 -116q-16 -56 -64 -87t-119 -31q-144 0 -177 115q-14 49 -14 115v308zM363 683q0 -39 -26.5 -65t-65.5 -26q-38 0 -63 26t-25 65q0 41 25.5 66t65.5 25t64.5 -25t24.5 -66z
M331 684q0 28 -16 45t-44 17q-26 0 -42 -18t-16 -45q0 -26 16 -44.5t45 -18.5q26 0 41.5 18.5t15.5 45.5z" />
    <glyph glyph-name="utilde.sc" horiz-adv-x="536" 
d="M74 527h62v-305q0 -66 10 -98q21 -75 120 -75q108 0 128 87q8 36 8 91v300h60v-304q0 -71 -14 -116q-16 -56 -64 -87t-119 -31q-144 0 -177 115q-14 49 -14 115v308zM178 611h-45q5 54 28.5 85.5t53.5 31.5q26 0 63 -29q36 -30 52 -30q29 0 36 60h43q-4 -57 -25.5 -86
t-51.5 -29t-70 33q-29 24 -46 24q-30 0 -38 -60z" />
    <glyph glyph-name="v.sc" horiz-adv-x="449" 
d="M254 -2h-59l-191 529h67q119 -328 155 -439q54 163 155 439h64z" />
    <glyph glyph-name="w.sc" horiz-adv-x="680" 
d="M212 -2h-55l-149 529h67q106 -375 116 -426q17 66 126 426h46q118 -382 129 -426q18 83 114 426h65l-148 -529h-56q-118 387 -128 424q-18 -71 -127 -424z" />
    <glyph glyph-name="wacute.sc" horiz-adv-x="680" 
d="M212 -2h-55l-149 529h67q106 -375 116 -426q17 66 126 426h46q118 -382 129 -426q18 83 114 426h65l-148 -529h-56q-118 387 -128 424q-18 -71 -127 -424zM349 592h-57l104 168h79z" />
    <glyph glyph-name="wcircumflex.sc" horiz-adv-x="680" 
d="M212 -2h-55l-149 529h67q106 -375 116 -426q17 66 126 426h46q118 -382 129 -426q18 83 114 426h65l-148 -529h-56q-118 387 -128 424q-18 -71 -127 -424zM265 588h-56l109 163h45l108 -163h-56l-76 101z" />
    <glyph glyph-name="wdieresis.sc" horiz-adv-x="680" 
d="M212 -2h-55l-149 529h67q106 -375 116 -426q17 66 126 426h46q118 -382 129 -426q18 83 114 426h65l-148 -529h-56q-118 387 -128 424q-18 -71 -127 -424zM312 671q0 -19 -11 -30.5t-31 -11.5q-18 0 -29 12t-11 30t11.5 30t29.5 12q19 0 30 -12t11 -30zM452 671
q0 -19 -11 -30.5t-31 -11.5q-18 0 -29 12t-11 30t11.5 30t29.5 12q19 0 30 -12t11 -30z" />
    <glyph glyph-name="wgrave.sc" horiz-adv-x="680" 
d="M212 -2h-55l-149 529h67q106 -375 116 -426q17 66 126 426h46q118 -382 129 -426q18 83 114 426h65l-148 -529h-56q-118 387 -128 424q-18 -71 -127 -424zM392 592h-59l-126 168h79z" />
    <glyph glyph-name="x.sc" horiz-adv-x="470" 
d="M80 0h-72l186 276l-167 251h72l138 -206l135 206h71l-168 -248l186 -279h-73l-154 230z" />
    <glyph glyph-name="y.sc" horiz-adv-x="436" 
d="M245 0h-62v220l-179 307h72q95 -162 141 -247q36 67 146 247h69l-187 -307v-220z" />
    <glyph glyph-name="yacute.sc" horiz-adv-x="436" 
d="M245 0h-62v220l-179 307h72q95 -162 141 -247q36 67 146 247h69l-187 -307v-220zM224 592h-57l104 168h79z" />
    <glyph glyph-name="ycircumflex.sc" horiz-adv-x="436" 
d="M245 0h-62v220l-179 307h72q95 -162 141 -247q36 67 146 247h69l-187 -307v-220zM140 588h-56l109 163h45l108 -163h-56l-76 101z" />
    <glyph glyph-name="ydieresis.sc" horiz-adv-x="436" 
d="M245 0h-62v220l-179 307h72q95 -162 141 -247q36 67 146 247h69l-187 -307v-220zM191 671q0 -19 -11 -30.5t-31 -11.5q-18 0 -29 12t-11 30t11.5 30t29.5 12q19 0 30 -12t11 -30zM331 671q0 -19 -11 -30.5t-31 -11.5q-18 0 -29 12t-11 30t11.5 30t29.5 12q19 0 30 -12
t11 -30z" />
    <glyph glyph-name="yen.denominator" horiz-adv-x="376" 
d="M320 205h-86l-20 -33v-18h106v-31h-106v-123h-54v123h-102v31h102v18l-20 33h-82v32h62l-102 170h63l107 -183q32 56 113 183h57l-105 -170h67v-32z" />
    <glyph glyph-name="yen.inferior" horiz-adv-x="376" 
d="M320 79h-86l-20 -33v-18h106v-31h-106v-123h-54v123h-102v31h102v18l-20 33h-82v32h62l-102 170h63l107 -183q32 56 113 183h57l-105 -170h67v-32z" />
    <glyph glyph-name="yen.numerator" horiz-adv-x="376" 
d="M320 487h-86l-20 -33v-18h106v-31h-106v-123h-54v123h-102v31h102v18l-20 33h-82v32h62l-102 170h63l107 -183q32 56 113 183h57l-105 -170h67v-32z" />
    <glyph glyph-name="yen.oldstyle" horiz-adv-x="534" 
d="M462 318h-133l-34 -56v-31h166v-43h-166v-188h-63v188h-158v43h158v31l-34 56h-124v43h99l-152 256h76l170 -293q62 110 174 293h72l-157 -256h106v-43z" />
    <glyph glyph-name="yen.superior" horiz-adv-x="376" 
d="M320 625h-86l-20 -33v-18h106v-31h-106v-123h-54v123h-102v31h102v18l-20 33h-82v32h62l-102 170h63l107 -183q32 56 113 183h57l-105 -170h67v-32z" />
    <glyph glyph-name="ygrave.sc" horiz-adv-x="436" 
d="M245 0h-62v220l-179 307h72q95 -162 141 -247q36 67 146 247h69l-187 -307v-220zM269 592h-59l-126 168h79z" />
    <glyph glyph-name="z.sc" horiz-adv-x="433" 
d="M411 0h-402l300 470q-2 0 -93 -0.5t-172 -0.5v58h370q-260 -411 -300 -469q40 1 297 1v-59z" />
    <glyph glyph-name="zacute.sc" horiz-adv-x="433" 
d="M411 0h-402l300 470q-2 0 -93 -0.5t-172 -0.5v58h370q-260 -411 -300 -469q40 1 297 1v-59zM232 592h-57l104 168h79z" />
    <glyph glyph-name="zcaron.sc" horiz-adv-x="433" 
d="M411 0h-402l300 470q-2 0 -93 -0.5t-172 -0.5v58h370q-260 -411 -300 -469q40 1 297 1v-59zM301 753h55l-108 -163h-45l-109 163h57l76 -102z" />
    <glyph glyph-name="zdotaccent.sc" horiz-adv-x="433" 
d="M411 0h-402l300 470q-2 0 -93 -0.5t-172 -0.5v58h370q-260 -411 -300 -469q40 1 297 1v-59zM272 671q0 -19 -11 -30.5t-31 -11.5q-18 0 -29 12t-11 30t11.5 30t29.5 12q19 0 30 -12t11 -30z" />
    <glyph glyph-name="zero.denominator" 
d="M298 200q0 -92 -33 -149.5t-103 -57.5t-103 58t-33 149q0 94 35 154t104 60q133 0 133 -214zM246 201q0 92 -22 128t-61 36q-36 0 -60 -38.5t-24 -127.5q0 -160 84 -160q83 0 83 162z" />
    <glyph glyph-name="zero.numerator" 
d="M298 482q0 -92 -33 -149.5t-103 -57.5t-103 58t-33 149q0 94 35 154t104 60q133 0 133 -214zM246 483q0 92 -22 128t-61 36q-36 0 -60 -38.5t-24 -127.5q0 -160 84 -160q83 0 83 162z" />
    <glyph glyph-name="zero.oldstyle" horiz-adv-x="462" 
d="M431 266q0 -122 -51 -200t-150 -78q-101 0 -150 78.5t-49 199.5q0 125 51 206.5t151 81.5q198 0 198 -288zM367 267q0 125 -36 175t-99 50q-57 0 -97 -52.5t-40 -172.5q0 -119 41 -168t97 -49q25 0 46 9t42 31t33.5 67.5t12.5 109.5z" />
    <glyph glyph-name="zero.taboldstyle" horiz-adv-x="462" 
d="M431 266q0 -122 -51 -200t-150 -78q-101 0 -150 78.5t-49 199.5q0 125 51 206.5t151 81.5q198 0 198 -288zM367 267q0 125 -36 175t-99 50q-57 0 -97 -52.5t-40 -172.5q0 -119 41 -168t97 -49q25 0 46 9t42 31t33.5 67.5t12.5 109.5z" />
    <glyph glyph-name="A.sc" horiz-adv-x="483" 
d="M451 338q0 -97 -20 -173.5t-68.5 -126.5t-120.5 -50q-73 0 -122 50.5t-69 126.5t-20 174q0 102 22 181.5t71.5 130t120.5 50.5q206 0 206 -363zM387 341q0 86 -11 145.5t-32 92t-45.5 46t-56.5 13.5q-61 0 -103 -71.5t-42 -229.5q0 -85 13.5 -144.5t36.5 -89t46 -41.5
t50 -12q144 0 144 291z" />
    <glyph glyph-name="B.sc" horiz-adv-x="355" 
d="M223 0h-66v606l-123 -70v68l189 103v-707z" />
    <glyph glyph-name="C.sc" horiz-adv-x="463" 
d="M430 0h-410q159 197 235 311q71 110 71 190q0 136 -123 136q-80 0 -159 -72v67q74 69 170 69q87 0 132 -49t45 -139q0 -104 -79 -223q-64 -96 -171 -229q58 1 289 1v-62z" />
    <glyph glyph-name="D.sc" horiz-adv-x="463" 
d="M38 30v70q67 -50 154 -50q76 0 111 41.5t35 108.5q0 45 -26 80.5t-79 43.5q-35 5 -81 5h-17v60h18q60 0 83 11q39 17 59.5 47.5t20.5 67.5q0 55 -29.5 89.5t-92.5 34.5q-73 0 -143 -56v66q65 52 155 52q81 0 127 -46t46 -130q0 -52 -28.5 -97t-90.5 -63
q69 -10 105.5 -55.5t36.5 -114.5q0 -93 -55.5 -150t-157.5 -57q-43 0 -85 12t-66 30z" />
    <glyph glyph-name="E.sc" horiz-adv-x="497" 
d="M387 0h-64v205h-286v45l294 439h56v-428h87v-56h-87v-205zM323 261q0 284 1 334q-26 -45 -219 -334h218z" />
    <glyph glyph-name="F.sc" horiz-adv-x="463" 
d="M48 29v70q68 -49 157 -49q68 0 107.5 45.5t39.5 119.5q0 73 -39.5 111t-108.5 38q-73 0 -132 -32l31 357h285v-62h-235l-20 -221q35 16 92 16q84 0 137.5 -51t53.5 -154q0 -105 -56 -167t-155 -62q-91 0 -157 41z" />
    <glyph glyph-name="G.sc" horiz-adv-x="493" 
d="M113 324q16 50 60 82.5t105 32.5q81 0 130 -53.5t49 -159.5q0 -113 -53 -175.5t-142 -62.5q-95 0 -153.5 80.5t-58.5 260.5q0 189 68.5 280.5t176.5 91.5q83 0 127 -37v-72q-50 46 -123 46q-96 0 -140 -79t-46 -235zM119 248q3 -59 26 -115q36 -84 118 -84q56 0 93 44
t37 129q0 82 -34.5 122t-93.5 40q-56 0 -96 -40t-50 -96z" />
    <glyph glyph-name="H.sc" horiz-adv-x="444" 
d="M171 0h-71l233 627h-318v62h404z" />
    <glyph glyph-name="I.sc" horiz-adv-x="483" 
d="M161 358q-103 44 -103 160q0 80 52.5 131.5t131.5 51.5q84 0 133.5 -48t49.5 -133q0 -53 -27 -97t-77 -62q59 -16 89.5 -64.5t30.5 -111.5q0 -87 -54.5 -142t-148.5 -55q-86 0 -141 52t-55 145q0 60 31.5 107t87.5 66zM365 518q0 58 -33 92.5t-90 34.5q-52 0 -88.5 -35
t-36.5 -93q0 -55 32 -93t93 -38q58 0 90.5 37.5t32.5 94.5zM380 188q0 68 -38 105t-100 37q-63 0 -101 -39.5t-38 -100.5q0 -70 40.5 -107t95.5 -37q59 0 100 37t41 105z" />
    <glyph glyph-name="J.sc" horiz-adv-x="493" 
d="M377 368q-16 -49 -62.5 -83t-106.5 -34q-77 0 -126 53t-49 159q0 112 54.5 175t143.5 63q94 0 151 -80t57 -261q0 -193 -66.5 -282.5t-178.5 -89.5q-81 0 -131 36v73q52 -46 127 -46q185 0 187 317zM370 439q-4 72 -23 116q-37 85 -117 85q-57 0 -95.5 -44.5
t-38.5 -128.5q0 -82 34 -121t93 -39q57 0 97.5 38.5t49.5 93.5z" />
    <glyph glyph-name="zero.fitted" horiz-adv-x="483" 
d="M451 338q0 -97 -20 -173.5t-68.5 -126.5t-120.5 -50q-73 0 -122 50.5t-69 126.5t-20 174q0 102 22 181.5t71.5 130t120.5 50.5q206 0 206 -363zM387 341q0 86 -11 145.5t-32 92t-45.5 46t-56.5 13.5q-61 0 -103 -71.5t-42 -229.5q0 -85 13.5 -144.5t36.5 -89t46 -41.5
t50 -12q144 0 144 291z" />
    <glyph glyph-name="one.fitted" horiz-adv-x="355" 
d="M223 0h-66v606l-123 -70v68l189 103v-707z" />
    <glyph glyph-name="two.fitted" horiz-adv-x="463" 
d="M430 0h-410q159 197 235 311q71 110 71 190q0 136 -123 136q-80 0 -159 -72v67q74 69 170 69q87 0 132 -49t45 -139q0 -104 -79 -223q-64 -96 -171 -229q58 1 289 1v-62z" />
    <glyph glyph-name="three.fitted" horiz-adv-x="463" 
d="M38 30v70q67 -50 154 -50q76 0 111 41.5t35 108.5q0 45 -26 80.5t-79 43.5q-35 5 -81 5h-17v60h18q60 0 83 11q39 17 59.5 47.5t20.5 67.5q0 55 -29.5 89.5t-92.5 34.5q-73 0 -143 -56v66q65 52 155 52q81 0 127 -46t46 -130q0 -52 -28.5 -97t-90.5 -63
q69 -10 105.5 -55.5t36.5 -114.5q0 -93 -55.5 -150t-157.5 -57q-43 0 -85 12t-66 30z" />
    <glyph glyph-name="four.fitted" horiz-adv-x="497" 
d="M387 0h-64v205h-286v45l294 439h56v-428h87v-56h-87v-205zM323 261q0 284 1 334q-26 -45 -219 -334h218z" />
    <glyph glyph-name="five.fitted" horiz-adv-x="463" 
d="M48 29v70q68 -49 157 -49q68 0 107.5 45.5t39.5 119.5q0 73 -39.5 111t-108.5 38q-73 0 -132 -32l31 357h285v-62h-235l-20 -221q35 16 92 16q84 0 137.5 -51t53.5 -154q0 -105 -56 -167t-155 -62q-91 0 -157 41z" />
    <glyph glyph-name="six.fitted" horiz-adv-x="493" 
d="M113 324q16 50 60 82.5t105 32.5q81 0 130 -53.5t49 -159.5q0 -113 -53 -175.5t-142 -62.5q-95 0 -153.5 80.5t-58.5 260.5q0 189 68.5 280.5t176.5 91.5q83 0 127 -37v-72q-50 46 -123 46q-96 0 -140 -79t-46 -235zM119 248q3 -59 26 -115q36 -84 118 -84q56 0 93 44
t37 129q0 82 -34.5 122t-93.5 40q-56 0 -96 -40t-50 -96z" />
    <glyph glyph-name="seven.fitted" horiz-adv-x="444" 
d="M171 0h-71l233 627h-318v62h404z" />
    <glyph glyph-name="eight.fitted" horiz-adv-x="483" 
d="M161 358q-103 44 -103 160q0 80 52.5 131.5t131.5 51.5q84 0 133.5 -48t49.5 -133q0 -53 -27 -97t-77 -62q59 -16 89.5 -64.5t30.5 -111.5q0 -87 -54.5 -142t-148.5 -55q-86 0 -141 52t-55 145q0 60 31.5 107t87.5 66zM365 518q0 58 -33 92.5t-90 34.5q-52 0 -88.5 -35
t-36.5 -93q0 -55 32 -93t93 -38q58 0 90.5 37.5t32.5 94.5zM380 188q0 68 -38 105t-100 37q-63 0 -101 -39.5t-38 -100.5q0 -70 40.5 -107t95.5 -37q59 0 100 37t41 105z" />
    <glyph glyph-name="nine.fitted" horiz-adv-x="493" 
d="M377 368q-16 -49 -62.5 -83t-106.5 -34q-77 0 -126 53t-49 159q0 112 54.5 175t143.5 63q94 0 151 -80t57 -261q0 -193 -66.5 -282.5t-178.5 -89.5q-81 0 -131 36v73q52 -46 127 -46q185 0 187 317zM370 439q-4 72 -23 116q-37 85 -117 85q-57 0 -95.5 -44.5
t-38.5 -128.5q0 -82 34 -121t93 -39q57 0 97.5 38.5t49.5 93.5z" />
    </font>
</defs>
</svg>
